<!-- <svg xmlns="http://www.w3.org/2000/svg" viewBox="0 0 432 288" width="432" height="288"> -->
<svg xmlns="http://www.w3.org/2000/svg" viewBox="0 0 432 288">
  <title>Artwork title goes here.</title>
  <desc>Artwork description goes here.</desc>
  <path fill="#BFDBE2" d="M0 0h432v288H0z"/>
  <path fill="#EAD2C3" d="M298.3 288.2c-17.2-42.6-8.3-75.1-80.2-75.9s-79.8 75.3-79.8 75.3"/>
  <path fill="#E5E2AC" d="M211.4 41.4c45.1.8 45.1 67.8 0 68.6-45.1-.8-45.1-67.8 0-68.6z"/>
  <path fill="#E5E2AC" d="M227.2 138.5c-15.5 9.7-41.7 2.1-41.3-18.9v-16.9h51c0 11.5 2.1 29.2-9.7 35.8zM185.9 102.8S174 86.4 177 75.7M236.9 102.8s11.2-21.5 8.9-27.1M190 102c0 .2.1.4.1.5-.6-.6-1.3-1.3-2-1.8.9.3 1.8.3 2.8.1"/>
  <path fill="#E5E2AC" d="M188.3 102.5c0 .2.1.4.1.5 1-.6 1.9-1.1 2.9-1.7-.6-.6-1.3-1.3-2-1.8-.6 1-1.1 1.9-1.7 2.9 5 1.8 7.1-3.6 2.3-3.1.2 0 .3 0 .5-.1-.5.1-1 .1-1.5 0 .2 0 .3 0 .5.1-1.7-.7-3.4.1-2.8 2.1 1.1 1.2 2.7 3.5 4.5 2.7 3-2.6-2.4-5.8-2.8-1.6zM232.8 102.6c2-1.8 3.6-4 4.6-6.5-.6 1.2-1 2.5-1.3 3.8 0-.1.1-.1.1-.2l-.9 2.4"/>
  <path fill="#E5E2AC" d="M234.1 103.8c2.1-1.9 3.8-4.2 4.9-6.8l-3-1.8c-1.4 2.2-2.6 8.7 1.7 5.6 0-.1.1-.1.1-.2-1.1-.4-2.1-.9-3.2-1.3-.5 1.5-1.9 3.8.3 4.5 3.7.6 4-8.6-.2-4.9 0 .1-.1.1-.1.2 1.1.4 2.1.9 3.2 1.3.4-1.1.7-2.2 1.1-3.3-.2.4 0-.1.1-.1 1.2-1.9-2-3.6-3-1.7-.5 1.3-1.6 3-2.4 3.9-.2.3-1.3 1.7-2 2.2-1.7 1.5.9 4.1 2.5 2.4zM185 95.9s-.1 0-.1-.1c.8 1.5 1.6 3 2.2 4.6-.1-.4-.3-.7-.6-.8.2.4.5.9.7 1.3l-.3-.3c.3.5.5 1 .8 1.5"/>
  <path fill="#E5E2AC" d="M185.9 94.4s-.1 0-.1-.1c-4.3-1.1-1.8 3.8-.8 5.7.1.6.8 2.4 2.4 2 4.9-3.4-5.7-7.1-1.9-.3l2.7-2.1c-4.4-3.6-3.8 5.6.2 3.9 1.6-.9.5-2.7-.2-3.9l-2.7 2.1c2.5 2.4 4.3-1 2.3-3.1l-2.4 2.4.2.1-.2-.2c.1.1.1.1 0 0-.2-.3.1.2-.1-.1-.1-.3 0 0 0 .1 1.1-.3 2.2-.6 3.4-.9-.7-1.7-1.5-3.4-2.4-5l-2.4 2.4s.1 0 .1.1c1.9 1.3 3.6-2.1 1.9-3.1z"/>
  <path fill="#5E5F5F" d="M185.9 122.5h50.9l-4 21.6h-42zM190.8 144.1s2.8 7 5.6 6.1l31.2.1s4.4-1.3 5.3-6.2"/>
  <path fill="#5E5F5F" d="M196.4 150.2s-2.5.4 1.3 4.2h27.8s3.1-.7 2.1-4.1"/>
  <g opacity=".84">
    <path d="M202.8 159.2c4.8 4.8 13.8 2.2 19.3-.4M201.8 159.8c1.9 6.9 28.7.2 19.7-2-5.2 2.4-13 4.6-17.7.7-.8-1.2-2.8 0-2 1.3z"/>
  </g>
  <path fill="#5E5F5F" d="M197.7 154.5s1.4 3.7 2.4 3.3c0 0 9.1 5.8 23.5 0 0 0 .9.4 2.5-3.6"/>
  <path fill="none" stroke="#4C4C4D" stroke-miterlimit="10" stroke-width=".716" d="M187.6 130s22.6 8.3 47 0M186.9 126.1s22.5 7.1 48.3 0M189.4 135.4s20.5 7.7 45.1-.6M190.2 141.4s17.3 7.1 43.1 0M192.4 147.2s10 3.7 39.2 0M196.1 150.3s16.1 6.8 31.5 0M196.1 152.3s13.6 6.5 31.5 0M197.7 154.5s11.7 5.1 27.8 0M199.2 157.3s9 3.1 25.2 0"/>
  <path fill="#878787" d="M189 127.9c2.6.4 5.3.8 7.9 1.1.2-1.6.4-3.1.6-4.7-10.7-.1-13 6.5-1 7.6v-4.8c-8.7 1.4-7.5 6.1.2 8v-4.6c-9.2 1.9-5.5 5.6.7 8.4.2-1.5.4-2.9.6-4.4-7.4 1-5 5.2-.4 8.3 2.1 1.6 5-2 2.9-3.7-7.6-4.1-8.8 7.4-1 8.1v-4.6c-6 .9-2.8 6 1 7.4v-4.1c-3.1.9-3 5.9.6 5.2-.6-.3-.8-.4-.7-.1-.8 1.9.4 7.6 4.3 7.1 3.1 0 3.1-4.8 0-4.8.2 0 .2.2.3 0 .9-3.3-1.2-8.1-5.2-6.9.6 1.5 1.2 2.9 1.8 4.4 4.7-3 1.7-4.3-1.2-6.6-.5 1.2-1 2.3-1.4 3.5 4.6-.6 4.4-5.2-.1-5.7l-.2-.2c0 .2-.1.4-.1.6-.4.6-1 .6-1.6.1 1-1.2 1.9-2.5 2.9-3.7-1-.8-2-1.8-2.8-2.8-.4 1.3-.7 2.7-1.1 4 9-1.7 3.8-5.7-1.4-8.1-.2 1.5-.4 2.9-.6 4.4 8.8-1.7 6-5.7-.8-7.5.4 1.3.7 2.7 1.1 4 .6-.5 1.4-.8 2.1-.8 3.1-.2 3-4.4 0-4.8-1.6-.2-3.2-.6-4.6-1.3-.2 1.5-.4 2.9-.6 4.4 2.5-1.6 7.6.2 8.4-3.3-.1-4.3-6.7-2.7-9.6-3.7-3.2-.8-4 3.8-1 4.6z" opacity=".54"/>
  <path fill="#606161" d="M236.7 122.5v-.7c-25.7-11.2-51.1-.1-50.9 0v.7"/>
  <path fill="#606161" d="M211.5 124.7c-28.4-55.3-2.8-67-3.2-33 .3-.1.6-.2.9-.2-4.3-4-.4-10.3 1.4-14.6 1.3-4 6.9-10.7 9.3-3.7 2.2 10.8-2.5 21.6-5 32-1.7 5.9-3.7 11.8-5.6 17.7-.2.7.8 1 1.1.3 4.6-15.2 11-30.5 11.2-46.5-2.4-21.4-21.5 9.1-13 15.9 3.6-2.5-.5-19-5.6-20.4-16.1 1.1 3.4 45.2 7.7 53.5.2.1 1.2-.4.8-1z"/>
  <path fill="#FFF" d="M191.7 121.8c.3-14.6-37.4-67.6 19.6-79 0 0 49.1 6.3 24 59.3l-5 18.6" opacity=".69"/>
  <path fill="#FCF9D5" d="M213.2 25.8c-1.4-3.8.7-14.6-3.9-15.4-5.3 1-.5 11.4-1.1 15.4 0 3.2 5 3.3 5 0zM260.4 42.5c2.5-3.3 14.7-8.4 11.5-12.8-4-2.6-11.1 7.3-15 9.3-2.3 2.3 1.2 5.7 3.5 3.5zM268.8 78.4c4-1.7 20.8-.6 19.6-6-1.7-4.3-16.6 1.4-21 1.2-3.1.8-1.8 5.6 1.4 4.8zM144 43.3c4.4.3 20 8.8 21.8 4 1.1-4.8-16.4-6.6-20.4-8.8-3.1-.9-4.5 4-1.4 4.8zM144.6 100.7c3.8-2.6 18.8-4.8 18.2-9.6-1.8-5-15.4 4.2-19.6 4.8-3.1.9-1.7 5.8 1.4 4.8z"/>
  <path d="M194.2 194.4c-28.9 3.5-64.4 13.1-73.5 44.5-3.7 12.9-1.8 29.5-13.2 38.8-2.5 1.6-.1 5.7 2.4 4 15-11.3 10.6-32.3 17.6-47.7 16.5-38.2 85.3-31.5 66.7-39.6z" opacity=".38"/>
  <path d="M205.6 200.2c29.1-14.6 66.9-3.5 83.7 24.2 11.1 18 13.4 41 29 56.1 2.2 2.1 5.5-1.2 3.3-3.3-15-14.6-17.1-36.8-27.7-54.1-17.6-30.8-59.3-43.1-90.9-27-2.7 1.7.1 5.5 2.6 4.1z" opacity=".38"/>
  <path fill="#735745" d="M113.1 282.2c12.3-12 9.6-31.4 19.5-44.7-1.7-1-3.5-2-5.2-3-1.4 6.8-2.9 13.7-4.3 20.5 2.9 13.9 13.7-12.2 15.7-15.9l-5.7-2.4c-1.4 4-13 35.8-.7 27.5 3.7-3.2 11.4-27.7.4-20.2-4.4 9.5-7.8 19.4-10.3 29.6-.9 3.9 5 5.6 6 1.7 1.7-4.5 3.1-27.5-5.6-18.1-2.2 7.2-3.3 14.8-3.4 22.4 0 3.5 5.1 4.3 6.1.9 1.9-3.9 10-33.7-1.2-25.6-2 5.3-13.8 26.5-8.1 29.8 5.4 2.4 13.3-17.4 3.8-13.9-15.6 13.8 1.5 15 8.7 2.4 1.7-8.1-8.5-5.1-7.2 3.9 4.7 10.5 11.4-8.8 12.8-13-2-.3-4.1-.6-6.1-.8-.4 4.8-.9 9.6-1.3 14.3-.3 3.1 4.4 4.2 5.8 1.6 3-5.7 3.9-12.3 2.3-18.6-.9-3.5-6.1-2.7-6.1.8-.1 6.3 1.4 12.4 4.2 18 1.4 2.9 5.8 1.4 5.8-1.6-.5-4.9.3-18.9-6-19.4-6.2 1.5.4 16.2 1.1 20.7 1.3 3.8 6.9 2.3 6-1.7-2.2-10.1-2.3-20.6-.3-30.7.3-1.7-.5-3.4-2.2-3.8-8.6-.7-4.8 30.4-3.5 36.2 2-.6 4-1.1 6-1.7-1.7-5.2-3-10.5-3.6-15.9-2 .3-4.1.6-6.1.8 1.6 5.1 2.4 10.3 2.4 15.6 1.9-.5 3.9-1.1 5.8-1.6-2.3-4.6-3.4-9.7-3.4-14.8-2 .3-4.1.6-6.1.8 1.2 4.7.6 9.6-1.7 13.8 1.9.5 3.9 1.1 5.8 1.6-.6-4.7 4.2-15.6-1.4-17.4-1.5-.2-3 .7-3.4 2.2-1.4 4.7-3.5 9.1-6.3 13.1 1.9.5 3.9 1.1 5.8 1.6-.2-1.5.1-2.6 1-3.9-1.8-1.1-3.6-2.1-5.4-3.2-1.7 2.7-4.4 5-7.4 6.2 1.2 1.5 2.4 3.1 3.5 4.6.8-1.8 2-3.4 3.6-4.6-1.5-1.2-3.1-2.4-4.6-3.5-.8 2.8-2.1 5.3-3.8 7.7l5.7 2.4c2.2-8.5 5.3-16.7 9.3-24.6-1.9-.5-3.9-1.1-5.8-1.6 0 7.7-1.5 15.2-4.3 22.3 2 .3 4.1.6 6.1.8 0-7 1.1-14 3.2-20.7h-6c1 4.9.8 10-.4 14.8 2 .6 4 1.1 6 1.7 2.3-9.7 5.5-19.1 9.7-28.1-1.9-.5-3.9-1.1-5.8-1.6-.2 5.6-2.1 10.9-5.3 15.5l5.7 2.4c1.2-8.6 3.3-17 6.4-25.1 1.2-3.3-4.3-5.6-5.7-2.4-2.8 6.4-6.2 12.5-10 18.3l5.7 2.4c-.2-4.5 9.9-29.2-.9-23.5-8.1 9.7-8.8 22.9-13.2 34.4-1.5 4-3.5 7.4-6.4 10.3-3 2.4 1.5 6.8 4.3 4z"/>
  <path fill="#735745" d="M198.9 195c-55.4.5-86.3 29.1-86.8 85 0 4 6.2 4 6.2 0-.1-51.6 29.4-78.9 80.4-78.7 4.2-.1 4.2-6.4.2-6.3z"/>
  <path fill="#735745" d="M131.6 236.3c11.9-25.1 42.5-29.8 67.4-32.1-.3-2-.6-4.1-.8-6.1-22.4 7.2-44.4 16.4-65.2 27.5 1.3 1.6 2.5 3.3 3.8 4.9 8.6-6.8 17.7-12.8 27.2-18.3-1.1-1.8-2.1-3.6-3.2-5.4-5.5 3.2-33.4 25.2-26.6 31.2 5.5 1.6 7.7-7.1 11.2-10.1.8-1.1.4-2.9-.5-3.8-4.4-2.8-9.4 3.3-12.3 6.3-4 3.7-6.5 13.5 1.4 13.8 6.7-1.6 9.1-10 13.5-14.7-1.8-1.1-3.6-2.1-5.4-3.2-1.3 4.9-12.4 17.9-7.6 21.3 1.4.8 3.5.4 4.3-1.1 9.1-16.8 25.6-29.1 44.1-33.6 5.3-1.3 10.3-1.9 15.8-1.8 4 0 4-6.2 0-6.3-26.6-.3-52.7 15-65.3 38.5 1.8 1.1 3.6 2.1 5.4 3.2 2.9-5.7 5.8-11.3 8.7-17 .8-1.5.4-3.4-1.1-4.3-5.6-1.9-8.8 9.5-12.7 12.5-.5.6 0 0 .6.3.3 0 .9 1.3.6.6 0 .1 0 .2.1.3.6-3.5 5.2-7.9 9.3-9.9l-4.3-4.3-6.9 9c1.8 1.1 3.6 2.1 5.4 3.2 6.6-9.9 15.3-18.4 25.4-24.7 3.4-2.1.4-7.4-3.2-5.4-10 5.7-19.5 12.1-28.5 19.2-2.6 2.4.8 6.8 3.8 4.9 20.4-10.8 41.7-19.9 63.7-26.9 3.4-.9 2.6-6.3-.9-6.1-22.2 2.3-46.1 5.2-62.9 21.4-3.2 3.7-13.7 13.4-8.9 18.1 1.7.8 3.9.5 4.6-1.1z"/>
  <path fill="#735745" d="M205.4 201.5c46.5-20.5 80.4 9.5 95.7 52.4 3.1 5.5 15 34.3 22.1 29.3 1.2-1.2 1.1-3.2 0-4.4-20.5-23.6-23.3-60-51.1-77.9-33.8-25.9-88.5-1.6-66.7.6z"/>
  <path fill="#735745" d="M198.1 208.6c21.2-10.5 49.2-16.3 69.4-.5 1-1.7 2-3.5 3-5.2-22.1-9.7-52.9-17.9-71.4 2.7-2.3 2.7.6 6.5 3.8 4.9 16.6-8.4 36.9-9 54-1.8.5-1.9 1.1-3.9 1.6-5.8-16.2 1.7-32.5-4.1-48.6.4-4.4.5-20.3 8.9-8.9 11.1 18.3-2.7 37-2.9 55.4-.8 5-.5 16.4 5 19.1.6 1.6-5.7-11.7-7.5-15.4-10.4-3.6-1.9-6.7 3.3-3.2 5.4 6.7 4.2 13.3 8.4 20 12.5 3.1 1.9 6.1-2.4 3.8-4.9-3.3-3.6-6.5-7.1-9.8-10.7l-4.4 4.4c5 5.3 10 10.7 15 16l4.4-4.4c-5.7-5.9-12.2-11-19.3-15-14-.8 7 17.7 11.7 18.9 3.5 2 6.7-3.2 3.2-5.4-9.9-5.6-20.1-10.4-30.7-14.5-3.3-1.3-5.5 4.1-2.4 5.7 5.5 2.8 11.1 5.7 16.6 8.5l2.4-5.7c-3.2-.9-6.3-1.8-9.5-2.7-3.9-1.1-5.5 4.9-1.7 6 3.2.9 6.3 1.8 9.5 2.7 3.3 1 5.6-4.1 2.4-5.7-5.5-2.8-11.1-5.7-16.6-8.5l-2.4 5.7c10.1 3.8 19.8 8.5 29.2 13.8 1.1-1.8 2.1-3.6 3.2-5.4-5.6-2.8-10.3-7-13.7-12.3l-4.3 4.3c6.7 3.8 12.7 8.5 18 14.1 2.8 2.9 7.2-1.5 4.4-4.4-5-5.3-10-10.7-15-16-2.8-2.9-7.1 1.5-4.4 4.4 3.3 3.6 6.5 7.1 9.8 10.7 1.3-1.6 2.5-3.3 3.8-4.9-6.7-4.2-13.3-8.4-20-12.5-1.1 1.8-2.1 3.6-3.2 5.4 4.7 2.2 9.4 4.3 14.1 6.5l2.4-5.7c-24.4-4.6-49.6-5.3-74.1-1.5l2.4 5.7c16.6-12.2 38-2.8 56.7-5 3 .1 4.3-4.4 1.6-5.8-14.9-6.3-31.7-7.5-47.4-3.2-4.5 1.2-8.8 2.9-12.9 5 1.3 1.6 2.5 3.3 3.8 4.9 17.1-18.9 45.2-9.6 65.4-1 2.9 1.1 5.4-3.3 3-5.2-16.5-13.5-39.9-14.2-59.4-7.7-4.2 2.2-21.6 5.3-18.7 11.4.9 1.3 2.8 1.6 4.3.9z"/>
  <path fill="#735745" d="M212.8 217c4 0 4-6.3 0-6.3s-4 6.3 0 6.3z"/>
  <path fill="#735745" d="M212.7 216.6c51.6-6.7 75.1 14.9 89.7 62.6.6 1.6 2.1 2.7 3.8 2.2 9.3-5.9-20.4-58.1-27.7-64.8l-4.4 4.4c6.7 6.4 12.3 13.9 16.4 22.3 16.2 8.7-8.4-28.9-11.2-32-1.2 1.5-2.4 3.1-3.5 4.6 3.6.1 6.5 5.6 9.9 2.7 3-3.5-2.3-6.3-4.2-8.8-2.5-2.5-6.7.8-4.9 3.8 5.3 10.8 9.7 21.9 13.4 33.3 2-.6 4-1.1 6-1.7-.5-1.1-.9-2.2-1.4-3.3l-5.7 2.4c3.5 8.3 7.1 16.7 10.6 25 13.5 8.6-2.1-24.2-3.8-28-15.9-9.7 8.6 31.7 10.5 35.3 2.1 3.5 7.4.4 5.4-3.2-4.4-9.5-8.9-19.1-13.3-28.6-1.8 1.1-3.6 2.1-5.4 3.2 4.8 8.7 9.6 17.5 14.4 26.2 1.8-1.1 3.6-2.1 5.4-3.2-3.2-3.5-6.2-17-11.8-14.5-1.5.9-1.9 2.8-1.1 4.3 3.2 6.2 6.3 12.3 9.5 18.5 1.2-1.5 2.4-3.1 3.5-4.6-2.1-.8-4.1-1.6-6.2-2.4-2.9-1.1-5.4 3.3-3 5.2 2.8 2.2 8.7 6 11.2 1.8 1.4-5.2-6.9-6.2-10.5-6.4-10.1 4.5 6.6 10.1 11.1 9.9 3 .2 4.4-4.5 1.6-5.8-1.8-.8-3.9-2.2-5.7-.8-3.2 2.7.8 7.7 4.1 8 .3-2 .6-4.1.8-6.1-4.7 1.1-14.8-4.5-16.8.6-.5 6.5 12.4 4.7 16.8 5.6 4.2-.3 4-6 0-6.4.3.3-.1-.4 0-.1-1.5 1.2-3.1 2.4-4.6 3.5.7.3 1.5.7 2.2 1 .5-1.9 1.1-3.9 1.6-5.8-3.4-.3-6.7-1.4-9.5-3.2-.5 1.9-1.1 3.9-1.6 5.8 2.2-.1 4.2.5 6.1 1.6l2.4-5.7c-1.8-.3-3.4-.8-4.7-2-1 1.7-2 3.5-3 5.2 20.3 9.5 3.1-13.3.2-20.7-1.8 1.1-3.6 2.1-5.4 3.2 2.5 4.5 5 8.9 7.5 13.4 2 3.5 7.3.4 5.4-3.2-3.6-4.1-13.8-31.6-18.7-27.3-5.3 2.1 10.9 27.3 12.2 32.9 1.8-1.1 3.6-2.1 5.4-3.2-5.9-10.1-11.2-20.6-15.6-31.4l-5.7 2.4c3.7 7.7 6.7 15.8 8.9 24.1l5.7-2.4c-3.5-8.3-7.1-16.7-10.6-25-1.5-3.1-6.9-.9-5.7 2.4 1.1 2.3 1.8 6.4 5.2 5.5 7.3-1.3-9.9-33.3-11.8-38.6-1.6 1.3-3.3 2.5-4.9 3.8 1.4 1.5 2.8 2.9 4.2 4.4l4.4-4.4c-2.9-3.1-14-7.8-11.8.3 6.7 8.9 12.3 18.6 16.6 28.8 1.8-1.1 3.6-2.1 5.4-3.2-2.6-5-15.6-28-21.8-23.5-1.3 1.3-1.1 3.1 0 4.4 13.5 17 23.3 37 28.2 58.3 2-.6 4-1.1 6-1.7-9.6-32.1-30.1-67-67.6-67.6-5.5.2-30.8-2.8-31.2 3.5 0 1.7 1.4 3.3 3.1 3.2z"/>
  <path fill="#735745" d="M216.9 220.4c0 .5.3-.7.1-.2 27-13.9 60.7 10.6 71.7 36.4 4 8.3 6.8 17.1 8.8 26.1 1 3.8 7.1 2.2 6-1.6-6.8-38.4-40.1-79-82.7-69.5-17.4 3.8-7.9 18.7-3.9 8.8z"/>
  <path fill="#735745" d="M217.3 221c-.3.7.9-1.6 1.2-1.8-.1.1-.4.5-.1.1.5-.6.9-.9 1.5-1.4-.6.6.2-.1.4-.2.2-.2 2.3-1.1 1.4-.7 1.1-.4 2.2-.8 3.4-.9.5-.1 4.7-.2 6.4.2 19.7 3.4 41 16.7 52.5 35.5 6.1 9.7 10 20.9 11.2 32.3.2 1.7 1.3 3.1 3.1 3.1 1.5 0 3.3-1.4 3.1-3.1-3.4-38.9-41.2-78.7-81.7-73-13.5 6-7.2 17.4-2.4 9.9z"/>
  <path fill="#735745" d="M212.7 213.8c-14.2-9.6-32.8-2.7-46.8 3.9-23.2 11.1-40.7 37.3-34 63.4.7-1.3 1.5-2.6 2.2-3.8-2.8 1.2-5.9 1.7-8.9 1.2v6c4.2-3.1 21.5.4 16.6-7.6-2-2.3-3.3-5-4.1-7.9-1-3.9-7-2.2-6 1.7 1 4 3 7.6 5.7 10.7.7-1.8 1.5-3.6 2.2-5.3-4.5-.1-25.1 1.4-16 8.5 29.5 3-1-16 25.3-45.9 13.6-14.6 41.6-30.6 60.8-19.3 3.7 2.2 6.5-3.6 3-5.6z"/>
  <path fill="#735745" d="M215.1 215.4c-39.2-17.3-94.5 24.7-82.3 67.5 1 3.8 7.1 2.3 6-1.6-8.8-30.1 21.3-58.1 49.1-63.1 7.9-1.4 16.5-.7 24 2.7 3.6 2 6.7-3.5 3.2-5.5z"/>
  <path fill="#735745" d="M213.4 223.1c3 0 3-4.7 0-4.7-3 .1-3 4.7 0 4.7zM143.7 281.1c-3.8-10.4-4-21.7-.4-32.2 1-2.9-3.5-4.1-4.5-1.2-3.8 11.2-3.7 23.6.4 34.7.8 2.9 5.3 1.6 4.5-1.3z"/>
  <path fill="#735745" d="M214.7 218.6c-36.4-20-84.4 25.8-75.4 63.7.7 2.9 5.2 1.7 4.5-1.2-7.8-34.1 35.4-76.1 68.4-58.4 2.7 1.6 5-2.5 2.5-4.1z"/>
  <path fill="#735745" d="M141 253.9c.9-4.1 8.6-12.2 5.3-15.5-5.5-1.4-6.1 9.6-6.3 13.4 0 2.7 3.8 3.1 4.6.6.2-.6 1-2.4 1-2.6.6-3.7 6.1-8.2 3.5-11.7-2.3-2-6.1 2.4-3.9 4.5 1.4 1.3 3.3.5 4.1-1-1.2-.9-2.5-1.9-3.7-2.8-2.1 4-4 8.1-5.7 12.3 1.5.2 3.1.4 4.6.6-.1-.9.2-3 .1-3.2.2-1.6 1-4.1 1.3-5.1.3-.7.7-1.3 1-2-1.3-.8-2.7-1.6-4-2.4-.9 4.1-8.6 12.2-5.3 15.5 1.3.8 2.9.6 3.4-.6zM210.9 218.7c-.1.1-.3.2-.4.2-1.9 1.4.2 3 1.6 3.7.5-.9 1.1-1.8 1.6-2.7-1.9-1.7-5.2-.4-3 2 .9.7 1.9 1.4 2.8 2 .7.5 1.7.1 2.1-.6 5-8.2 15.8-7.6 23.9-5.2 10-3.4-20.5-9.9-26.7 3.7l2.1-.6c-.9-.7-1.9-1.4-2.8-2-.5.9-1.1 1.8-1.6 2.7 3.6 2.5 5.4-1.5 1.4-3v2.7c2.4-.7 1.2-4-1-2.9zM108.7 280.8c5.4-28.6 15.7-65.1 48.6-71.5-.4-1-.8-1.9-1.2-2.9-4.8 2.9-9.5 5.8-14.3 8.7.6.8 1.3 1.6 1.9 2.5 1.2-1.2 2.3-2.5 3.5-3.7-.8-.6-1.6-1.3-2.5-1.9-13.3 17.2-22.5 36.8-31.8 56.3 1 .3 1.9.5 2.9.8-.5-5.7.1-11.3 2-16.7.6-1.7-2.2-2.8-2.9-1.2-2.6 6.1-4.3 12.5-5.1 19.2 1.8 4.7 6.2-2.7 6-5.3-2.8-7.5-10 14.5-3.3 11 1.8-1.9 5.9-11 .5-9.2-2.4 1.3-7 11.5-1.3 9.4 2.1-2 3.5-4.4 4.2-7.2-1.6-7.9-10.6 10.3-3.4 7.3 2-1.4 11.7-15.4 4.1-11.9-.8 1.8-1.7 3.5-2.5 5.3s1.6 3.3 2.7 1.6c.6-2.6 22.1-30.5 12.3-25.5-2.2 3-12.1 19.4-7.2 21.3 3 .3 8.4-5.6 4.2-7.1-2 .2-3.1 1.7-2.9 3.7.5 1.9 3.5 1.2 3-.8 0 .1-.1.2-.1.3-.5-.7-1-1.3-1.5-2-.2 1.4-1.2 2.6-2.7 2.8.5.7 1 1.3 1.5 2 1.4-6.7 4.3-13 8.4-18.5-.9-.5-1.8-1.1-2.7-1.6-5 8-10 15.9-15 23.9.9.5 1.8 1.1 2.7 1.6.8-1.8 1.7-3.5 2.5-5.3-1-.4-1.9-.8-2.9-1.2-1.4 3.5-3.5 6.6-6.2 9.3.9.4 1.8.7 2.7 1.1.1-2.1 1-4 2.6-5.5-.9-.5-1.7-1-2.6-1.5-.6 2.3-1.7 4.2-3.4 5.8.9.4 1.8.7 2.7 1.1.1-2.4 1.2-4.5 3.1-6.1-.9-.4-1.8-.7-2.7-1.1-.2 2.1-1 4.2-2.3 5.9.9.4 1.8.7 2.7 1.1-.1-3.3.8-6.4 2.7-9.1-1-.3-1.9-.5-2.9-.8-.2 1.7-1.1 3.1-2.4 4.2.9.4 1.8.7 2.7 1.1.7-6 2.3-12 4.7-17.6-1-.4-1.9-.8-2.9-1.2-1.2 2.4-5.2 22.6.8 18.4 7.2-15.2 14.4-30.5 23.6-44.7.9-2.6 13.6-16.1 5.7-13.5-1.2 1.2-2.3 2.5-3.5 3.7-1.2 1.3.3 3.4 1.9 2.5 1.9-2 20.9-9.9 13.1-11.6-33.9 6.5-45.5 43.9-50.7 73.7-.5 1.7 2.5 2.6 2.9.6z"/>
  <path fill="#735745" d="M203.1 195.1c-20.7-4.3-43.5 5-54.8 23-1.1 1.7 1.6 3.3 2.7 1.6 10.6-16.6 31.9-25.6 51.3-21.5 1.9.3 2.8-2.7.8-3.1z"/>
  <path fill="#735745" d="M165.7 209.5c.3.1.5.1.8.2-.2-.2-.3-.4-.5-.6 0 .4-.1.8-.3 1.1-.5.7.7 1.3 1.1.7.6-.8 1.1-1.6 1.7-2.3.5-3.3-6.3 3.5-3.4 3.5 1.7-.7 3.2-1.8 4.4-3.2.5-.7-.3-1.5-.9-.9-4.6 4.9 2.3 9.1 6.9 5.9l-.9-.9c-9 21.7 7.6.9-2.7 8.9.3.2.6.5 1 .7 2.5-7.6 1.6-13.3-6.2-16.3-.2-.5-.1-1 .5-1.1.8-.1.5-1.4-.4-1.3-1.6.3-1.9 2.3-1 3.4 1.2 1.5 3.4 1.4 4.9 2.7 6.1 4-3.5 18.1 4.7 11-.3-.3-.5-.7-.8-1-.8.8-1.6 1.6-2.4 2.3.4.2.8.3 1.1.5-.8-2.2 4.3-10.7 1.7-9.9-3.2 2.4-8.6.1-5.2-3.9l-.9-.9c-1 1.3-2.3 2.3-3.8 2.9.2.3.5.6.7 1 .8-1.1 1.7-2.1 2.8-2.9l-.9-.9c-.6.8-1.1 1.6-1.7 2.3.4.2.8.4 1.1.7.4-.6 1-2.1 0-2.4-.3-.1-.5-.1-.8-.2-1.1-.6-1.4.7-.6.9z"/>
  <path fill="#735745" d="M213.4 222.8c-23.2-11.7-64 4-69.5 30.4-1.4 9.1 3.2 18.2 1.1 27.2-.4 1.6 2.1 2.4 2.5.7 1.9-7.8-1-15.3-1.3-23-.1-21.5 23.9-32.3 42-36.2 8.1-1.4 16.5-.8 23.7 3.1 1.6.9 3-1.4 1.5-2.2z"/>
  <path fill="#735745" d="M210 223.9c-16.4-5.4-35.3 1.6-44.5 16.2-5.2 6.2-3.6 20.4-13.4 21.4-1-.3.3-.7.8-.8 8 2.9-.7 16.4-3.1 21.3.7 9.4 13.1-18.1 7.4-21.9-1.8-2.8-6.6-2.9-8.1.2-.9 3.3 3.5 4.6 6 3.4 8.1-3.6 7.7-13.9 11.7-20.8 3.7-6.8 10-12.1 17-15.2 8-3.5 17.1-4 25.4-1.3 1.7.6 2.4-2 .8-2.5z"/>
  <path fill="#735745" d="M209.8 221.3c-6.3-2.1-12.9-2.7-19.4-1.9-5.1 3.8 7 2.5 9 3 1.5.1 1.8-2.4.4-2.6-14.4-2.2-28.1 5.8-35.7 17.7-3.2 4.9-5.1 10.5-6.3 16.2.1 3.1-3.5 9.4-6.5 5.5-.5-2.8 3.2-2.3 4.5-1.1 4.8 6.5-3.1 17.6-5.8 24 1 8 7.8-10.4 8.3-12.3 2.8-5.7 2.4-16.2-6.2-15.3-2.9.5-4.6 4.1-2.9 6.7 6.7 6.1 11.3-3.3 11.7-9.3 3.9-17.1 20-32.2 38.2-29.4.1-.9.2-1.7.4-2.6-3-.1-6-.2-9-.4v2.6c6.3-.8 12.7-.2 18.7 1.8 1.5.5 2.2-2.1.6-2.6z"/>
  <path fill="#5B4438" d="M161.8 275.3c13.5-4.9 28.2-5.7 42.1-2.2.8.2 1.2-1.1.4-1.3-14.1-3.6-29.1-2.8-42.8 2.2-.9.3-.5 1.6.3 1.3zM227.6 274.1c14.5-5.7 30.5-6.9 45.6-3.2.8.2 1.2-1.1.4-1.3-15.3-3.7-31.6-2.6-46.3 3.2-.8.3-.5 1.6.3 1.3z"/>
  <path fill="#5B4438" d="M160.5 274.2c11.8-7.3 26.4-9.7 39.9-6.7.8.2 1.2-1.1.4-1.3-13.9-3.1-28.8-.7-41 6.8-.6.6 0 1.7.7 1.2zM227.3 268.4c15.1-5.2 31.9-4.9 46.8.9.8.3 1.1-1 .4-1.3-15.1-5.8-32.2-6.2-47.5-.9-.9.3-.5 1.6.3 1.3z"/>
  <path fill="#5B4438" d="M159.6 274.9c1.7 1.6 2.7-.2.8-1.2-.1.4-.2.7-.3 1.1.4-.1.7-.1 1.1 0v-1.3h.2c-.1.4-.2.7-.3 1.1 16.3-4.8 14.5-7-.4-1.3-1.1.5-.2 1.7.8 1.4 2.3-2.1-5-1.8-1.2.6.3-.3.5-.7.8-1-.7-.9-2.5-.8-1.5.6z"/>
  <path fill="#5B4438" d="M165.7 272.4c5.4-2.5 11.3-3.8 17.2-4 .8 0 .9-1.3 0-1.3-1.7-.6-22.1 3.5-17.2 5.3z"/>
  <path fill="#5B4438" d="M170.7 271.6c8.5-.6 15.9-4.2 1.8-2.9-2.5 3.8 12.6-1.5 4.6-1.9.1.4.1.9.2 1.3 3.4-.6 6.8-.8 10.2-.7v-1.3c-3.4-.5-15.5 2.7-5.4 3.4-.1-.4-.1-.9-.2-1.3-3.9.2-3.5 1.9.1 1.9v-1.3c-1-.2-3.1.8-1.3 1.4 2.1 0 4.2.1 6.4.1 2.6-1.9-4.3-1.7-5.4-2.2-.1.4-.1.9-.2 1.3 3.2.4 10.7-.4 2.9-1.9-.1.4-.1.9-.2 1.3 8.6-.2 3.6-2.1-1.5-1.4v1.3c2.3-.3 4.5-.1 6.7.6V268c-1 .1-4.5.6-2.3 1.8 3.1.8 5.6-1.3 1-1.4-1.7 1.3 2 2.5 3.1 2.4 2-.9-1.2-1.9-2-2.4l-.3 1.2c6.5.8 2.3-2.4-1.1-3-.1.4-.2.8-.4 1.3 4.3 1.3 4.3-1.1.4-2-.1.4-.2.8-.4 1.3 1.4.1 8.9 1.5 7.1-1-5.3-1.3-9.9-.2-1.8 2.4.1-.4.2-.8.4-1.3-3.4-.7-1.9 1.4.3 1.9l.3-1.2c-4.6-1.2-2.8 2.8.4 2.4 1.7-1.4-1.5-1.6-2.4-1.7-3.5 1.4 5.5 3 4.1.4-.8-.9-1.7-1.6-2.9-1.9-2.3.4 1 3.9 2.4 2.5 1.5-.6.4-3.5-.9-2.6-1.1 1.1-.1 3.2 1.6 2.6 1.7-.7 1.1-3.1-.6-3.2-1.6 0-2.3 2-1.2 3.1 1.4 1.6 4.1-1.2 2.4-2.4-2.2-.3-2.8 2.9-.6 3.2 2.4.3 2.4-2.9.5-3.6.2.3.3.5.5.8-.7 5.7 3.4 4 2.3-.7-.4.2-.8.3-1.2.5.5 1 .7 2 .4 3-.2.8 1.1 1.2 1.3.4.7-1.1-.8-6.5-1.8-3.6.2 1.1.1 2.1-.4 3.1.3-.1.6-.2.9-.2-.9-.8.6-2.9-1-3.6-.8-.4-1.6-.1-1.9.7-.3.9 1.6.9.8 1.8-.6.2-.7 0-.3-.5l-.5-.5c-.9.5-1.1.5-.5.1.4-.3.4-.4.1-.1-.7.3-1.7.6-1.9-.3l-.8.8c1 .3 1.7.8 2.3 1.5.1-.4.2-.7.3-1.1-1.2.3-2.3.2-3.5-.2-.1.4-.2.8-.4 1.3.8.1 1.6.3 2.4.4v-1.3c-.8.1-1.4-.3-1.7-1-.2.3-.4.7-.6 1 3.4.7 3.9-.8.5-1.9-.2.4-.3.8-.5 1.2.9.4 2.9 0 1.6-1.1-1.4-.5-2.7-1-4.1-1.6-.1.4-.1.9-.2 1.3 1.8-.1 3.6.1 5.3.5.1-.4.1-.9.2-1.3-2.4.5-11.8-1.3-4.8 2 .2-.4.4-.7.6-1.1-.8-.2-4.7-.9-2.9.9 1.5.3 2.8.9 4 1.7l.3-1.2c-3.9-.5-5 .6-.9 2.3l.3-1.2c-.9 0-1.8-.3-2.5-.9-.1.4-.2.7-.3 1.1.4-.1.8 0 1.2.2l.3-1.2c-1 0-1.9-.1-2.9-.1.1.4.1.9.2 1.3 7.6-1.3-1.8-3.2-4.5-2.4-2.6 2.2 4.3 1 5.5 1.2v-1.3c-4-.2-7.5 1.2-1.2 2.1.1-.4.1-.9.2-1.3-8-.5-8.6 1.4-.3 2.2.1-.4.1-.9.2-1.3-2.1 0-4.2-.1-6.4-.1v1.3c3.7-.2 1.4-1.9-.9-1.6.1.4.1.9.2 1.3 5.3-.6 1.8-2.2-1.3-2.1.1.4.1.9.2 1.3 2.7-1.1 5.6-1.7 8.6-1.6 4.5-3-18.6-.5-8.7.9l-.3-1.2c-1.8 1-3.7 1.6-5.8 1.6.1.4.1.9.2 1.3 2.2-.6 4.5-.6 6.8 0V269c-1.1.5-12.4 1.2-8.5 2.6zM205.1 271.9c.5-1.9-.4-6.2-2.7-5.8-.2.2-.3.7 0 .9 1.3 1.1 1.8 2.9 1.5 4.5-.1.3.1.7.5.8.2.2.6 0 .7-.4z"/>
  <path fill="#5B4438" d="M200.9 267.2c1.5.9 2.3 2.9 1.9 4.6.4.1.9.1 1.3.2-.1-4.7-5.9-8.7-2.5-1 .4-.1.8-.2 1.3-.4-1.6-4.6-4.6-6-2.7.2.4-.1.8-.2 1.3-.4-1.7-6.5-4.3-.8-.4 1.1 1.6.4 1.3-2.2-.1-2.3-.8-.1-1 .8-.5 1.3.2-.3.5-.6.7-1-.9-.1-6.3-1.5-4.1.7 1.2-.1 5.4 1.7 4.4-.6-.2.3-.5.6-.7 1 .2 0 .2.1.1.3.3-.1.6-.3 1-.4-.9-.4-1.5-1.4-1.3-2.4h-1.3c1.8 5.5 3 2.9 1.7-1.2-.4.2-.7.4-1.1.6 2.9 4.9 4.3 5.4 2.1-.7-.4.2-.7.4-1.1.6 1.3 1.1 2.1 2.6 2.2 4.3 2.7 2.8 1.1-5.6-1.2-5.9-1-.2-1.7 1-1 1.4zM227.8 272.9c14.4-6.8 31.1-7.8 46.2-2.8-.1-.4-.2-.7-.3-1.1-2.6 2.9 2.5 1.7 1.1-.7-.4-.8-1.5-.1-1.1.7l-.3.6c.2.4.4.7.6 1.1.5-.5 1.3-1.4.3-1.8-15.4-5-32.5-3.9-47.2 3-.8.2-.1 1.4.7 1z"/>
  <path fill="#5B4438" d="M231.6 271.8c11.8-4.2 24.6-5.1 36.8-2.6.8.2 1.2-1.1.4-1.3-12.5-2.5-25.5-1.6-37.5 2.6-.9.3-.5 1.6.3 1.3z"/>
  <path fill="#5B4438" d="M237.3 268.9c9.1-2.4 18.5-2.9 27.8-1.6.8.1 1.2-1.2.4-1.3-2.4-1.3-32.6-.5-28.2 2.9z"/>
  <path fill="#5B4438" d="M238 267.7c2.3-1.9 25.2-.5 20.5-2.6-2.1-.5-24.6-.2-20.5 2.6z"/>
  <path fill="#5B4438" d="M235.5 267.5c1.8-1.4 20.2-1.1 16.3-3.1-1.7 0-20.4.6-16.3 3.1z"/>
  <path fill="#5B4438" d="M235.1 268.3c8.3-2.4-2.3-3.5 1 .5 3.7.7 1.4-4.6-1.3-2.4-2.5 3.3 4 3 1.4-.1-1.3-1.1-3.4.5-2.5 2 .9 1.7 3.4.4 2.9-1.3-.5-1.5-2.7-1.8-3.4-.3-1.2 2.7 4.5 4.1 3.4.7-1.1-2.5-6-1.4-3.6 1.4 1.8 1.5 2.9-1.4.9-2.1-2.8-1.3-3.6 3.8-.5 2.9 2.6-1.8-2.4-4.4-2.8-1.3-.3 1.7 2.5 2.6 2.7.6 0-1.6-2.8-3-3.5-1.1-.5 1.5 2 3.7 2.9 1.7.5-1.5-1.6-3.5-2.9-2.3-1.5 2 3.1 4.4 4.2 2.3.8-1.9-2-2.7-3.1-1.4.3 0 .7.1 1 .1-.7-2-4-1.8-3.2.7.2 1.1 2.7 2.4 2 .4-2.1-3.2-3.7-1.5-1.5 1.2.6.6 1.5-.3.9-.9-.4-.4-.6-.9-.7-1.5-.4.2-.8.3-1.1.5.5.6 1 1.1 1.5 1.7.3-.3.5-.7.8-1-1.1-.5-.7-1.7.2-.3.5 1 1.3-.6 1.9-.1.2.2-.1.2-.3.2-.8 0-1.4-.4-1.8-.9 0 0 0 .1-.1.1.3 0 .5.6.7.8v.2-.1c.1 0 .2 0 .2-.1-1.2-1.1.1-.9.3 0 0-.2.2-.2.1-.4-.4-.6.7-.8.8-.3 0-.1 0 0-.1 0-.4-.6.8-.9.9-.2 0 0 .3-.2.3-.3 0 0-.2-.1-.2-.2-1-1.5 2.8.7 1.1.2-1.5-.6 0-1.7.2-.5 0 .2-.3.4-.4.2-.4-.5.7-.6.6-.2 0-.1-.1.1 0 .1 0 0 .1-.1.1-.2.3-.2 1.3-.2 1.1.3 0 .1 0 0 .1 0 .1-.3.6-.3.9-.2-.1-.4-.1-.9-.2-1.3l-2.7.9c-.4.3 0 1.6.8 1.3z"/>
  <path fill="#5B4438" d="M225 268.7c.4 1.5.9 2.9 1.3 4.4.4-.2.8-.3 1.2-.5-.7-1.3-1.7-3.1-1-4.6l-1.2-.3c-.3 1.2 1.4 7.9 2.6 4.8-.3-1.5-.7-3.1-.1-4.6-.4-.2-.8-.3-1.2-.5-.7 4.6 1.7 8 2 1-.4.1-.9.1-1.3.2 1 8 4.2-.8.9-.2-2.3 2.5 2 5.3 2.5 1.4-.2.2-.4.3-.6.5 1.1-.1 6.6 0 4.3-1.7-1.4.4-4-.3-4.9.9-.3 1.9-.6.7-.5 0-.2 0-.3 0-.5.1-.4-.7 0 1.3-.5 1.6h1.3c-1-5.5-2.2-3.4-2.4.7.4-.1.9-.1 1.3-.2-.4-8.5-2.9-3.9-1.6 1.2.4-.2.8-.3 1.2-.5-.8-1.4-1.2-3-1.2-4.7 0-.6-.9-.9-1.2-.3-1 2.1 0 4.1 1 6 2.6 1.5 0-3.9-.1-4.9-.3-.9-1.6-.6-1.3.2z"/>
  <path fill="#5B4438" d="M213.4 222.9c.1.1.2-.2.2-.3.3-.5.7-1.1 1-1.6.4-1.3 5.9-2.4 3-3.3-2 .6-6.4 3.5-4.9 5.6.3.2.6-.1.7-.4zM211.8 220.1c.1-.2 0 .1 0 0 .1-.3.3-.5.5-.8 0 0 .1-.1 0 0 .1-.2.7-.6.6-.6.2-.1.9-.5.8-.5.1 0 .1 0 .2-.1.6-.5 2 .3 2.2-.9-1.3-2.1-5 .7-5.6 2.5-.3.7 1.1 1.2 1.3.4zM199.2 197h.2c.6 0 .9 0 1.5.2-.1-.1 0 0 0 0s.1 0 .1.1c.2.1.3.2.5.3.1 0-.1-.1 0 0l.5.5c.1.1 0-.1 0 0 .4 1.1 1.9 1.3 1.5-.1-1.1-3.4-7.4-2.4-4.3-1zM199.1 199.4c.2 0 .4-.1.6.1.3 0 .6.2.9.3-.1 0 .2-.1.2.1 1 .4 1.7 1.1 2.3 2 .4.7 1.6.1 1.1-.7-.2-1.9-7.8-4.9-5.1-1.8zM204.9 205.9c.2.8.6 2.5 1.6 1.5.5-1-1.2-3.7-1.6-1.5z" opacity=".44"/>
  <path fill="#5B4438" d="M204.1 203.9c1.4 1.4 3.8 19.4 5.3 14.9-.5-1.7-3.4-19-5.3-14.9z" opacity=".44"/>
  <path fill="#5B4438" d="M199 201c2.4 1.5 4.3 3.5 5.7 6 .4.7 1.6.1 1.1-.7-.1-1.3-8.1-9.5-6.8-5.3z" opacity=".44"/>
  <path fill="#5B4438" d="M200.2 204.3c2.7 2 4.8 4.8 5.9 8 .3.8 1.6.5 1.3-.4.3-1.7-8-12.2-7.2-7.6z" opacity=".44"/>
  <path fill="#5B4438" d="M203.2 210.6c2.1 1.8 2.6 5.4 4.6 6.9 1.6-.7-3.1-8.7-4.5-7.7-.4.1-.4.5-.1.8z" opacity=".44"/>
  <path fill="#5B4438" d="M205.1 216.6c2 1.4 2.4 4.7 4.3 5.9 2.2-.8-5-10-4.3-5.9z" opacity=".44"/>
  <path fill="#5B4438" d="M210.7 220.6c-1.3-4.8 3-5.1 3-7-3.1-.7-5.3 4.7-4.3 7.4.3.8 1.6.5 1.3-.4z" opacity=".44"/>
  <path fill="#5B4438" d="M209.2 216.9c-.3-2.5.6-5 2.4-6.7.6-.6-.3-1.5-.9-.9-2.3.5-4.3 11.1-1.5 7.6zM208.4 212.2c-.9-3.1-.6-6.5 1-9.4.4-.7-.7-1.4-1.1-.7-1.7 1.1-2.4 13.8.1 10.1zM205.8 205.2c-.1-3.1 1.4-6 3.8-7.9.3-.2.2-.7 0-.9-2.8-1.7-7.4 12.2-3.8 8.8z" opacity=".44"/>
  <path fill="#5B4438" d="M203.9 201.6c.7-2.5 2.8-4.4 5.3-5.1.8-.2.5-1.5-.4-1.3-2.9.8-5.3 3.1-6.2 6-.2.9 1.1 1.3 1.3.4zM196.3 198.6c-44.4-.2-76.1 20.1-77.5 67.2.2 9.8-7.5 10.6-4.3 11.5 1.3-.2 2.2 1.5 1.6 2.6.7 3.9 3.7-4.1-2-3.8.2.4.3.8.5 1.2 8.5-3.7 5-31.6 12.7-43.4 11.6-26.3 42.6-33.7 68.9-33.8 1-.2 1-1.5.1-1.5z" opacity=".44"/>
  <path fill="#5B4438" d="M192.7 202.3c-17.2-2.1-34.7 6.1-47.8 16.9-15.9 13.1-7.4 35-13.2 52-.5 1.4-1.4 4.1-2.9 4.9-.5.3-1.4-.2-.8-.7 3.2-.7 3 4.7 3.4 6.8 3.1 3.8.2-12.9-4.8-7.2-.6 1.2.5 2.7 1.8 2.7 6.7-3.7 6.2-14.1 7-21-1.4-20.4 3.6-36.4 23.5-45.1 10.3-5.3 21.8-9.6 33.6-7.9.7 0 1-1.3.2-1.4z" opacity=".44"/>
  <path fill="#5B4438" d="M195.3 212.4c-27.7-6.2-54.1 15.3-57.4 42.7-1.6 9-2.1 18.2-4.5 27.1-.2.8 1 1.2 1.3.4 4.9-26.7 6.3-59 37.6-67.8 7.3-2.2 15.1-2.6 22.6-1.1.9.2 1.3-1.1.4-1.3zM212.5 222.6c29-17.6 64.5 4.6 75.8 33.3 4.3 8.9 7.4 18.3 10.4 27.7.3.8 1.5.5 1.3-.4-8.7-31-27.2-67.1-63.8-68.2-2.7-1.7-29.6 5.4-23.7 7.6z" opacity=".44"/>
  <path fill="#5B4438" d="M209.3 222.6c27.3-16.5 66.2 8.9 75.8 33.3 4.3 8.9 7.4 18.3 10.4 27.7.3.8 1.5.5 1.3-.4-8.7-31-27.2-67.1-63.8-68.2-2.7-1.7-29.6 5.4-23.7 7.6zM214 197.1c.8 0 .9-1.3 0-1.3s-.9 1.3 0 1.3z" opacity=".44"/>
  <path fill="#5B4438" d="M214.1 196.5c4.4-6.9 13.9-7.1 21.2-6.2 29.8 3.9 50.5 30.1 61 56.4 4.8 11.8 8.3 24 11.7 36.2.2.8 1.5.5 1.3-.4-9.9-38.5-28.3-86.1-72.6-93.4-8.2-1.2-18.7-1.1-23.7 6.7-.5.8.6 1.4 1.1.7z" opacity=".44"/>
  <path fill="#5B4438" d="M216.5 198.2c36.3-22 74 13.7 82.2 48.7 3.4 10.9 5.5 22.2 7.7 33.4.2.8 1.4.5 1.3-.4-5.8-35.6-19-81.6-59.9-89.2-11-1.8-22.4.5-31.9 6.2-.8.6-.1 1.8.6 1.3z" opacity=".44"/>
  <path fill="#5B4438" d="M214.4 199.5c15-10.4 35.7-5.8 49.1 5.1 24.3 19.9 29.8 52.8 46 78.3.5.7 1.6.1 1.1-.7-16-25.2-21.6-57.4-45-77.5-13.9-12.1-35.9-17.2-52-6.3-.6.4.1 1.6.8 1.1zM144.3 280.7c-1.5-1.9 0-21.4-2.2-17.3-.4 1.6-.3 21.7 2.2 17.3zM146.2 257.5c6.2-13 16.4-24 28.9-31.1.7-.4.1-1.6-.7-1.1-12.7 7.2-23.1 18.4-29.4 31.6-.3.7.9 1.3 1.2.6z" opacity=".44"/>
  <path fill="#5B4438" d="M201.6 221.9c-14.6-2.7-30.7 5.2-36.7 18.9-2.7 5.9-2.6 13.1-6.8 18.2-.9 1.1-4.4 3.8-5.2 1.2-.2-6.8 9.5-2.3 4.8 6.2-.1 2.2-11 17.4-7 15.7 3-7.5 12.6-16.3 8.1-24.6-9.2-7.8-10.2 11.4-.5 3 7.2-8.9 5.4-22.7 15.7-29.9 7.4-6.3 17.6-9.3 27.2-7.5.8.2 1.2-1 .4-1.2z" opacity=".44"/>
  <path d="M161.4 276.3c13.5-5.5 28.7-6.5 42.8-2.8.8.2 1.2-1.1.4-1.3-14.3-3.8-29.8-2.9-43.5 2.8-.9.4-.5 1.6.3 1.3zM227.8 274.1c14.4-5.5 30.3-6.3 45.1-2.3.8.2 1.2-1 .4-1.3-15-4.1-31.2-3.3-45.8 2.3-.9.3-.5 1.6.3 1.3z" opacity=".44"/>
  <path d="M229.2 281.6c12.5 2.5 25.4 1.7 37.4-2.5.8-.3.4-1.5-.3-1.2-11.8 4.1-24.5 5-36.8 2.5-.8-.2-1.1 1-.3 1.2z"/>
  <path d="M247.9 282.9c1.2-.5 12.3 0 9.4-2-1.2.5-12.3 0-9.4 2z"/>
  <path d="M257.6 281.5c.4 0 1.3.5 1.4 0-.1-.3-.4-.2-.7-.2.1 0 0 0 0 0-.3.1-.9-.3-1 .1.1 0 .2.1.3.1zM258.6 281.2c.5-.1 1.4.3 1.6-.2-.1-.3-1.8-.3-1.8 0 0 .1.1.2.2.2zM259.4 280.7c.4 0 3.3.3 2.4-.4-.5.3-3-.4-2.4.4z"/>
  <path d="M260.5 280.4c.5-.1 3.8.3 3.1-.5-1 .1-2 .1-3.1.1-.3-.2-.3.3 0 .4z"/>
  <path d="M262.3 280c.6-.2 4.2-.1 3.1-.9-.5.3-4.3.1-3.1.9z"/>
  <path d="M264 279.4c.7 0 3.8 0 2.8-.8-.6.4-3.6-.1-2.8.8z"/>
  <path d="M265.4 278.8c.3-.1 2.8 0 1.9-.6-.3.2-2.6-.1-1.9.6z"/>
  <path d="M266.5 278.4c.4-.2 1.3 0 1.4-.4 0-.1-.1-.3-.2-.2-.4.2-1.3 0-1.4.4 0 0 .1.2.2.2zM256.1 281.9c.6-.2 3.6.6 2.9-.2-.5 0-4-.6-2.9.2zM164.4 282.6c3.1 1.3 40 .3 36-3.3-11.8 2.7-24 3.3-36 2.1-.8-.1-.8 1.1 0 1.2z"/>
  <path d="M162.8 281.8c.6.1 3.5.8 2.7-.2-.5.2-3.6-.8-2.7.2z"/>
  <path d="M162.8 282.4c.6 0 3.6-.1 2.6-.9-.5.4-3.5-.1-2.6.9z"/>
  <path d="M163.7 282.7c.5-.1 3.4.2 2.6-.5-.5.2-3.8-.2-2.6.5z"/>
  <path d="M163.9 282.7c.7.3 4.5.3 3.4-.6-.7.6-4.3-.3-3.4.6z"/>
  <path d="M164.6 283c1-.2 2.7.3 3.4-.5-.1-.3-4.6-.1-3.4.5z"/>
  <path d="M165.8 283.2c.6 0 4.4 0 3.3-.9-.6.4-4.3-.1-3.3.9z"/>
  <path d="M167.9 283.3c.6-.1 4.3-.1 3.2-.9-.6.4-4.1 0-3.2.9z"/>
  <path d="M169.4 283.4c.5-.1 3.6-.2 2.6-1-.5.4-3.3.1-2.6 1z"/>
  <path fill="#BDA9A0" d="M268 245.7c1.5.5 16.3 5.9 13.8 2.6-1.8.5-16.5-5.8-13.8-2.6z" opacity=".89"/>
  <path fill="#49362B" d="M282.8 249.8c.9.5 8.8 2.8 6.3.3-1.2.4-8.4-3.1-6.3-.3z" opacity=".67"/>
  <path d="M269 239.4c6.1.8 14.7 4.9 19.4 5-5.9-1.6-14.5-5.5-19.4-5zM268.5 245.1c6.3 1.5 15.2 5.1 20.4 4.6-6.4-.6-15.2-4.5-20.4-4.6zM261.6 239.9c1.3.5 6.2 5.8 6.6 4.4-1.4-.6-6.1-5.7-6.6-4.4z"/>
  <path d="M261.5 239.5c1.2-.4 7.7.8 7.1-.4-1.1.2-8-.8-7.1.4z"/>
  <path d="M268.7 239.6c2.2 1 1.4 4.2-1 4.1-.9 1.4 3-.2 2.8-1.6.6-.9-1.9-4.2-1.8-2.5zM288.8 245c2.2 3.3-1.1 5.3.2 5.1 2.2-.7.5-6.8-.2-5.1z"/>
  <path fill="#FFE8C2" d="M261.3 239.6c.6.6 4.5 2.7 3.9 1.3-.9.2-4.6-2.6-3.9-1.3z"/>
  <path fill="#FFE8C2" d="M263.5 240.3c4.2 1.7.8-1.9.6-.1.4.7 1.8 1.5 2.5.8.4-.6-1.1-1.4-1.5-.9-.6 1.1 2.7 2.5 2.3.8-.2-.4-1.7-1.1-1.7-.4-.1.9 2.9 2.1 2 .9-.6 0-1.2-.5-1.5-1.1-.1.1-.2.2-.2.3.3 0 .5.1.8.3.1 0 .1.1.2.1l.1.1.1-.1c-.5.1-.8-.3-1.2-.5l-.1-.1c0-.1-.1-.2-.1-.1-.1.1 0 0 0 .1.3-.1.4.3.7.3 0 0 .1 0 .1-.1-.5 0-1-.3-1.4-.7-.1 0 .1-.1-.1 0-.1.1-.1 0 0 .1.1 0 .4.1.5.2.2 0 .1.1.2-.1 0-.2-.3 0-.3-.2-.6-.4-2.7-.1-2 .4zM261.4 239.5c.3-.1 1 .3 1.3 0 .2-.5-2.2-.6-1.3 0z"/>
  <path fill="#FFE8C2" d="M261.5 239.4c.4 0 3 .4 2.1-.3-.7.2-1.8-.4-2.3.1 0 0 0 .2.2.2z"/>
  <path fill="#FFE8C2" d="M261.5 239.3c2.5.5 6.4-1.2 8.1 1 1.1 1.7.1 3.2-1.5 4-.3.2 0 .6.3.4 2.9-1 2.9-5.7-.3-6-1.1.3-7.3-.7-6.6.6z"/>
  <path fill="#FFE8C2" d="M268.3 244.8c3-.2 3.3-6 .1-5.9-.3.1-.2.6.1.5 2.4.4 2 4.7-.5 4.9-.1.1 0 .6.3.5z"/>
  <path fill="#FFE8C2" d="M262.7 239.6c.2.5 1.4 1 1 .1-.4-.1-1.7-.8-1.6 0 .9 1.2 2.2.9.5-.2-.1.1-.1.3-.2.4.9-.1 1.7-.1 2.6 0 0-.2 0-.3.1-.5-.6 0-1.1-.1-1.7-.1v.5c2.6.1 2.6-.8 0-.7v.5c1-.1 2-.1 3 0 0-.2 0-.3.1-.5h-1.7c0 .2 0 .3.1.5 1-.2 2-.2 3 0 0-.2 0-.3.1-.5h-.9c0 .2 0 .3.1.5.5-.1 1 0 1.5.1 0-.2.1-.3.1-.5-.2 0-.4-.1-.7-.1 0 .2-.1.3-.1.5.6.1 1 .4 1.3.9.1-.1.3-.2.4-.3l-.7-.7c-1.1-.2.3 2.2.8.9.3-.7-2-1.6-1.8-.7.1.6 1.6 1.1 1.1.2-1.9-1.4-3.3.1-.4.3 1.3-.7-3.4-1.5-2.4-.4.6.2 1.3.4 2 .4 1.2-.7-2.9-1.3-2.3-.2.4.3 2.6 1 2 0-.5-.3-3.2-1.1-2.8 0 .6 0 2.9 1.1 2.4 0-4.2-.8-1.5 1.2.8 1.4 1.1-.4-2.3-1.9-1.8-.8 1.7 1.7 3.9 1.1 1-.5-1 .2 1.2 1.8 1.8 1.3.8-.5-.7-1.4-1.1-1.5-.2-.1-.4.1-.3.3 0 .6 1.8 1.6 1.7.6-.1-.3-1.3-1.5-1.3-.6.2 1.7 2.6.7 1.1-.1-.5.3-.2 1.3.3 1.6.8.4.4-1.5-.2-.8-.7 1.1 1.1 2.2.6.5-.6-.6-.9 1.4-.1 1.1.4-.2.4-.8.1-1-.7-.4-.9 1.7-.1 1.4.4-.2.5-1.5-.2-1.1-.9 2.3 1.4 1.1-.1-.3-.9-.5-.3 2.6.3 1.5.1-2.5-1.6-1.5-.5.4 1.1.4.2-1.6-.2-1.8-.9-.2 0 1.5.2 2 1.1.5 0-1.8-.5-2.1-.9-.3 0 1.5.3 2 1.2.3-.5-1.9-1-2.2-1.2-.6.9 3.4 1.1 2-.2-.6-1.6-3.2-2-2 .3.6 1.5 3.4 2.1 2.5-.2-.6-1.3-3-1.8-2.1.2 1.2 2.3 3.5 1.6.8-1-.8-.1 2.4.3 1.1-.1-.3-.2-.7-.3-1-.2.1-.3.1-.5.2.1.3.1.5 0 .8.1 0 .3-.1.4-.1-.6-.5-1-1.1-1.2-1.9-.1.1-.3.2-.4.2.6.6 1 1.3 1.3 2.1.1-.1.3-.2.4-.2-.6-.8-1.2-1.7-1.6-2.6-.1.1-.3.2-.4.3.7.6 1.2 1.3 1.5 2.1.2-.1.3-.1.5-.2-.4-.6-.8-1.2-1-1.9-.1.1-.3.2-.4.2.5.5 1 1.1 1.3 1.8.1-.1.3-.2.4-.3-.3-.5-.5-1.1-.6-1.7-.1.1-.3.2-.4.2.4.5.7 1.1.8 1.7.2-.1.3-.1.5-.2-.3-.5-.4-1-.5-1.5-.1.1-.3.1-.4.2.4.4.6.8.6 1.4.2 0 .3-.1.5-.1-.2-.5-.3-.9-.2-1.4-.1.1-.3.1-.4.2.3.3.4.6.3 1 .2 0 .3 0 .5-.1-.2-.3-.2-.7-.2-1.1-.1 0-.3.1-.4.1.3.2.4.6.3 1h.5c-.1-.3 0-.6.2-.8-.2 0-.3 0-.5-.1.1.2 0 .4-.2.5.1 0 .3 0 .4.1-.1-.2-.1-.4.1-.6-.1 0-.3 0-.4.1.1.1.1.2 0 .3.1 0 .2.1.4.1-.1-.2-.1-.4 0-.7-.2 0-.3 0-.5.1.1.1.1.2 0 .3.1 0 .3 0 .4.1-.1-.2-.2-.5-.1-.7-.1 0-.3 0-.4.1.1.1.1.2.1.3.1 0 .3-.1.4-.1-.3-.2-.4-.5-.3-.9-.2.1-.3.6-.5.1-.1-.1-.1-.3-.2-.5l-.3.3c.3.1.6.3.7.6.1-.1.1-.3.2-.4-.5 0-.9-.2-1-.6l-.3.3c.3.1.7.3.9.6 0 0-.4-.1-.3-.1-.4-.2-.7-.5-1-.8-.1.1-.2.3-.2.4.5.1.9.5 1.1.9.1-.1.2-.2.3-.4-.7-.2-1.3-.5-1.9-1-.1.1-.2.3-.2.4.6.2 1.1.4 1.6.7 0-.2.1-.3.1-.5-1-.1-1.9-.5-2.7-1 0 .2-.1.3-.1.5.7 0 1.3.1 2 .2 0-.2 0-.3.1-.5-.7-.1-1.5-.3-2.2-.5 0 .2 0 .3-.1.5.8 0 1.7.1 2.4.5 0-.2.1-.3.1-.5-.6 0-1.1-.1-1.6-.4 0 .2 0 .3-.1.5.7-.1 1.4 0 2 .2 0-.2.1-.3.1-.5-.7-.1-1.3-.2-2-.4 0 .2 0 .3-.1.5.8 0 1.6.1 2.3.4 0-.2 0-.3.1-.5-.5 0-.9-.1-1.4-.3 0 .2-.1.3-.1.5.6 0 1.2.2 1.7.5.1-.2.1-.3.2-.5-.3-.1-.5-.2-.6-.5-.1.1-.1.3-.2.4.4 0 .8.2 1 .4.2 0-.2-.6-.2-.6l-.4.4c.2.2 1.1 1.3 1.1.4 0-.7-2.6-1.7-1.7-.6 2.3.3 0-1-1-.5-.9.6 1.9.8 1.1 0-.7-.2-4-.5-3.1.5.4-.1 2.5.3 1.8-.5-1.7-.6-5.9.5-1.4.6v-.5c-5.2 0 .9 1.5 0 .2-1.1-.2-4.3-.3-2.1 1 .1-.1.2-.3.3-.4-.4-.2-.6-.4-.9-.7-.1.1-.1.3-.2.4l1.2.3c.1-.2.1-.3.2-.5-.3-.1-.5-.2-.6-.4-1.2-.5-1.6-.1-1.4.1z"/>
  <path fill="#FFE8C2" d="M266 240.9c.5.4 2.2 3 2.3 1.6-.4-.3-2.7-2.8-2.6-1.5.4.4 2.3 2.7 2.3 1.4-3-2.7-4.2-1.9-.6.6 1.6.2-3.5-3.6-2.8-2.1.4.4 2.6 3.1 2.6 1.7-3.5-3.2-4.4-2.2-.5.6.2.2.5-.2.3-.4-.8-.7-1.7-1.3-2.5-2-1.7-.3 2.2 3.1 1.7 1.6-.6-.4-1.2-.9-1.7-1.5l-.4.4c.8.7 1.7 1.3 2.5 2 .1-.1.2-.3.3-.4-.9-.6-1.7-1.4-2.5-2.2l-.4.4 2.7 2.1c.1-.1.2-.3.3-.4-.8-.6-1.5-1.3-2.2-2-.1.1-.2.3-.3.4 1 .6 1.9 1.3 2.7 2 .1-.1.2-.3.3-.4-.8-.5-1.5-1.2-2.2-1.9-.1.1-.2.3-.3.4.9.5 1.7 1.1 2.5 1.8.1-.1.2-.3.3-.4-.7-.5-1.3-1.1-1.9-1.7-.1.1-.2.3-.3.4.8.6 1.5 1.2 2.2 1.8l.4-.4c-.6-.2-2.2-2.9-2.2-1.9z"/>
  <path fill="#FFE8C2" d="M261.9 239.5c-2.8-1.6 6.4 7.2 6.7 5.4.6-.5.3-2.3-.6-2-.5.3-.4 1.4.3 1.2.8-.3-.4-1.4-.7-1.6-1.2-.2.4 2.7.8 1.5-.7-2.3-2.3-1.3-.7.4 1 .3-.1-1.7-.5-1-.2.4.4 1.5.9 1 .2-1.2-1.3-.6-.5.3 1.4.5-1.7-3.4-1.7-2 .3.6.8 1.1 1.2 1.6 1 .2-.2-1.4-.8-1.3-.8.1.2 1.3.7 1.3 1.3 0-2.5-3.6-2.1-2.1.4.4.7.9 1.1 1.3 1.3-.2-1.2-2.1-1.7-2.5-1.2-.1.7 1.8 1.2 2.1 1.5.2-2.9-4.1-2.5-2.4.4.4.8.8 1.2 1.3.1-.1.2-.3.3-.4-.6-.4-1.2-.8-1.7-1.3-.1.1-.2.3-.3.4.4.2 1.9 1.8 1.7.6-.4-.2-1.9-1.8-1.7-.6 1.6 1.6 3.2 2 .9-.3l-.4.4c.9.7 1.7 1.5 2.4 2.4.1-.1.2-.3.3-.4-.6-.4-1.1-1-1.4-1.6-.1.1-.3.2-.4.3.8.6 1.5 1.3 2.1 2.1l.4-.4c-.4-.4-.7-.9-1.1-1.3-.1.1-.2.3-.3.4.7.5 1.4 1.2 1.9 2 .1-.1.2-.2.3-.4-.3-.1-.5-.3-.6-.7l-.3.3c.4.1.7.4.8.8.1-.1.3-.2.4-.2-.5-.5-.8-1-1.2-1.5-.1.1-.3.2-.4.3.6.6 1.1 1.2 1.6 1.8.1-.1.3-.2.4-.3-.1-.1-.1-.2-.1-.4-.1 0-.2.1-.4.1.1.2.3 0 .5 0-.2-.1-.3-.3-.3-.6-.1 0-.3.1-.4.1.2.1.3.3.3.5.1-.1.3-.1.4-.2-.3-.3-.5-.8-.6-1.3-.1.1-.3.1-.4.2.4.2.7.6.8 1.1.1-.1.2-.2.4-.3-.4-.3-.6-.7-.5-1.1-.1.1-.3.1-.4.2.3.2.9 1.3 1 .4h-.4c1.5 4.1-5.4-3.3-6.4-3.9-.1.1-.2.3-.3.4.3.4 1.2.3.8-.1z"/>
  <path fill="#FFE8C2" d="M268.1 245.1c3.6-.2 2.1-6.3 1.5-4.4 2.2 3.3-2.8 3.9-1.5 4.4zM261.1 239.5c.8.6 4.4 3.9 4.7 2.6-1.2 0-4.8-3.8-4.7-2.6z"/>
  <path fill="#FFD23E" d="M268 245c.5-.1 2 .8 2.1.3-.5-.1-2.2-.9-2.1-.3z"/>
  <path fill="#FFD23E" d="M267.7 245c.3 0 .5 0 .8.1v-.2c-.3 0-.6 0-.8-.1v.2c.7-.1 2.3.8 2.5.3-.6 0-2.5-.9-2.5-.3 1.2.4 1-.3-.1-.2 0 0 0 .2.1.2z"/>
  <path fill="#FFD23E" d="M267.7 245c.7-.2 1.8-.2.9-1 0 .1-.1.1-.1.2.8-.1 1.8.1.9-.9 0 .1 0 .1-.1.2.9-.2 1.6-.4.8-1.3 0 .1 0 .1-.1.2.3-.2 1 0 1-.4-.3-.3-.6-.5-.9-.8 0 .1 0 .1-.1.2 1.6-.4.6-.5 0-1.3 0 .1 0 .1-.1.2 1.3-.3.1-.4-.4-1 0 .1 0 .1-.1.2.1 0 .3 0 .4-.1.3-.3-.5-.3-.6-.6 0 .1-.1.1-.1.2.3.1 1.8 1.2 1.5.6-.6-.4-2.5-1.4-.9-.2v-.2c-.1 0-.3 0-.4.1-.1 0-.1.2-.1.2.3.3.7.5 1.1.6v-.2c-.2.2-.7 0-.7.4.3.3.6.6 1 .8v-.2c-.3.2-.9.1-1 .5.3.3.6.5.9.8 0-.1 0-.1.1-.2-1 .2-1.3.3-.6 1.2 0-.1 0-.1.1-.2-.8.2-1.6.2-.8 1.1 0-.1.1-.1.1-.2-.7.1-1.9-.1-.9.8 0-.1 0-.1.1-.2l-1.2.3c.1 0 .1.3.3.2z"/>
  <path fill="#FFD23E" d="M268.8 244.6c-.1-.1-.3.2-.1.2.9.3.5-.4-.2 0-.5.4.9.1 1-.1.3-.2-.9-.8-.8-.3.2.2.4.5.5.1-.3-.5-.7.1-.1.1.3-.1 0-.4-.1-.5 0 .1 0 .2-.1.2.7.1 1.9-.2.4-.2v.2c1.1-.1 1-.1.2-.8 0 .1 0 .1-.1.2.5-.2 1.3.1 1.5-.4-.2-.5-.6-.3-.8-.1-.1.1 0 .3.1.2.7.1.6-1 0-.9-.3.8.4.4 0-.2 0 .1-.1.1-.1.2 1 .2.6-.7.1-.2-.4.4.2 1.2.3.4-.3-.3-.6.7 0 .5.8-.4-.7-1.4-.2-.4.3.3.6-.2.2-.3-.3.1 0 .8.3 1h.2c.2-.5-.5-.2-.2.1l.2-.2c-.6-.3-1.3.2-.2.2.7-.3-1.1-.3-.7.1.2.1.4.1.7.1.4-.4-1.4-.4-1 0 .7.5.9-.1.2-.2-1.2.5 1.2 1 .4.1-.8-.2-.3.8.3.9 0-.1 0-.2.1-.2-.3-.1-.9-.2-.9.2.1.2.9.5.8.1-.3-.2-.6-.2-.9 0-.4.4 1.1.5.8.1-.2-.1-1-.4-.8.1 0 .4 1.2.2.9-.1-.3-.3-.9-.3-1 .2-.2.5 1.3.7 1 .3-.3-.2-1.1-.3-1.1.1.1.3 1.2.5.9.1-.9-.4-1.9 0-.4.2.4-.3-.6-.3-.8-.3-.4.3.7.4.9.4.5-.4-1.8-.5-1.1-.1.6 0 1.3.2 1.9 0 .6-.3.1-.9-.5-.6-.2.5 1 .1.7-.4-.1 0-.2 0-.2.1v-.1h.1v.1c.2-.5-.4 0-.1.1.2.1.3-.1.2-.3-.3-.2-.2.6-.6.5v.2c.1 0 .2-.1.3-.1-.1.3-1.3.1-1.8 0v.2c.4 0 .7 0 1.1.1v-.2c-.3 0-.6-.1-.9-.2v.2c.3 0 .5 0 .8.1v-.2c-.2 0-.4-.1-.6-.2 0 .1 0 .2-.1.2.4 0 .7 0 1.1.2v-.2c-.3.1-.5 0-.7-.2 0 .1 0 .1-.1.2.3-.1.6-.1.8.1v-.2c-.9.2-.8-.7-.1-.1v-.2c-.1.1-.2.1-.3.1l-.1-.1c-.1.1.2.1.3.2.1 0 .2.1.4.1v-.2c-.2.1-.4.1-.5-.1v.2c.2-.1.5-.1.7 0 0-.1 0-.2.1-.2-.2 0-.4-.1-.5-.2 0 .1 0 .1-.1.2 1.1-.2 1.1.2.3-.7v.1h.1c0 .2-.3.1-.3.1-.2-.2.4-.1.3.1 0-.1.1-.1.1-.2-.1 0-.3 0-.4-.1v.2c.3 0 .6-.1.8 0v-.2c-.2 0-.3 0-.5-.1v.2c.2-.1.4-.1.6-.1v-.2c-.1 0-.3 0-.4-.1v.2h.5c.2.1.2-.3.1-.4h.2c-.2-.1-.3-.3-.2-.6l-.1.1-.1-.1v-.1c-.1 0-.1.1-.2.1.2.1.2.1.2.3h-.3.2c-.1-.1-.1-.2-.1-.4l.1-.1c0-.1.1-.1.1-.2-.8-.1-.5.1-.5.7h.2v-.3h-.2c.3.2.2.4-.1.4 0 .1.1.2.1.2.1-.1.4-.3.5 0 0-.1.1-.1.1-.2-.5.2-1.3-.1-1.5.4.2.3.4.5.7.6v-.2c-.8 0-1.3.4-.2.3v-.2c-.3.1-1.2-.2-1.1.2-.6-.1-.5 0-.6.1l.2-.2-.2.2s.1 0 .1.1l.2-.2c-.1-.1-.2-.1-.2-.2 0 .1-.1.1-.1.3.2-.1.4 0 .5.1v-.2c-.3.1-.6.2-.9.2v.2c.2 0 .4 0 .6-.1v-.2c0 .1-.1.1-.2 0-.1.1-.1.2-.1.3.3 0 .4-.3.1-.3z"/>
  <path fill="#FFD23E" d="M269.8 239.8c.3.3.8.2.3-.2-.2 0-.2.1-.3.2.7.4 1.6.7.5-.2 0 .1-.1.1-.1.2.2.1.5.2.6.4 0-.1 0-.1.1-.2-.6-.2-.6.6 0 .6.5-.1-.7-.8-.6-.3 1 1.1.5-.9-.1 0-.1.3.3.5.5.2.1-.3-.8-.6-.7-.2.2.2.7.8.9.5 0-.2-.3-.6-.4-.3-.2.3.7 1.1.7.5-.1-.2-.3-.3-.5-.3-.7 0 .6 1.2.4.5-.1-.1-.4-.2-.5 0-.2.3.6.6.4.2-.5-.9-1.2.5-.1.2.3-.2-.8-.6-.7-.1 0 .3.6.3.4 0-.5-.4-.9.1-.2 0 .1-.1.1-.2 0-.2-1-.1.3 1 .5.5-.1-1-1.1.2-.1.3 0-.1-.1-.1-.1-.2 0 0 0-.1.1-.1-.5.2.2 1.2.3.7-.2-.7-1 0-.6.3.5.2.7-.6.1-.6-.5.2 0 1.1.5.7.5-.4-.3-.9-.6-.3-.3.8.8 1.1.5.2 0-.1-.1-.1-.2-.1-.4.2-.1 1.4.3.8 0-.8-1 .2-.4.5.6-.1.1-.8-.3-.4-.1.2-.3.7.1.7.5-.3-.1-.9-.4-.5s.4.8.6.3c.1-.5-.7-.5-.6 0s.8.2.6-.2c-.3-.5-.9.2-.6.6.3.4.9-.1.5-.4-.4-.3-.7.5-.3.8.5.2.7-.6.2-.6-.6 0-.4 1.2.1.9.2-.1.1-.4-.1-.5-.3-.1-.5.1-.6.4.1.3.7.1.7-.2-.2-.9-1.1.5-.2.3.4-.2.7-1.1.2-1.1-.2.1-.2 1 .1.7.8-1.3-.3-1.5 0 0 .5.4.7-2.2.2-1.8-.3 2.6.4.7.2-.4-.3-.4-.2.6-.2.8.5.1.2-1.3 0-1.6-.5-.3-.3 1.5.1 1.1.2-.3.2-1.5-.3-1.4-.1.3-.1 1.4.3 1.2.3-.4.2-1.7-.3-1.6-.3.2 0 1.4.3.9.3-.4-.4-1.8-.7-1.1.4.9.6-.3 0-.4-.5 0 0 .8.4.7.4-.4-.5-1.6-.6-1 0 .2.8.5.7.1-.6-1.1-1.1.1 0 .3l-.1-.1c-.1.9.8 2.1.4.5h-.2c0 .1 0 .3.1.4.6.1-.8-1.9-.8-1.1.1.1.3.8.4.3.1-.3-.4-.5-.3-.1.3.8 1.2.1.6-.3-.5.1-.2.9.3.8.2-.2-.1-1.1-.3-.6-.1.4.4 2 .4.8-.3-.6-.5 2.2-.1 1.6.1-.2.2-1.3-.1-.9-.1.2-.2 1.7.2 1.3.1-.3.1-.5.1-.8-.3-.5-.8 1.8-.3 1.6.2-.1.2-1.2-.1-.7 0 .3 0 .6-.1.9.6.3.1-2.6-.1.6.1 0 .2 0 .2-.1-.4-1-.5.1-.1.6.4.1.2-.8-.1-.9-.4 0-.1.6-.1.9.5.3.1-1-.3-.5 0 .3.1.5.3.6.5.1-.1-1-.4-.5-.4.3.6 1 .7.5-.4-1.2-1.3.4-.1.2.3-.3-.4-.4-.7-.5-.5.1.1.7.3.6.1 0 .2-.2.1-.2-.8-.5-1.2.2-.1.3.5-.2-1.4-.6-1-.2.3.1.5.1.8.2 0-.1 0-.2.1-.2-.3 0-1.3-.4-1.2 0 .2.2 1.3.3.9 0-1.3-.3-.8.4.1.4.4-.4-.8-.3-1.1-.4-.5.2.6.4.8.4.4-.3-.6-.3-.8-.4-.4.2.3.4.6.4.4-.3-.5-.3-.7-.4-.5.2.3.3.5.4 0-.1 0-.2.1-.2-.9-.2-1 .1-.1.3 0-.1 0-.2.1-.2-.2 0-1-.2-.7.1.9.3 1.4.1.2-.2 0 .1 0 .2-.1.2.3.1.6.1.8.2 0-.1 0-.2.1-.2-1.3-.4-1.1.2 0 .2.7-.2-1-.6-.7-.2.2.2 1.2.5 1 .1-.5-.3-2-.4-.5.1 0-.1 0-.2.1-.2-.2-.1-.4-.1-.6-.2 0 .1 0 .2-.1.2.9.3 2.9.6.9-.1 0 .1 0 .2-.1.2.3 0 1.3.5 1.2 0-.2 0-1.2-.7-.9-.2.2.1.4.2.6.2.5-.3-.7-.8-.5-.3.8.5.5-.9.1-.4-.1.4.9.5.4.2l-.1-.1c-.1 0-.1.1-.2.1.1.1.1.1 0 .2 0 .1 0 .2-.1.2.1 0 .3.1.3.2 0-.1.1-.1.1-.2-.2 0-.3 0-.5-.1 0 .1-.1.1-.1.2.3.1.5.2.8.4 0-.1 0-.2.1-.2-1.2-.2-1.8-.2-.3.3 0-.1 0-.2.1-.2-.6-.2-2.9-.6-1.2 0 .5-.2-.3-.3-.5-.4 0 .1 0 .2-.1.2.3.1.6.2 1 .3 0-.1 0-.2.1-.2-.3 0-.6-.1-.9-.3 0 .1-.1.2-.1.2.2.1.5.2.7.2 0-.1 0-.2.1-.2-.3-.1-.6-.1-.9-.2 0 .1 0 .2-.1.2 1.1.4 1.2 0 .1-.2-.5.2.4.3.6.4 0-.1 0-.2.1-.2-.3-.1-.5-.1-.8-.2 0 .1 0 .2-.1.2.9.2 1-.1.1-.3 0 .1 0 .2-.1.2.9.2 1-.1.1-.3 0 .1 0 .2-.1.2.2.1.5.1.7.2v-.2c-.2 0-.4-.1-.5-.2 0 .1-.1.2-.1.2.3.1.5.1.8.2v-.2c-.3 0-.5-.1-.8-.2 0 .1 0 .2-.1.2.4.1.7.1 1.1.2v-.2c-.3 0-.6-.1-.8-.2 0 .1-.1.2-.1.2.2 0 .5.1.7.1v-.2c-.3 0-.5-.1-.8-.2 0 .1-.1.2-.1.2.8.3 2.2.2.4-.2 0 .1 0 .2-.1.2.3.1.6.1.9.2v-.2c-.2 0-.4 0-.5-.2 0 .1-.1.1-.1.2.2 0 .4 0 .6.1 0-.1 0-.2.1-.2-.2 0-.3-.1-.3-.3l-.2.2c.2.1.4.1.6.2v-.2h-.3c.1-.1.2-.1.2.1l.2-.2h-.2c0-.1 0-.1 0 0 .1 0 .1-.1.2-.1-.1-.1-.2-.3-.2-.5-.1 0-.1.1-.2.1.1 0 .2.1.1.3h.2c-.1-.2-.1-.4-.1-.6-.1 0-.1 0-.2.1.2.1.2.3.2.5.1 0 .1 0 .2-.1-.2-.2-.2-.4-.2-.7-.1 0-.2 0-.2.1.5 1.2.3-.5.5-1h-.2c0 .3 0 .5-.1.7h.2c0-.3 0-.6.1-.9h-.2c0 .2 0 .4-.1.5.1 0 .2 0 .2.1 0-.5.1-1 .2-1.4h-.2c0 .3 0 .5-.1.7h.2v-1.2h-.2c0 .3 0 .6-.1.9h.2c0-.5 0-1 .1-1.5h-.2v.4h.2c-.1-.4-.2-.8-.2-1.2-.1 0-.1.1-.2.1.1.1.1.2 0 .4h.2c-.2-.1-.2-.3-.2-.5-.1 0-.1.1-.2.1-.1.2-.3 0-.4-.1l-.2.2v.1c.1 0 .2 0 .2-.1-.1-.1-.1-.3-.2-.4l-.2.2c.3.3 1.2 2 .8.6 0-.1-.3-.1-.2 0 0 .2 0 .4.1.7.5-.1-.3-.9-.1-1.3-.1-.2-.5 0-.5-.5l-.2.2c.2 0 .3.1.3.3 0-.1.1-.1.1-.2-.2 0-.3 0-.4-.2 0 .1-.1.1-.1.2.3.1.5.5.3.8h.2c-.2-.1-.3-.2-.3-.4-.1 0-.1.1-.2.1.2.1.3.2.3.4.1 0 .2 0 .2-.1-.1-.1-.1-.2-.2-.3l-.2.2c.4.2.5.7.4 1.1.1 0 .1 0 .2-.1-.2-.2-.3-.4-.1-.7h-.2c.3.4.3.9.1 1.3h.2c-.2-.3-.2-.6-.1-1h-.2c.2.4.2.8.1 1.2h.2c-.2-.3-.2-.6-.1-.9h-.2c.2.5.3 1 .2 1.5h.2c-.1-.2-.1-.4 0-.6h-.2v1.5h.2c0-.4 0-.7.1-1.1h-.2c.1.6.1 1.1-.1 1.6h.2c-.1-.3 0-.6.1-.9-.1 0-.2 0-.2-.1 0 .3-.1.6-.2.8h.2c-.1-.1 0-.2 0-.4-.1 0-.1 0-.2-.1.1.3-.1.9-.5.8 0 0 0 .1.1.1.1-.3.4-.4.1-.7-.4-.3.1-.4.3-.2-.1-.1 0-.3.1-.3l.1.1c-.1-.3 0-.7.1-1-.1 0-.1 0-.2-.1.1.6-.3.1 0-.2-.4 0 .1-.1.2-.2-.2-.1-.3-.4 0-.6-.6-1-.9.9 0 .2.1-.1 0-.2-.1-.2l-.2-.2.1-.1c-.3 0-.5-.1-.6-.3 0 .1-.1.1-.1.2h.3v-.2h-.2v.2c.1 0 .3 0 .4.1v-.2c.1 0 .2 0 .3.1v-.2c-.2.1-.1.1 0 .2 0-.1.1-.1.1-.2s.1-.1.1-.2c-.2-.1-.3-.2-.3-.4-.1 0-.1.1-.2.1.1 0 .2.1.3.2 0-.1.1-.1.1-.2-.2 0-.4-.2-.4-.4-.1 0-.1.1-.2.1 0 .1.1.1.1.2l.1-.1c-.3 0-.5-.2-.6-.4 0 .1-.1.1-.1.2.1 0 .3.1.3.2v-.1s.1 0 .1.1l.2-.2c-.1 0-.2-.1-.2-.2 0 .1 0 .1-.1.2.1 0 .3 0 .4.1 0-.1.1-.1.1-.2-.1 0-.2-.1-.3-.3l-.2.2c.3 0 .5.1.5-.2-.6-.5-1.2-.5-.3.2l.2-.2c-.2-.1-.5-.3-.7-.4 1.3-.3 1.1-.1 1.2 0 .1 0 .2.1.3.2l.2-.2c-.1-.2-.9-.3-.5 0z"/>
  <path fill="#FFD23E" d="M272.7 241.7c-.2 0-.4.1-.3.2 3.6 1.6 2.9.2-.3 0-.1.7 2.2.8 2.9 1 .5-.4-3.3-1.1-3.2-.5.7.7 2.8 1.5 3.2.7-.8-.1-2.6-1.2-3.2-.3.4 1.1 4.8.8 2.4-.1-4.2-1-1.2 1.6 1.1 1-.2-.7-2.5-.7-3.5-.7-.1.9 2.2 1.4 3.1 1.1.2-.8-4.8-1.1-2.6 0 3.8.9 3.3-.4-.1-.7v.2c2.8-.2 2.1-1.7-.1-2.2-.2-.1-.2.2-.1.2.5.2 1.7.7 1.8 0-.4-.4-2-1.1-2.2-.6.6.4 1.2.8 1.9.7.6-.5-.7-1-1.2-.8-1.5.4.7 1.5 1.4 1.3 1.4-.6-1-1.5-1.5-.9-.2.7 1 1 1.4 1.2 3.7.9.1-2.2-1.3-1.3-.2 1 2.2 2.4 2.7 1.8-3-1.9-3.5-.2-.4.9.2-.6-1.5-1-2.1-1.2-.7.5 3.1 1.5 2.4.9-.8 0-1.7-.2-2.3-.8 0 .1-.1.1-.1.2.8.2 1.5.5 2.2.9 0-.1.1-.2.1-.2-.9-.2-1.6-.7-2.1-1.5 0 .1-.1.1-.1.2.9.1 1.7.4 2.4.9 0-.1.1-.2.1-.2-1.2 0-4-2.3-1.2-1.4.3.2 1.5.3 1.1.8-1.3.5-4.3-2.2-1-.7-.3.4-.9.1-1.3-.1-1.4-.6.1-.9.7-.3-.5.3-1.3-.2-1.7-.5 0 .1-.1.1-.1.2.7 0 1.3.3 1.9.6 0 0 0-.1 0 0-.5 0-1-.3-1.5-.4 0 .1 0 .2-.1.2 1.7.5 2.8 1.6.2 1.8-.1.5 2.2.4 2.9.9v-.2c-1 .2-2 0-3-.3.6-.1 2 .2 2.7.5v-.2c-1.1.2-2.2-.1-3-.8 0 .1-.1.1-.1.2 1.2-.1 2.3.1 3.4.5v-.2c-.9 0-2.1 0-2.9-.5-.8-.7 2.1.1 2.4.1-.7.3-1.8 0-2.5-.3.1-.4 2.1.3 2.8.5v-.2c-1 .2-2.1-.1-2.9-.8 0 .1-.1.1-.1.2 1.1 0 2.1.1 3.1.5v-.2c-1-.1-2-.3-2.9-.8 0 .1 0 .2-.1.2 1 .1 1.9.3 2.9.6 0-.1 0-.2.1-.2-.8-.2-1.7-.4-2.4-.8 0 .1-.1.2-.1.2h.2c.2-.2.2-.4.1-.5zM269.3 239.1c1.5.3 3 .9 4.3 1.6.1.1.3-.1.1-.2-1.2-.4-3.8-1.9-4.4-1.4z"/>
  <path fill="#FFD23E" d="M270 239.5c.7.2 1.4.4 2.1.7 0-.1 0-.2.1-.2-.5.1-1.8-.8-1.8-.3.6.4 1.2.6 1.9.8 0-.1 0-.2.1-.2-.3 0-1.1-.6-1-.1.7 1 1.9.4.3.1-.4.3.3.7.6.6.3-.1-.1-.5-.3-.4-.9.5.9 1.3.4.4-.7-.6-.8 1-.1.9 0-1.5-1.1.2.1.3.4-.6-.8-.7-.3-.4.1 0 .2.1.1.2h.2c-.1 0-.2-.3-.3-.4v.1h.1l-.2-.2c-.1-.1 0-.5.1-.3-.2 0 0-.6 0-.2l.1-.1c-.2 0-.4-.1-.5-.3 0 .1-.1.1-.1.2.2 0 .4.1.6.2 0-.1.1-.1.1-.2-.3-.1-.6-.3-.9-.6 0 .1-.1.1-.1.2 2.3.6-.1-.2-.8-.7 0 .1-.1.2-.1.2.3.1 1.8.8 1.8.3-.5-.1-2.2-1-2.2-.6z"/>
  <path fill="#FFD23E" d="M270.8 242.4c.1 0 .3-.1.4-.1.2-.2-.2-.3-.2-.1-.1.5.8-.1 1-.3 0-.8-.5 0-.2.3 0 .2.3.1.4 0 .3-1.3-.5-.2-.1.4.3.3.3-.7.1-.7-.4-.3-.5.5-.3.8 0 .1.1.3.2.3.1.1.3.1.3-.1.2-.3-.3-1.3-.7-.9.1.3.5.4.4.7 0 0 0-.2-.1-.2 0-.2-.1-.3-.1-.5v-.1.5h.2c-.1-.3-.1-.5 0-.8h-.2v.3c.1 0 0 0 0 0v-.3h-.1v-.2c-.2.2-.5.4-.8.4 0 .1.1.1.1.2v-.2c-.1 0-.4.1-.4.2 0 .4 0 .4.1.4zM270.9 241.3c.2 0 .2-.2 0-.2-.1 0-.1.2 0 .2z"/>
  <path fill="#FFD23E" d="M270.6 241.2c-.2.1-.4.1-.6 0v.2c.2-.1.6 0 .6-.2.3-.8-.9-.2.4.4.6 0-.6-1.6-.8-2l-.2.2c.1 0 .1.1.2.1.1.1.3-.1.2-.2-.1 0-.1-.1-.2-.1-.6 0 .6 1.6.8 2l.2-.2c-.2-.1-.4-.2-.5-.4 0 0 0 .1-.1.2 0-.1 0-.2-.1-.1-.1 0-1 0-.7.3.3.2.6.2.8 0 .1 0 .1-.1 0-.2.2 0 .1 0 0 0zM270.1 242.5c.2.1.7.6.7.1l-.1-.1s-.2 0-.2-.1c0 0-.1 0-.1-.1h-.1c-.1-.2-.4.2-.2.2zM268.7 244.4c2.2.8.1-1 .6.4 0-.1.1-.1.1-.2-.9.1.1.9 0 .2-.1 0-.3-.1-.3-.2.5-.1 1.1-.4 1.4-.8.1-.2.1-.6.4-.3.1.2.5.4.7.2v.1s0 .2.1.2c.4.2.5-.4.4-.7-.3-.3-.3.6-.2.8.3.4.5-1.3.1-.9-.5 2.1 1 .3.1.3-.3.2.2 1.2.2.6-.1-.2-.1-.4 0-.5h-.2c0 .1.1.4 0 .4.3.1 0-.5.2-.7h-.2c0 .2 0 .5-.1.7h.2c-.1-.2-.1-.4 0-.7h-.2s.1.4 0 .4c-.2-.5-.2-.2-.6-.2-.2-.2-.3-.4-.6-.4-.5.1-.4.6-.8.9-.5.3-1.8.5-.6 1v-.2c.1 0 .3 0 .2-.2 0 0 0-.1-.1-.1 0-.1.1-.2.1-.3-.3 0-.5-.1-.7-.2-.2.1-.4.3-.2.4zM271.3 242.2c.2 0 .2-.2 0-.2-.2-.1-.2.2 0 .2zM271.4 242.4c0 .2-.1.5.1.5.1.1.2 0 .3-.1 0-.1.1-.1.1-.2l.3-.3c.1 0 .1-.1.2-.1.2-.1.1-.6-.1-.3 0 .1 0 .2.1.3.1 0 .1 0 .2-.1v-.1h-.2s-.1 0-.1.1c-.1.1-.2.1-.2.2-.1.1-.1.2-.2.2l-.1.1v.1h.1v-.4c-.1-.2-.6-.1-.5.1z"/>
  <path fill="#FFD23E" d="M274 243.8c-5-.5-.4 3.3-.8-.1-1.8-1.4-3 2.1-.2 1 2.4-.3 1.4-4.1-.5-2.3-.8 1.3 1.1 2.5 2.2 1.8 2.9-2.3-3.7-4.4-2-1.1.6.6 1.6.7 2.4.4 1.5-1-1.2-3.1-2.2-2.4-.7.9.6 2 1.5 2 1.1-.1.4-1.4-.1-1.2h-.2c.3 0-.2-.1-.1 0l-.1-.1-.1-.1c.1.2 0-.1-.1-.1 0 .1-.1-.4-.1.4-.1.1-.2.1-.3.2h-.2c.1 0 .1 0 .1.1.4.2.9.5 1 .7-.1-.1 0 0 0 0v-.1c0 .2 0-.3.1-.2 0 0 .2 0 0 0h.1-.1c.1 0 .1 0 0 0h-.2c-.1 0-.2 0-.3-.1-.1 0-.1 0-.2-.1.1 0 0 0 0 0s-.1 0-.1-.1c-.1 0 0 0 0 0l-.1-.1c-.1-.1.1.1 0 0v.1c0 .1 0 .2-.1.2.1-.1 0 0 0 0s.2-.1 0 0c.1-.1-.1 0 0 0s-.1 0 0 0 .1 0 .2.1c.1 0 0 0 0 0s.1 0 .1.1c0 0 .1 0 .1.1.1.1-.1-.1 0 0 0 .1 0 0 0 0 0 .1 0 0 0 0v.2c0 .1 0 .1 0 0v.1l-.1.1h0c-.1 0-.1 0 0 0h-.2-.1.1-.1c-.1 0-.1 0 0 0 0 0-.1 0-.1-.1-.1-.1.1.1 0 0l-.1-.1c.1.1.1.1 0 0 0-.1 0-.1 0 0 0 0 0-.2 0 0 0-.1 0 .1 0 0s-.1.1 0 0l-.1.1c.1 0-.2 0 0 0h-.1-.1c.1 0 0 0 0 0s.2.2 0 0c.1.1-.1-.1 0 0s-.1-.1 0 0 0-.1 0 0 0 .1 0 0v.1c0 .1.1-.1 0 0v.1c.1-.1.1-.1 0 0l-.1.1s-.1 0-.1.1c0 0-.1 0-.1.1-.1 0-.1 0 0 0-.2 0-.4.1-.7.1h-.2-.1c.1.3.2.7.3 1-.1.1 0 0 0 0 .1 0-.1 0 0 0h.1c-.2-.1-.1 0-.2-.3-.2-.3-.1-.3.1-.5-.1 0-.1 0 0 0 .1.4.1.8.2 1.2l.5-.1h.8c.5.3 1.6-.9.7-1.3z"/>
  <path fill="#FFD23E" d="M272.1 241.2c.5.2 1.2.2 1.6.5 0 0 .2.1.1 0-.1 0 .2-.1.2.1.7.5 1.8-.3 1-1-.9-.7-4.9-1.6-2.9.4z"/>
  <path fill="#FFD23E" d="M271.3 240.5c0-.1.1-.1.1-.2-.2.1-.5.2-.7.3.6.2 1.3.4 1.9.7l.3-1.2c-.3-.1-.7-.2-1-.3l-.3 1.2c1.4.5 2-1 .4-1.3l-.3 1.2c1.8-.2 20.1 6.9 17.1 3.5-1.2-.2-21.7-7.2-16.6-3.3l.3-1.2c-.2 0-.4-.1-.6-.1-1.6.3-.3 1.5.7 1.5.8.2 1.1-.9.3-1.2-3.9-2-2.8 1.6-1.6.4z"/>
  <path fill="#FFD23E" d="M275.2 243.1c4.4 1.8 5.1.2.6-1.5-.2.4-.3.8-.5 1.1.9.3 1.8.7 2.7 1l.3-1.2c-7.2-2.6-4.9 1.4.1 2.5 2.6-1-2.1-2-3.2-1.8-2.2 1.4 2.8 2.4 3.9 2.6.7.1.8-1 .2-1.2-1.2 0-6.4-2.7-5.2-.2.7.9 6.5 2.9 4.6.5-1.8-.3-3.7-.6-5.5-.9-2.9 1.3 3.7 2.7 4.8 2.6 2.5-1.4-3.4-1.8-4.3-2.4l-.3 1.2c4.1.7 17.5 2.8 4.6-1.7-.2.4-.3.8-.5 1.1 6.5 2.5 7.3 1.2 1.2-2.3l-.3 1.2c1.7.2 3.3.9 4.7 1.8.2-.4.3-.8.5-1.1-.9-.4-1.9-.8-2.8-1.2-3.8.3 7.2 5.3 5.2 2.3-6-3.7-3.2 1.5 1.1 1.2 2.1-.9-1.7-2.4-2.7-2.6-2.4.8 2 2.9 3 3.2l.3-1.2c-5.5-2-8.8-.2-1.4 1.5 2.2-1.5-3.3-2.2-4.4-2.5-2.6.9 2.5 2.6 3.5 2.8l.3-1.2c-4.1-1.4-11.6-1.4-2.5 1.2l.3-1.2c-1.8-.4-3.7-.7-5.6-.9-3.2 1.3 6.7 3.2 3.9.9-1.3-.2-2.5-.5-3.8-.9-.1.4-.1.8-.2 1.2 4.9 1.1 9.7.9 1.7-1.6l-.3 1.2c4.4 1 11.3 2.3 2.6-1.6-.2.4-.3.8-.5 1.1 1.6.2 3.1.7 4.6 1.3.1-.4.1-.8.2-1.2-1.3-.1-2.4-.5-3.4-1.3-.2.4-.3.8-.5 1.1 4.5 1 8.9 2.4 2.2-2-.2.3-.4.7-.6 1 1 .3 1.9.7 2.7 1.3l.3-1.2c-1.4-.1-2.6-.6-3.8-1.4-.2.4-.3.8-.5 1.1.9.3 1.7.8 2.5 1.3.2-.4.3-.8.5-1.1-1.7-.6-3.4-1.3-4.9-2.1-.2.4-.3.8-.5 1.1.9.4 1.9.8 2.8 1.2 3.6-.7-7.1-5.1-5.1-1.9 1.3 1 2.6 1.8 4 2.6.2-.4.3-.8.5-1.1-8.1-2.7-6.5-.1 0 1.7.1-.4.1-.8.2-1.2-3-.3-6-.7-9-1.2-2.9 1.2 3.3 2.2 4.2 2.4.1-.4.1-.8.2-1.2-1.6-.2-3.3-.3-4.6-1.3-.2.4-.3.8-.5 1.1 1.8.3 3.7.6 5.5.9.1-.4.1-.8.2-1.2-1.4-.1-2.7-.7-3.8-1.5-.2.4-.3.8-.5 1.1 1.6.4 3.2.9 4.7 1.3.1-.4.1-.8.2-1.2-1.3-.2-2.5-.6-3.6-1.2l-.3 1.2c1.1 0 2.1.2 3.2.6l.3-1.2c-1.6-.3-2.9-1-4-2.1-.2.3-.4.7-.6 1 1 .1 6 2.1 4.2-.2-4.3-2-4.8-.1-.4 1.4.2-.4.3-.8.5-1.1-.9-.3-5-1.8-3.2.2z"/>
  <path fill="#FFD23E" d="M270.5 245.2c.6 1.4 2.8 1.1 4.1 1.7.9.2 6.9 2.1 4.9-.2-2.8-.5-5.5-1.1-8.2-2l.4.4c-.1-.8-1.5-.9-1.2.1z"/>
  <path fill="#FFD23E" d="M272.6 245.6c1.2 0 9.9 3.2 7.7.5-1.2 0-9.8-3.2-7.7-.5z"/>
  <path fill="#FFD23E" d="M278.5 247.4c1.6.5 3.3.9 5 1.1 2-1-1.1-1.6-2-1.7l-.3 1.2c1.8.5 8.7 1.1 3.5-1.2-2.8.7 2.8 3.7 2.8.6-.1-2.1-3.4-.8-2 .8 1.1 1.3 3.7-.5 2.8-2-3.3-2.4-1.8 4.6.9 1.6.8-1.1-1.3-3.8-2-2.1-.1 4.8 5.4.8 1-.8-.8-.1-1.1 1.1-.3 1.2.3 0 .8.4.7.6-.3-.2-.2-.7-.2-1.1-.4.1-.7.3-1.1.4.1.1 1 .9.6 1.1-.2.1-.3-.3-.4-.4v-.1c-.2.1-.3.1-.4 0-.6.7-1.6.8-2.1 0-.2.3-.4.7-.6 1 .5.1.9.3 1.3.6.2-.4.3-.8.5-1.1-1.5-.2-3-.4-4.6-.6-2.3.8 1 1.6 1.9 1.7.1-.4.1-.8.2-1.2-1.2.1-7-2.5-5.2.4z"/>
  <path fill="#FFD23E" d="M277.6 246.3c-1.1-1-2.3.7-.8 1.1l.3-1.2c-4.3 1.6 9.8 3.3 11.1 3.6 3.9-1.6-10.3-2.7-11.4-3.6-.1.4-.1.8-.2 1.2 1.1.2 1.4-1.1.3-1.4l-.3 1.2c.8.6 1.9-.1 1-.9z"/>
  <path fill="#FFD23E" d="M287.3 248.4c.6.6 2.5.4 2-.8-.6-1.1-2 .2-1.6 1.1 1.6 2.3 2.9-2.5.7-1-.2.5-.4.9-.3 1.4 2 2 2.2-2.9 1.1-3.9-.5-.7-1.6 0-1.1.7.1.1.3.5.2.5.1.1.2.9.2.8v.9s.1.4-.1.5v.1c.1-.3.6-.3.8 0v.1c0 .2-.1-.3.1-.4 0 .1.1-.1.1-.1l-1.2-.3c0 .1 0 .1 0 0v.2c0-.1 0-.1 0 0l.1-.1h.1c-.1 0-.1 0 .2.1.1.1.2.4.2.3 0 .1 0 .1 0 0v-.1c.1.3-.6.2-.7 0 .1-.3.1-.6.2-.9 0 0-.1 0-.1.1-.1.1.1 0 0 0 0 0-.1 0 0 0h-.2s.2 0 0 0c-.1 0 .1.1 0 0-.5-.6-1.4.2-.7.8z"/>
  <path fill="#FFD23E" d="M288.7 245.4c.8.8.8 2 .4 2.9l-.3.3h-.1c.1 0 0 0 0 0h-.1-.1c-.1 0 .1.1 0 0 0 0-.1-.1 0 0-.1-.1 0 .1 0 0-2-1.2-1.1 2.1.7 1.3 2.3-.5 2-5.8-.3-5.2-.5.1-.4.5-.2.7z"/>
  <path fill="#FFD23E" d="M285.1 249.4c4 1.5 6.9.8 5.5-4.1-.6-1.5-4.5-1.2-2.3.1 2-.2 1.7 2.3.9 3.4-1 .2-5.8-1.9-4.1.6zM272 240c0-.1-.1-.1-.1-.2-.2.3-.4.6-.5.9 3-.1 6 2.3 8.7 2 1-1.4-10.1-4.6-9.1-2.4.2 1 1.4.6 1-.3z"/>
  <path fill="#020202" d="M260.9 239.4c.1.1.2.1.3.2.1-.1.2-.3.3-.4-.2-.1-.5-.4-.6-.1-.2 0-.2.2 0 .3l.1.1.2.2c.1-.1.2-.3.3-.4-.2-.2-.4-.3-.6-.5 0 .2-.1.3-.1.5h.9c-.1 0-.1-.1-.1-.2 0 .1-.1.4-.1.5.1 0 .2-.1.4-.1-.3-.2-.7-.4-1-.7 0 .2-.1.3-.1.5h1.1c-.1-.2-.1-.2-.1-.1v.6c0-.1.1-.1.3-.1-.1-.1-.2-.2-.3-.2-.3-.1-.8-.8-1-.4-.1.5.8.6 1.1.9.6.6 1-1.4.3-1.2-1.8-.1-1.5.4-.2 1.2.1.1.3 0 .4-.1 0-.2.2-.5.1-.7 0-.3-1.4-.3-1.4 0s.8 1.1 1 .7c.4-.5-1.3-1.1-1.2-.5.2 0 .5.5.6.1.1-.1 0-.3-.1-.3-.2-.1-.5-.4-.6-.1-.1 0 0 .2.1.3z"/>
  <path fill="#FFE8C2" d="M267 242.6c-.2.5.4 1 .5.4-.1-.5-.6-.2-.6.2h.5c-.3-1.1-2.9-5.4-3.8-3.1.5.8.9-1.3.4-1.3-1.4.7 2.5 2.3 2.8 3.3 1.5-.1-1.7-2.4-2.2-2.8-.1 0-.1-.1-.2-.1-.1-.1-.2-.2-.3 0l-.2-.2c0 .3 0 .7-.1 1h.5c1.3-.8 2.8 4.8 3.4 3h-.5v.1c.2 0 .3-.1.5-.1v-.3c-.2-.3-.7-.4-.7-.1z"/>
  <path fill="#FFD23E" d="M270 245.6c1.1.6 12.9 4 10 1.1-1.5.7-12.5-4.1-10-1.1z"/>
  <path fill="#E2B538" d="M271.1 240.8c6 1.9 13 4.6 18.7 5.3-6.2-1.2-13.2-4-18.7-5.3zM272 243.2c5.6 1.3 12.2 3.7 17.3 4.5-5.5-1.3-12.3-3.8-17.3-4.5zM270.5 244.6c6 1.3 12.9 3.7 18.4 4.3-6-1-13.1-3.4-18.4-4.3z"/>
  <path fill="#5B4438" d="M287.7 242.2c.2.6.4 1.2.5 1.8.4-.2-.3-1.5-.3-2-.1 0-.1.1-.2.2.9.6 1.6 1.5 2.1 2.5.6-.5-1.4-2.3-2-2.8-.5.1.3 1.5.3 2 .6.2-.2-1.5-.3-1.9.1 0-.1.1-.1.2z"/>
  <path fill="#5B4438" d="M288.5 243.3c.5.8.2-.4-.1-.6-.4-.3-.1.6.1.6.3.4-.2-1.4-.5-.8-.1.3.3 1 .5.6.1-.3-.6-1.3-.6-.6l.9 1.2c.1 0 .1-.1.2-.1-.8-1.1-.9-.5-.1.2.7.1-.4-.9-.5-1.1l-.2.2c.3.3.5.5.7.9l.2-.2c-.2-.2-.5-.5-.6-.8l-.2.2c.3.3.5.6.7 1l.2-.2c-1.6-1.4-.6.5-.4 0-.5-1.9-1-.2-.2.1.1-.1.2-.3.1-.4-.2-1-.7.2-.4.6.2.2.5 0 .4-.2-.6-.8-.6.9-.1.2.1-.1-.1-.3-.2-.2-.2.1-.1.3.1.4 0-.1.1-.1.1-.2-.1 0-.5 0-.3.2.1.2.8.1.4-.1-.1 0-.2 0-.2-.1-.5.2.8.7.6.2-.1-.1-.2-.2-.3-.2 0 .1-.1.2-.1.2.2.1.4.1.5.2.4 0-.6-1.2-.5-.7.1.2.5.8.7.5-.4-1.5-1.1-.8 0 .3l.2-.2c-.1-.2-.6-.6-.5-.1.1.2.6.8.7.3-.1-.2-.4-.6-.4-.2 0 0 0 .1.1.1.1.1.3 0 .2-.1 0-.2-.2 0-.3 0 .1.1.1.2.2.3l.2-.2c-.2-.1-.3-.2-.4-.4l-.2.2c.9.8.3-.4-.1-.8l-.2.2.3.3s0 .1.1.1h.1c-.1-.1-.2-.3-.3-.4-.1 0-.1.1-.2.1.1.2.3.4.4.6 0-.1.1-.1.1-.2-.2-.1-.4-.1-.5-.2-.3 0 .2.5.3.5 0-.1.1-.2.1-.2-.2 0-.4-.1-.6-.2 0 .1-.1.2-.1.2.1 0 .2 0 .2.1v-.2c-.1 0-.1 0-.2-.1 0 .1-.1.1-.1.2.1 0 .5 0 .3-.2 0-.1-.1-.1-.1-.2v.1s-.1-.1-.1-.2c-.2-.2-.1-.4-.1-.5-.1-.1 0-.2 0-.3-.1 0-.1 0-.2.1.2 0 .2.2.2.3v-.1c0 .1-.1-.4-.1-.4-.1 0-.2 0-.2.1.2.2.3.5.4.8.1 0 .1-.1.2-.1-.1-.1-.2-.3-.3-.4h-.2c1.3 1.2 1.1.3.3-.6-.6-.1.3.9.5 1 .7 0-.4-.9-.6-1.1-.7-.1.4.9.5 1.1l.2-.2-.6-.6c-.1 0-.1.1-.2.1.2.2.3.4.5.6 0 .1.1.1.2 0 .1-.4-.7-1-.9-1.4l-.2.2c.2.2.3.4.3.7.1 0 .1-.1.2-.1-.2-.1-.2-.3-.2-.5-.1 0-.1.1-.2.1.2.2.3.4.3.7h.1c0-.2-.1-.4 0-.5h-.2c.1.2.3.4.4.7.1 0 .1-.1.2-.1-.1-.2-.4-.3-.4-.1z"/>
  <path fill="#5B4438" d="M288.4 244.2c1.1.2 2.6 1.3 1.2-.5l-.2.2c.3.3.5.6.7 1 .1 0 .2-.1.2-.1-.2-.2-.8-1.7-1-1.2.3.2.8 1.7 1 1.2-.6-1.4-1.4-1.4-.3 0l.2-.2c-.3-.3-2.1-1.1-1.8-.4z"/>
  <path fill="#5B4438" d="M287.9 242c1.4 1 2.4 2.4 3 4 .5-.9-1.8-3.4-2.9-4.3-.1 0-.3.2-.1.3z"/>
  <path fill="#5B4438" d="M289.9 244.5c.1.1.2.2.3.2.6.2-.4-1.3-.3-.5.1.2.3.4.4.6l.2-.2c-.1-.1-.2-.2-.4-.3-.1.2-.2.2-.2.2v.2c.1.1.2.1.2.2l.2-.2c-.1-.1-.2-.1-.2-.2-.4-.1-.1.4.1.4l.2-.2c-.5-.5-.8 0-.1.3.7-.1-.4-.4-.4-.5-.1 0-.1.1-.1.2.5.2.9.7 1.1 1.2.1 0 .2-.1.2-.1-.1-.2-1-1.7-1.1-1 .4.1.9 1.5 1.1 1-.2-1-2.3-1.9-.8-.7l.2-.2c-.1-.1-.2-.2-.4-.3l-.2.2c.4.5.8 0 .2-.2l-.2.2c.1.1.2.1.2.2.5 0 .1-.3 0-.4l-.2.2c.8.6.5-.2.1-.6l-.2.2c.1.1.2.3.3.4l.2-.2c-.1-.1-.2-.2-.3-.2-.1-.1-.3 0-.1.1z"/>
  <path fill="#5B4438" d="M288.5 244.2c.6-.1 2 1.6 2.1 1-.2-.4-2.1-1.7-2.1-1z"/>
  <path fill="#5B4438" d="M289 250.5c.1.1.1.2.2.3 2-.7 2.6-3.9 1.4-5.7l-.2.2c1.4 1.7 0 3.9-1 5.4-.1.1.1.3.2.2 1.6-1.7 1.9-4.2.7-6.2-.6-.4 1.1 3.4 1.2 2.7-.1-.5-.3-1-.4-1.6-.1 1.5 0 3.9-1.7 5.1-.1.1.1.3.2.2 1.5-1.3 2.1-3.4 1.6-5.3-.5-.3.2 1.2.2 1.7.1 0 .2-.1.2-.1l-1.2-2.7c-.1 0-.1.1-.2.1 1.1 1.9.9 4.3-.6 5.9l.2.2c1.1-1.6 2.4-3.9 1-5.7-.1-.1-.3 0-.2.2 1.1 1.8.6 4.2-1.1 5.4h.2c-.1-.3-.9-.7-.7-.3z"/>
  <path fill="#5B4438" d="M288.9 250.4c.7.2 2.2-1.1 1.5-1.4-.1.7-.7 1.2-1.4 1.2-.3 0-.3.2-.1.2z"/>
  <path fill="#5B4438" d="M289.2 250.6c.7-.1-.5-.6-.4-.1l.5.5.2-.2c-.2-.2-.1-.4.2-.5 0-.4-.5 0-.4.2.8.2 1.4-1.7 1.6-2.5 0-.2-.2-.2-.2 0-.1.9-.6 1.8-1.3 2.4.1 0 .1.1.2.1.8-.8-1-.2-.3.5.6 0-.1-.5-.3-.7 0 .1 0 .1-.1.2.1 0 .2 0 .3.1.1-.1.1-.2.1-.3-.2 0-.4.3-.1.3z"/>
  <path fill="#5B4438" d="M288.8 250.4c1.5.1 2.6-3.2 1.9-3.5-.1 1.2-.3 3.1-1.8 3.2-.2.1-.2.4-.1.3z"/>
  <path fill="#5B4438" d="M291 247.5v.6h.2v-.7s-.1 0-.2.1c0 .2 0 .5-.1.8.1 0 .2.1.2.1.1-.3.1-.6.2-1-.1 0-.1 0-.3.1.1.2.1.6 0 .9.1 0 .2 0 .2.1.1-.3.2-.6.1-.9.1-.2-.2-.2-.3-.1 0 1.3-.9 2.3-1.6 3.3.6.6 2.4-2.8 1.8-3.8 0-.2-.3-.1-.2.1.4 1.4-.7 2.7-1.5 3.7l.2.2c.8-1 1.7-2.1 1.8-3.4-.2-.1-.3-.1-.5-.1.2.2-.2 1.3.2 1 .1-.2.3-1.4-.1-1.1-.5 1.2.2 1.6.1.1-.2-.8-.4 1.3 0 .6 0-.2.1-1.1-.2-.6zM288.5 242.7c-4.3-7.1-11.8-14.4-19-17 7.8 3.8 14.4 9.7 18.9 17.1 0 .1.2 0 .1-.1zM294 245.4c1.9 1.8 2.2 4.8.6 7 1.9-.9 1.5-5.6-.5-7.2-.1-.1-.3.1-.1.2zM301.1 246.9c1.3 2 1.1 4.6-.4 6.3-.1.1.1.3.2.2 1.5-1.4 2-5.8.2-6.5z"/>
  <path fill="#5B4438" d="M294.3 245.6c1.4.8 2.2 2.4 2.1 4 .7-.3.1-2.6-.2-3.4l-.2.2c1.1 1.1 1.8 2.6 1.8 4.1 0 .1.2.2.2 0 .3-1.2.6-2.5-.2-3.6l-.2.2c2.9 4.1 3 3.7.2-.1-.1-.1-.3 0-.2.2.7 1 .4 2.3.1 3.4h.2c.1-1.1-1.1-4.6-2-4.1.5 1 .6 2.1.4 3.2h.2c.1-1.7-.8-3.3-2.2-4.2 0-.2-.2.1 0 .1z"/>
  <g>
    <path fill="#5B4438" d="M289.9 250.6c-.3.9 1.1 1.5 1.5.6.1-.1-.1-.3-.2-.1-.6.8-1.1.1-1.3-.5.1-.1 0-.1 0 0z"/>
  </g>
  <g>
    <path fill="#5B4438" d="M292.5 252c.6.8 1.9.6 2.3-.3.1-.1-.1-.3-.2-.1-.9 1.5-2.2-.3-2.1.4z"/>
  </g>
  <g>
    <path fill="#5B4438" d="M295.4 252.2c.6.8 2.1.4 2.4-.5.1-.2-.2-.2-.2-.1-.6 1.8-2.2 0-2.2.6z"/>
  </g>
  <g>
    <path fill="#735745" d="M106.3 282.8c-.4 3.7 4.8 4.8 5.2.9.6-5.9-6.4-6.9-5.9-.4h5v-2.4h-5c-1.1 7.6 6.5 6.5 5-.6h-5c-.8 9.9 2.1 6.6 9.3 6.1-.4-1.6-.8-3.1-1.3-4.7-1.5.8-3.1 1.1-4.8 1.1.2 1.6.4 3.3.7 4.9 1.5-.6 3-.8 4.6-.8-.2-1.6-.4-3.3-.7-4.9-1.9.8-5.5 1.2-5.2 4 .2 1.2 1.2 2.3 2.5 2.2 4.3-1.2 11.7 1.2 14.4-2.6 1-4.3-4.9-6.9-7-2.8-3.4 7.2 10.9 6.8 5.6.5-1.9-1.4-4.2-.9-6 .4-4.4 7.3 13.4 3.2 17 4 2.1 0 4.9.4 6.5-1.3 1.7-1.7 1.1-5.1-1.5-5.7-1.8-.4-3.6 1.1-3.1 3.1.4 3.4 6.9 7 7.7 2.1.6-5.8-6.4-5.9-5 0 1.1-.8 2.1-1.6 3.2-2.4-.6-.1-.9-.4-1-1l-3.1 3.1c-.1 0-.1-.1-.2-.1-1.6-1.1-.7-1.8-.2-2.8-6.1 0-12.4.2-18.6.3.6 1.4 1.2 2.8 1.8 4.3-.3.2-.5.1-.1.4-.2-1.3-.3-2.6-.5-3.9 2.4-1.6 2.6 4.4-.3.7l2.4-1.8c-4 .3-8 .6-12 .8.2 1.6.4 3.3.7 4.9 9.7-2.7 4.2-8.6-3.3-5.2-2.6.9-2.3 4.9.7 4.9 12.9.1 10.2-10-1.3-5.1 1.1.8 2.1 1.6 3.2 2.4v-4.8c0-3.2-5-3.2-5 0v3.4h5v-2.8c0-3.2-5-3.2-5 0-1.1 6.3 5.7 6.6 5.2.3-1.6.4-3.1.8-4.7 1.3.3.5.3.7.3 1.3 1.6-.2 3.3-.4 4.9-.7.5-3.8-5.6-4.9-5.1-.6z"/>
  </g>
  <g>
    <path fill="#735745" d="M139.3 284.3c.8 1.4.9 3.7 2.7 4 1.8.6 3.6-1.1 3.2-3-.6-5.8-7.5-4.2-4.8 1.2 1.5-.6 3-1.3 4.6-1.9-.8-1.4-.9-3.7-2.7-4-1.5-.4-3.1.9-3.1 2.5-.2.3-.1.8.1 1.2z"/>
  </g>
  <g>
    <path fill="#735745" d="M139.7 283.6c1.4 2.8 5.7 8.2 7.1 2.3-.9-2.5-1.6-6.3-4.1-7.5-5.6-.3-1.7 6.2-.5 8.9 1.4-.8 2.9-1.7 4.3-2.5-1.2-1.4-2-4.1-4-4.8-2-.6-3.9 1.8-2.8 3.6z"/>
  </g>
  <g>
    <path fill="#735745" d="M138.3 278.4c.8 1.1 1.8 3.8-.1 4.1-5-.2-3.5 5 .5 5.6.2-1.6.4-3.3.7-4.9l-19.2-.6c-3.2-.1-3.2 4.9 0 5 4.7-.9 20.3 3.1 21.7-1.6.4-2.2-2.1-2.8-3.7-3.5-.4 1.6-.9 3.2-1.3 4.8 6.5 1.5 9.3-6.8 5.6-11.4-1.6-2.8-5.9-.3-4.2 2.5z"/>
  </g>
  <g>
    <path fill="#735745" d="M298.3 288.1c2.8-.2 5.7-.3 8.5-.5 4.7-1.4 2.2-5.1-1.4-6-.4 1.6-.8 3.1-1.3 4.7 3.7.4 7.5.6 11.2.4-.2-1.6-.4-3.3-.7-4.9-3 .7-6 .9-9.1.7v5c5.7-.9 13.8 1.8 18.5-1.7 1.2-1.8.3-4.1-1.7-4.8-1.7-.6-3.8 1.3-3.1 3.1 2.5 7.5 9.3 5.6 5.5-2-1.5.6-3 1.3-4.6 1.9.6 1.3 1.1 2.5 1.7 3.8.7-1.3 1.4-2.5 2.2-3.8-7.3-.6-14.7-.9-22-1.1-3.2-.1-3.2 4.9 0 5 7.4.1 14.7.5 22 1.1 4.4-.3 1.6-5.3.5-7.6-1.2-2.6-5.4-.7-4.6 1.9.4 1.2.8 2.5 1.2 3.7l4.2-2.4c-.5-.6-1-1.2-1.3-1.9l-3.1 3.1c.1 0 .1 0 .2.1-.4-.2-.7-.4-1.1-.6 0 .1.1.1.1.2-.4-.7-.7-1.3-.5-2.1l.9-.9c.2-.1.4 0-.1 0h-2.9c-4.1 0-8 .1-12.1.1-3.2 0-3.2 4.8 0 5 3.5.2 7-.1 10.4-.9 2.7-.6 2.2-5-.7-4.9-3.7.1-7.5 0-11.2-.4-2.4-.3-3.4 3.6-1.3 4.7.9.4 1.8.9 2.7 1.3.4-1.6.8-3.1 1.3-4.7-2.8.2-5.7.3-8.5.5-3 0-3 5 .2 4.9z"/>
  </g>
  <g>
    <path fill="#FFD23E" d="M306.1 249.3c1.3.5 14 4.9 11.6 1.8-1.6.5-14.4-4.9-11.6-1.8z"/>
  </g>
  <g>
    <path fill="#FFD23E" d="M308.6 254.7c1.4-.6 10.7 3.3 8.2.5-1.1-.4-11-3.2-8.2-.5z"/>
  </g>
  <g>
    <path fill="#FFD23E" d="M312.2 252.1c-1.1 1.2.9 2.6 1.7 1.2.7-1.1-.8-2.5-1.8-1.7-1.2.8-.4 2.6 1 2.4 1.2-.2 1.8-2.2.6-2.8-2.4-.8-1.9 4.4.4 3.1 1.9-.9.6-5.1-.9-2.4-.4 1-.6 3.1 1.1 2.8 3.3-1.8-.5-6-1.8-1.7.3 0 .7.1 1 .1-.8-2.6-2.8-3.5-2.6 0 1.8 2.8 2-4.8-.3-2.3-1.7 2.9 2.4 4.3 1.4.7-.9-2.1-2.7-1-1.9.9 1.3 3.9 3.5.1.6-1.8-1.9-.7-1.1 3-.2 3.7 2.7.8-.3-5.6-1.4-2.6-.3 2.8 2.1 3 1.2.2 0-.1 0-.1-.1.2-.1 0-.2.1-.3.1-.1-.1-.1-.1-.1 0l.2.2c.3.4.3.7.3 1.2.3-.1.7-.2 1-.3-.5-.6-.7-1.4-.5-2.2-.3.1-.7.2-1 .3.5.5.9 1 1.2 1.6.1.2 0 .1 0 0l.2-.2h.3s0-.1-.1-.1c-.2-.5-.3-1-.3-1.6 0 .1-.1.2-.1.2-.1 0-.2.1-.3.1-.1 0-.2-.2-.1 0 .1.1.2.3.3.4 0 .1.1.4.1.6.2-.1.5-.2.6 0v-.1c0-.3-.1-.6.1-.8 0-.1 0-.2.1-.3.1-.2-.2.2-.3.2-.1 0-.3-.1-.4-.1-.1-.1-.1-.2-.1-.1 0 .6 0 1.1-.2 1.6.4.1.8.1 1.2.2v-.7c.2 0 .3-.1.2-.2.1 0 .1-.2.1-.1-.1.1-.2.1-.3.2l.2-.1c-.2.1-.3.1-.4.1h.1c-.2-.1-.4-.4-.2 0 .9 2.4 1.9 2.9 2.6.3-.1-.1 0 0 0 0 0 .4 0 1-.5 1.2 0-.1.3.1.3.1 0-.4 0-1.1.2-1.4-.1-.2.2-.2-.1-.1h-.4c0 .1 0 .8-.3 1-.1.1-.1 0 0 0s0 .1 0 0c.1.1 0-.1-.1-.1-.2-.2 0-.7-.1-.9-.2.2-.3.2-.5.1.1 0 0 .4-.1.4 0 .1-.1.1-.1.1.1 0 0 0 0 0l-.1-.1c0 .1 0 0 0 0 0 .1 0 0 0 0 0 .1.1-.1 0 0 .1-.1 0-.1 0 0l.1-.1s-.1.1 0 0l.1.1c-.1-.1 0 0 0 0v-.1c.1-.1.2.1.2.1-.1-.1 0 0 0 0v.1c-.1.1-.1.2 0 .1.5-.4-.1-1.6-.7-.9z"/>
  </g>
  <g>
    <path fill="#FFD23E" d="M305.9 249.3c.9 1.5 1.1 3.6 2.4 4.7 2.5.3.8-3.2 0-4.2-.2.3-.5.6-.7.9.8.3 1.6.7 2.3 1.2.2-.4.3-.8.5-1.1-.8-.6-2.3-.1-1.3.9.9.9 1.9-.6.7-1.1-.2.4-.3.8-.5 1.1 4.9 1.4-2.4-4.4-2-1.3.5.7 1.1 2.1 1.2 2.5 0-.2.7 0 .5-.1-.6-.9-2.2-7.1-3.1-3.5z"/>
  </g>
  <g>
    <path fill="#FFD23E" d="M314.6 252.6c-.9 1.7 1.9 3.4 2 .9.1-2.1-2.4-1.4-2.3.4.2 2.2 2.8 1.1 2.5-.7-.1-2.1-1.9-2-1.9.1.1 3.5 3.8 1.2 2.4-1.2-1.2-1.1-1.4 1.1-1.5 1.9-.1.7-.1 1.5.8 1.7 1.3-.1 2-3.8.4-3.7-.4.1-.5.5-.4.9v.8s-.1.6-.3.7c.1-.1 0 0 0 0s0 .1-.1.1l.1-.1c.3 0 .5 0 .5.3-.1-.4.1-1.3.3-2.1-.4 0-.8.1-1.1.1-.1-.1 0 0 0 0v.9c0 .1-.1.2-.1.3-.1.1.1 0 0 0h.1c-.1 0-.1 0 0 0h.2v.1l-.1-.1c-.1-.1 0 0 0 0l-.1-.3v-.1-.5c0-.2 0 .1 0 0s.2-.6.1-.4c0 0 0-.3.1-.2h-1.1s.1.3.2.3c0 0 0-.1 0 0s0 .2.1.3v1s.1-.1 0 0v.1c-.1.1 0 0 0 0l-.1.1s.1-.1 0 0c-.1 0 .1 0 0 0h-.1s.1 0 0 0h.2s-.1 0 0 0v0c0-.1 0 .1 0 0s0 .1 0 0-.1-.1.1-.3c0-.1 0 .1 0 0 0 0 0-.2.1-.2l.1-.1s-.1.1 0 0c0 0 .1 0 .1-.1 0 0-.1.1-.2.1h-.2l-.1-.1v.1-.1.4c0 .1 0 .1 0 0 0 .1.1-.1.1-.1h.5s-.1-.1 0 0v-.1-.3.1c.6-.9-1-1.8-1.3-.9z"/>
  </g>
  <g>
    <path fill="#FFD23E" d="M318.2 252.7c.1-.1.1-.3.2-.4-.4 0-.8-.1-1.1-.1.1.2.1 1 .1 1 0 .9-1.9 3.6.2 3 2.6-1.8-.1-7.1-.4-3.6 0 0 .1.1 0 .1 0 .2.1.7.1 1.1 0-.1 0 0 0 0-.1.2 0 .4-.2.6 0-.2.1.1-.1.1-.1.1-.2.3-.2.4.1-.1 0 .1-.1.1l-.2.2c.3.3.7.5 1 .8.6-.9 2.1-5.7-.2-4.4-.7.7.1 1.9.9 1.1z"/>
  </g>
  <g>
    <path fill="#FFD23E" d="M305.9 248.4c-.1 0-.3 0-.2.2 0 .2.2 0 .3 0 0-.3-.4-.3-.3-.1 0 .1.1.2.1.4.1 0 .1-.1.2-.1-.4-.7-.5-.2-.3.3.4.1 0-.5 0-.6l-.2.2c.1.1.8.2.5-.1-.1-.1-.3-.1-.4-.2v.2c.9.2.8-.1 0-.2v.2h.5v-.2c-.1 0-.3 0-.4-.1v.2c.1 0 .3 0 .4.1 0-.1.1-.2.1-.2-1.7-.5.1 1.3.2 2.1.6 0-.6-1.7-.8-2.2 0 .1-.1.1-.1.2.2 0 .5.1.7.1.4-.2-.3-.3-.5-.3-.3.2.3.3.5.3.5-.2-.4-.4-.6-.2-.3.2.3.3.5.3v-.2c-.2.1-.5-.2-.6 0 0 .1 0 .1.1.1.1.1.3.1.4.2 0-.1 0-.2.1-.2-1.2-.6-.2 1.3-.2.5 0-.2-.1-.3-.1-.5-.1 0-.2 0-.2.1.2.6.5.6.3-.1-.1 0-.2.1-.2.1 0 .1.1.2.1.2.4.3 0-.6.1-.5l-.2.2c.2.1.5-.1.2-.2z"/>
  </g>
  <g>
    <path fill="#545452" d="M317.7 252.2c.1.1.1.1 0 0l.1.1c.3.5.5.9.4 1.5 0 .1 0 .3-.1.4 0 .1-.1.2-.1.2-.2.2-.4.6-.7.8-.6.6.3 1.5.9.9 3.2-2.4-1.1-7.7-.5-3.9z"/>
  </g>
  <g>
    <path fill="#686867" d="M317.1 256.2c1.2-1.2 1.5-3.4.6-4.8.5 1.5.3 3.2-.6 4.5.8-1 1.5-3 .6-4.4 0-.1 0-.2-.1-.2.2.4.3-.5-.1-.4-.2.1-.1.5 0 .6.5 1.3.4 2.6-.5 3.7-.4.2-.3 1.4.1 1 1.5-1.1 1.3-3.4.8-5-.2-.2-.3 0-.3.2.7 1.5.7 3.4-.6 4.6-.2.2 0 .3.1.2z"/>
  </g>
  <g>
    <path fill="#686867" d="M317.3 251.3c1.9 3.4-2.1 5.1.3 5.2.6-.4-.7-.1-.7-.3 1.2-1.3 1.3-3.3.6-4.9 0-.2-.2-.2-.2 0z"/>
  </g>
  <g>
    <path fill="#686867" d="M316.9 256.4c1.1.4 1.4-.4.1-.3-.1-.3-.4 0-.3.2.8.6 2.1.1.2 0-.1 0-.1-.1-.2-.1l.2.2h.7c0-.1.1-.1.1-.2-.4.1-.7-.2-1 0l.2.2z"/>
  </g>
  <g>
    <path fill="#686867" d="M316.9 256.2c.2-.2.3-.4.5-.6v-.2c-.3-.2-.5.5-.7.6v.2h.2z"/>
  </g>
  <g>
    <path fill="#686867" d="M317.5 251.3c.1 0 .1 0 0 0 .3.1.7.3.9.1 0-.4-1.5-.5-1 0l.1-.1z"/>
  </g>
  <g>
    <path fill="#686867" d="M317.5 251.3c.3 0 .6 0 .9.2v-.2h-.4v.2c.2.1.5-.1.3-.2s-.7.1-.3.2c1.3.1-.4-.7-.8-.3-.1 0 0 .1 0 .2.2-.1.3-.1.3-.1z"/>
  </g>
  <g>
    <path fill="#686867" d="M318.1 252.1c.2 0 .8 0 .4-.2-.2 0-.8 0-.4.2z"/>
  </g>
  <g>
    <path fill="#686867" d="M318.2 253.3c.2 0 .4-.1.6.1H319.1v-.2c-.3-.1-1.1-.4-.9.1z"/>
  </g>
  <g>
    <path fill="#686867" d="M318.1 254.4c.4 0 .7.5 1 .2-.1-.4-.8-.5-1.1-.5 0 .2 0 .3.1.3z"/>
  </g>
  <g>
    <path fill="#686867" d="M317.8 255.3c.3.1.5.3.8.3v-.2c-.3-.1-.5-.3-.8-.3-.1.1-.1.2 0 .2z"/>
  </g>
  <g>
    <path fill="#DD8A8A" d="M318.6 256.4c1.5.5 1.6-.9 1.8-2.1.1-1 .5-2.9-1.2-2.5-.6.3 1.3 0 1.1.9-.1 1.2.2 4-1.7 3.5-.1 0-.2.2 0 .2z"/>
  </g>
  <g>
    <path fill="#DD8A8A" d="M319.7 252.5c0 .1.1.7.3.4 0-.1-.2-.8-.3-.4-.2.2.2.5.4.4.2-.2-.1-.9-.2-.4 0 .2.2.7.4.5.3-.2.1-.8-.3-.6-.4.2.2.7.4.4 0-.3-.7-.8-.7-.3-.1-.1 0 0 0 0 .8 0-.7-.8-.3-.2.1.1.7.2.6-.1l-.3-.3c0 .1 0 .2-.1.2.1 0 .2.1.3.1 0-.1 0-.2.1-.2-.2 0-1-.3-.8.1.6 1.2.4 3.2-.6 4 0 .1.1.1.1.2.6-1 1.6-3 .9-3.8 0 .1 0 .1.1.2 0 .1.1.2.1.3.3.3.2-.5 0-.5-.4-.3-.1 1.3.2.9.1-.1.4-.8 0-.7-.4.6.3 1 .3.2-.3-.3-.3.5-.3.7.4.4.4-1.1 0-.7-.4 2.4.8.3 0 .3-.2.2-.3 1.2.1.9.1-.2 0-1.1-.3-.8-.2.3-.2.6-.1 1 .3.3.3-.7.2-.9-.3-.3-.3.7-.3.9.3.3.3-.7.2-.9-.4-.4-.5 1.5-.1 1.1.2-.3.2-.7.1-1.1-.5-.3-.5 1.6 0 1.3.1-.2.2-.4.2-.6-.2-.6-.9 1-.4.8.2-.2.3-.5.3-.9-.2-.6-.8 1-.3.9.2-.2.4-.9 0-.9-.3.1-.4 1.1 0 .8.2-.1.7-.9.2-.8-.3.4.2 1.4.2.4-.3-.3-.3.6-.3.8.4.5.2-.9-.1-.5-.2.2 0 .8.2.5.1-.2-.2-.5-.3-.3-.2.2 0 .7.2.5.3-.8-.8-.6-.4.1h.2c.6-.8-.9-.8-.3.2.4.2.7-1 0-.9-.7.3.1 1.3.5.6.2-.8-1-.3-.4.2.4.3.3-.9 0-.6-1 .6.9 1.2.2.2-.5-.2-.5.8 0 .6.2-.1.3-.4.1-.5-.8-.5-.7 1-.2.6.2-.3-.1-.6-.4-.5-.8.5.6 1.3.4.4-.3-.3-.6 0-.7.3.2.7 1.4-.5 0 0-.3.4.8.1.4-.1-.2-.1-.3-.1-.5 0 0 .1.1.2.1.2.6-.3.4-1.2.1-.4 0 .8.8-1.1.3-.8-.1.4.3.5.2.1-.1 0-.2 0-.2-.1 0 .3-.1.5-.2.7.1 0 .1.1.2.1 0-.1.1-.2.1-.3-.1 0-.2-.1-.2-.1-.3.4-.6.8.1.7v-.2h-.2c0 .1 0 .2.1.2.1-.1.2-.1.4-.1 0-.1-.1-.1-.1-.2-.1.1-.1.1-.2 0 0 .1.1.1.1.2 0 0 0-.1.1-.1.1-.1.1-.1 0-.1v-.2c.1-.1.2 0 .1 0 0 0 .1 0 .1-.1-.2-.1-.2-.2 0-.3-.1.1-.1.1.1 0-.2.1-.1-.2 0-.3h-.2c.1.1.1.2 0 .3h.2c-.1-.1-.1-.1-.1-.2.1 0 .1 0 0 .1-.4-.6.5-.4-.1 0h.2c-.1-.2-.2-.3-.1-.5l-.1.1c0 .1.1.1.1.2h.2v-.2h-.2c.1.1.1.1.1.2h.2v-.2h-.2.2v-.4h-.2c.1.1.1.2 0 .3h.2c0-.2 0-.5.1-.7h-.2v.1c.1 0 .1.1.2.1 0-.2 0-.4.1-.5-.1 0-.2-.1-.2-.1 0 .2-.2.4-.3.6h.2c-.1-.2-.1-.4.1-.5-.1 0-.1 0-.2-.1.1.2 0 .4-.1.6.1 0 .1 0 .2.1 0-.2 0-.5.2-.6-.1 0-.1-.1-.2-.1 0 .3-.1.5-.3.7.1 0 .1.1.2.1 0-.2.1-.4.3-.6-.1 0-.1-.1-.2-.1 0 .2 0 .3-.1.4h.2c-.1-.4-.1-.8 0-1.1h-.2c.1.3.1.6 0 .9h.2c-.1-.3-.1-.6.1-.9h-.2c.1.3.1.5 0 .8h.2c0-.3 0-.5.1-.7h-.2c.1.3.1.5 0 .8h.2c-.1-.3-.1-.5.1-.8h-.2c.1.2.1.4.1.6h.2c-.1-.2-.1-.5 0-.7h-.2c.1.2.1.4 0 .6h.2c-.1-.3-.1-.7 0-1h-.2c.1.2 0 .4 0 .6h.2c0-.2 0-.4.1-.6h-.2c0 .1 0 .2-.1.2.1 0 .1 0 .2.1v-.4c-.1 0-.2 0-.2-.1 0 .1 0 .3-.1.4h.2c-.1-.2-.2-.5-.2-.7-.1 0-.2 0-.2.1.1.1.1.2.1.4h.2c-.1-.4-.6-1.1-.5-.2.4 1.2-.4 2.4-1 3.5 1.1.7 1.7-3.4.9-4.3 0 .1-.1.1-.1.2.2 0 1.1.3.8-.1-.4-.2-.7 0-.2.2 0-.1 0-.1.1-.2-.1 0-.2 0-.3-.1v1c0-.1.1-.2.1-.2l-.1-.1c0 .1-.1.1-.1.2.2 0 .3.1.4.3 0 0 0-.1.1-.1l-.1.2h.2c-.1-.1-.1-.2-.1-.3-.1 0-.2 0-.2.1.1.1.1.2 0 .2h.2c-.1 0-.1-.1-.1-.2-.2-.1-.2 0-.3-.1.1.1.1.2.1.4h.2c0-.1-.1-.8-.3-.4z"/>
  </g>
  <g>
    <path fill="#DD8A8A" d="M320.2 252.8c-.1.7-.4 1.5-.7 2.1.1 0 .2.1.2.1-.1-1.2-.5.8.1 1.1.1.1.3-.1.2-.2-.3-.3-.3-.8-.2-1.3-.1 0-.2 0-.2-.1.2 1.2.9-1.3.9-1.8-.1 0-.3-.1-.3.1z"/>
  </g>
  <g>
    <path fill="#DD8A8A" d="M319.2 252.1c1.9-.4 1.4 3.7.3 4.1-.2 0-.2.2 0 .2 1.5-.6 1.8-4.8-.4-4.5-.1-.1 0 .2.1.2z"/>
  </g>
  <g>
    <path fill="#DD8A8A" d="M320.2 253.2c.1.2.1.5 0 .8.1 0 .2 0 .2.1.2-1.8-.5-1-.1.1.5 0 .2-1.6-.1-1z"/>
  </g>
  <g>
    <path fill="#E2B538" d="M307 250c2.8.4 6.6 1.8 8.9 1.5-2.7-.3-6.8-1.8-8.9-1.5z"/>
  </g>
  <g>
    <path fill="#E2B538" d="M307.8 251.9c2.3.3 6.2 1.7 7.8 1.2-2.6-.3-5.2-.8-7.8-1.4-.1-.1-.2.2 0 .2z"/>
  </g>
  <g>
    <path fill="#E2B538" d="M308.6 253.5c2.3.2 5.5 1.3 7.2 1-2.3-.1-5.6-1.4-7.2-1z"/>
  </g>
  <g>
    <path fill="#735745" d="M301 241.5c2.8 5 5.1 10.4 6.7 15.9-.7-4.8-4-11.2-6.6-16.1.1-.1-.2 0-.1.2z"/>
  </g>
  <g>
    <path fill="#735745" d="M302.2 242.7c2.9 5.4 5 13.2 7 18-1.8-5.8-4-13.7-7-18z"/>
  </g>
  <g>
    <path fill="#735745" d="M303 243.6c2.3 5.2 4.2 10.4 5.9 15.8-.8-4.1-3.8-12.4-5.9-15.8z"/>
  </g>
  <g>
    <path fill="#735745" d="M303.7 245.3c1.8 3.4 3.2 7 4.1 10.8.1-2.6-2.6-8.8-4.1-10.8z"/>
  </g>
  <g>
    <path fill="#735745" d="M302.4 242c2 4.9 5.2 10.4 5.3 15.5 2.4 2.4-4.3-15.6-5.3-15.5z"/>
  </g>
  <g>
    <path fill="#FCF9D5" d="M150.9 188.8c-3.6 6.5 7.3 7.4 4.3.7-1.5-2-4.6-1.5-5.5.9-.8 7.3 9.8 3 4.6-2.1-.4 1.1-.9 2.1-1.3 3.2 2.1.3 4.2.1 6.1-.3 3.5-1.5.8-5.2-2.2-5-3.2-1.2-8.2 2.9-3.7 5 4.7.5 5.7-7.2 2.5-9.5-6-3.4-4.8 9.8.3 6.7 2-2.4-2-4.7-4.1-5-10-2.4-6.6 7.3 1.1 5.4.9-.2 1.5-1.2 1.3-2.1-2-4.3-8.5 1.2-9 4.4.1 5.1 7.5 1.2 6.9-2.5-.1-2.8-4.2-2.1-3.8.2 0 .1-.2.5 0 .2-.1.1-.2.3-.3.4.2-.3-.1.1-.1.1-.2.3.2-.1-.1.1-.1 0-.5.2-.1.1-.1 0-.8.1-.3.1h-.3l1.8 2.4c0-.1.2-.8.1-.5.3-.7 1.1-1.5 1.3-1.7.7-.6 1.2-.7 2-.9.1 0 .6-.1.2 0-.2-1.2-.3-2.5-.5-3.7-.2 0-.3.1-.5.1h-.7c.4 0-.2-.1-.3-.1-.1 0-.6-.3-.5-.2-.2 0-.9-.6-.7-.4-.3-.3-.3-.1.1.6-.1.6-.6 1.5-1.3 1.5 1.2 0 3.2 0 4 .5.1.1.8.7.7.4.2.2.4.4.6.7l2.7-2.7-.3-.3c.1.1.1.1 0 0 0-.1-.3-.6-.2-.3-.1-.2-.1-.4-.2-.5-.1-.4 0 .1 0-.2v-.4c0 .2 0 .2 0 0-.3.6-1.6 1.2-2 .4.1.1.5.8.3.4.1.3.2.5.2.8-.1-.3 0 .6 0 .7 0-.4 0 .2-.1.3 0 .1-.2.6-.1.3-.1.2-.2.3-.2.5-.2.4 0-.2-.1.2.4-.4 2.2 0 1.8 1.7 0-.1-.4.8-.7.7 0 0 .5-.1.6-.1h1.5c-.3 0 .4.1.3.1.1 0 .9.1.4.1-.5-.4-.4-1-.4-1.6 1.7-1.2.7-.8-.2-.7-1.2.1-2.8.1-4 0-1.9-.2-2.4 2.8-1.1 3.4.1.2.1.2 0 0v.2c0-.2.1-.4-.1-.2.1-.3.1-.4.6-.5.2 0 .6.1.3 0 1.1.2.5 1.8-.4 1.1.2.1.2.1 0 0-.1-.2-.2-.3-.2-.5s.3-.5.1-.3c.5-.7 1.6-.8 1.9.2v-.1c0 .1 0 .1 0 0s0-.1 0 0c1.6-2-1.6-4.7-3-2.4z"/>
  </g>
  <g>
    <path fill="#FCF9D5" d="M162.7 160.3c-.1 0-.2.1-.3.1-.3.1.5 0 .1 0h-.1c.5.1-.3 0-.3-.1l.2.1c-.1 0-.2-.1-.2-.1-.3-.2.2.2 0 0-.1-.1-.1-.2-.2-.2-.2-.1.2.2.1.2l-.1-.1c0-.1-.2-.2-.2-.3 0 0 .1.4.1.1v-.1-.1c-.1-.1 0 .5 0 .3 0-.6-.1.1 0-.2 0-.1.1-.2.1-.3.1-.3-.1.2-.1.2.1-.2.1-.3.3-.5.2-.3-.3.3 0 0l.2-.2c.3-.3-.3.2 0 0 .1-.1.2-.1.3-.2l-.2.1s.1 0 .2-.1c.1 0 .8-.2.3-.1-.3 0-.1 0 0 0 .2-.1 1.1.1.3 0 .2.1 1.1.3.5.1.3.1.5.3.8.5l.4.4c.1.1-.1-.1-.1-.2 0 .1.1.2.2.2.1.1.1.2.2.3 0 .1.2.5.1.2s.2.6.2.7c.1.1.1.9.1.4-.4 1.9 3.7 3.1 3.8.1.2-8.5-13.9-8.2-10.3.6 3.2 5.1 9.9-.9 3.6-1.8z"/>
  </g>
  <g>
    <path fill="#FCF9D5" d="M162.9 162.7c-12 3.8-3 16.8 5.1 7.5-1-.6-2.1-1.2-3.1-1.8-2.1 12.5 17.4 9.9 10.4-.8-.6 1-1.2 2.1-1.8 3.1 12.8 4.8 15.7-12 4.8-9l2.6 2.6c6.2-13.9-10.9-16-14.5-3.4l2.1-.9c-8.9-4.2-10.2-.8-3.1 5.2v-2.7c-1.5 2-8.7 6.4-3.6 8 6.8-1.7 10.7-8.4 16.2-12.6-1-.3-2.1-.6-3.1-.8.4 1.8-.1 5.5 2.8 4.9 2.7-.8 1.1-9.6-2.3-6.7-4.6 3.6-8.2 9.1-13.5 11.4.4 1.1.9 2.1 1.3 3.2 5.7-5.4 7.6-5.9.8-11.6-.6 1-1.2 2.1-1.8 3.1 11.8 6.1 5.4-4.7 14.1-5.5 3.2.2 2.4 4.4 1.4 6.3-.8 1.6.9 3.6 2.6 2.6.4-.3.9-.1 1 .4 0 3.3-4.7 2.4-6.7 1.7-1.8-.5-3.2 1.8-1.8 3.1 1.2 1.2 0 2.9-1.5 2.9-1.9 0-3-2.1-2.7-3.8.3-1.8-1.7-3.2-3.1-1.8-.9.8-2.9 3-4.4 2-1.6-1.2 2.1-2.9 2.8-3.2 2.2-.7 1.5-4.1-1-3.4z"/>
  </g>
  <g>
    <path fill="#FCF9D5" d="M174.8 156.8c-6.9-.5-6.1 10.3.6 7 2.7-1.7 4.5-7.9-.1-8.1-5.8 1.1-1.8 14.7 3.6 7.9 1-1.4 1.6-3.6-.2-4.7-6.3-2.5-5.8 10.5-.1 10.1 8.3-1.5-3.1-12.4-4.8-4.6-.1 3.4 5 7.3 7.5 3.7 2.3-5-6.6-9.3-10.2-6-2.7 2-1.8 6.5 1.7 7.1 3.2.9 7-2.6 4.9-5.8-3.1-5.1-11.7-.4-8 4.8 2.2 3.1 7.4 1 6.6-2.7-2.1-6.5-11.2-.3-8.1 4.8 1.6 3.4 7.4 2.4 7.1-1.6-2-7.6-10.5.3-5.7 5 6.3 4.4 9.3-9 1.4-6.7-3.1 1.1-1.6 7.1 1.5 4.7 2.2-2.7 9.7-11 6.6-14.1-3.2-2.5-9.5 3-5.4 5.5.9.2 2.2-.3 2.3-1.3.1-.7.5-1.3 1.1-1l-.9-2.1c-1.4 3.9-3.7 7.4-6.5 10.3 1 .1 2 .3 2.9.4.2.6.1.9-.4 1s.1.1-.2 0c-.1 0 0 0 0 0 .1 0 0 .1 0 0s-.1.3 0 .1l-.2.4s-.3.2-.1.1c.1-.1.1.1 0 0h-.1.1c.2.2.4.2.5.3-.2-.4-.4-1.5-.2-1.7l.1-.1.1-.1h.1c-.1 0-.1.1-.2 0-.4.1-.5-.5-.5-.5 0 .1 0 .1 0 0 .1-.1.1-.2.2-.3 0 0-.2.2 0 0h-.3l.1.1-.1-.1c-.5-.8.3-1.8 1-2.1h.2-.1s-.1-.1-.1-.2c-.1-.1 0-.2 0 0v-.1s.2-.4 0 0c0-.1.1-.1.1-.1.2-.1-.1.1-.1.1s.1-.1.2-.1c.2.1-.3-.1 0 0s-.2 0 0 0c0 0-.3-.2-.1-.1.1.1-.1-.2-.1-.1-.2-1.4 1.9-.9 1.9-.5.1.2 0 .1 0 .1v-.2.1c.2-.2-.3.1-.1 0-.3.2 0 0-.3.1-.1 0-.4.1 0 0h-.6c.2 0 .1 0 0 0-.3-.1-.1 0 0 0-.2 0-.4-.2-.2-.1 0 0-.3-.4-.1 0 .1 0-.3-.2-.1-.1.1.1 0 0 0-.1 0 0 0 .2 0 0v-.1c-.2.2.2-.2 0 0 1-1.6 3.9.7 4.8 1.3 0-.3.3-.5.5-.7.2-.2.2.2.1-.1-.2-.4-.8-.7-1-1.1v.1c-.3.5-.8.7-.8.6 0 .1 1.2.5 1 .6l.3.3-.1-.1c.1-.2 0-.3.1-.5s.7-.4.3-.3h.4c-.7-.7-1-2.6-.6-3.6 0 .1-.1.2-.3.2-.7.6-1.5-.1-1.8-.8 0 .1 0 .1.1.2.1-1.2-.3.2-.5.3.2 0 .2.1.5.1l.3.3c0-.1-.1-.1-.1-.2.1.1.1.1 0 0 0 0-.1-.4-.1-.2-.1-.6 0-1.9.2-2.7.1-.8-1.2 1.2-1.6.4-.1-.1-.7-.7-.4-.8 0 0-.2.5-.1.5-.3.6-.5 1.6-1.2 1.7.1 0 .1 0 0 0h.1c.3 0 .1.1.3.2.1.1 0 .2 0 0-.1.4.1-.2 0 0-.1.1 0-.3 0 0 0-.1.2-.2.1-.1l.2-.1c.3-.1-.3.1.2-.1 3 .4 4-3.3.9-3.7z"/>
  </g>
  <g>
    <path fill="#FFF" d="M151.8 189c2.4 0 2.4-3.8 0-3.8-2.4.1-2.4 3.8 0 3.8z"/>
  </g>
  <g>
    <path fill="#FFF" d="M153.5 186.8c-.5-1.7-2-2.1-3.4-2.6.3 0 .3.1.1 0-.1 0-.3-.2 0 0 .1.1.1.1.1 0-.1-.1-.1 0 .1.2-.4.9-.7 1.8-1.1 2.8.1 0 .2 0 .2-.1 0 0 .4-.1.1 0-.3 0 0 0 0 0h.5c.3 0-.3-.1-.1 0 .3 0 .6.1.7.2-.5-.2.2.2.4.3.3.2 0 .1 0 0 0 0 .8.9.4.4 1.3 2.2 4.4.1 3.2-1.9v-.2c0-.2-.1.3 0 0 0 .1-.1.1-.1.2.3-.2-.2.2 0 .1.1-.1 0-.1-.2.1.3-.2-.3.1-.1 0s.3 0-.1 0c0 0-.5-.1-.2 0-.3-.1-.5-.2-.7-.5 0-.1-.2-.4-.1-.1v-.3c0-.2 0-.2 0 0 0-.1.1-.2.1-.2-.3.3.3-.3 0 0-.2.2 0 .2 0 0-2.5 1.4-.6 4 .9 3.9.1 0 1.3.8.9.6l.1.1c-1.1-1 .6-2.3 1-2.4.9.1-.9-.1-1.1-.3-3.4-2.8-6.5 4.3-3.2 6 4.5 1.3 3.3-6.2-.6-3.6-2.5 2.7 2.6 5.5 3.6 2 1.1-6.1-10.2-5.2-7.4.3 3.7 2.9 5.6-4.2.7-3.3-2.9.6-2 5.1 1 4 2.7-.8.9-4.6-1.5-3.5l2.3 2.3c-.3 1-1.3 1.1-2 .5.1-1 .3-2 .4-2.9l1.8.3c.2.6.3 1.2.5 1.8-.2.5 0 .2 0 .1.1-.2-.3.3 0 0 .1-.1.3-.3 0 0 .1 0 .2-.1.2-.1.3-.2-.4.1 0 0 .1 0 .2 0 .2-.1-.5 0-.2 0 0 0 .3 0-.3-.1-.1 0 .1 0 .2.1.3.1-.1 0-.3-.2-.1 0 .3.2-.1 0 0-.1l.2.2c.1.1-.2-.4 0-.1 0 .1.2.4.1.1-.1-.2-.1-.2 0 0v-.3.1c-.1-1.1 1.1-1.4 2-1.3.2.9.5 1.7.7 2.6-.3.2-.6.3-.8.5-.1 0-.2 0-.3.1l-.9-.3c-.2-.4-.5-.8-.7-1.3l.3-.9 2.4-.3c.3.3.5.7.4 1 .2-.3.7-1.7.9-2.2-.9.4-1.8.7-2.8 1.1 6.2 4.2 9.1-3 2-4.5.1 1.1.3 2.3.4 3.4 7.2-5.4-5.7-9.5-3.6-1 1.1-.5 2.3-1 3.4-1.4-4.1-5.9-12.7-.2-4.6 2.1.2 0 .5.3.1 0l-.1-.1c.1.2.1.1-.1-.2.3.9 1.3 1.6 2.3 1.3.6-.7 1.3-1.7 1-2.7z"/>
  </g>
  <g>
    <path fill="#FFF" d="M163.2 166.9c-5.8-1.9-3.8 7.7.9 4 1.7-1.9 0-5-2.5-4.8-6.8 1.2-.7 9.3 2.9 3.9 2.7-6.5-8.9-6.2-6.1.2 3 5.4 11.3-1.9 5.8-5.4-10.4-2.2-3.3 13.8 4.3 4.2 1.3-2.8-2.8-3.4-3.1-1.9 0 .1-.1.1-.1.2l-.6.6c-.1 0-.1.1-.2.1.6-.5-.5.3-.6.3.5-.1 0-.2-.1 0-.1 0-.3.1-.4.1.2 0 .3 0 .5-.1h-.9c.2 0 .3 0 .5.1-.1 0-.3 0-.4-.1-.2 0-.3-.1.1.1-.1-.1-.2-.1-.3-.1-.3-.2.3.3 0 0-.1-.1-.3-.3 0 .1 0-.1-.1-.2-.2-.2-.2-.3.1.4 0 .1 0-.1-.1-.2-.1-.4 0 .2 0 .3.1.5v-.5c0 .2 0 .3-.1.5 0-.1 0-.2.1-.2 0-.2-.2.4-.1.1 0-.1.1-.1.1-.2.1-.2-.3.3-.1.1l.1-.1c-.3.3-.3.2-.1.1.3-.2-.2 0-.2.1 0 0 .2-.1.3-.1-.2 0-.3 0-.5.1h.4c-.2 0-.3 0-.5-.1 0 0 .2.1.3.1l-.2-.1s.1 0 .1.1c.1.1.1 0-.2-.2 0 .1.1.1.2.2s-.2-.4-.1-.1c0 .1.2.3 0 0-.1-.3 0 0 0 0v.3c0-.2 0-.3-.1-.5v.5c0-.2 0-.3.1-.5 0 .1-.1.2-.1.4.1-.5.2-.2 0-.1 0 .1-.3.4-.1.1.2-.3-.1 0-.1.1l-.1.1c.1-.1.2-.1.2-.2l-.3.2c.1 0 .2-.1.3-.1-.1 0-.1 0-.2.1-.1 0-.2.1-.4.1.2 0 .3 0 .5-.1h-.6c.2 0 .3 0 .5.1-.2.1-.7-.5-.2 0-.1 0-.1-.1-.2-.1-.2-.1.4.3.1.1-.3-.2.1.1.1.2l-.1-.2c.2.2.1.5.1 0 0 .2 0 .3.1.5v-.5c0 .2 0 .3-.1.5 0-.2.1-.6 0-.2-.1.3 0 .1 0 0 .1-.2.2-.1-.1.1l.1-.1c.1-.2-.4.3-.2.1.3-.1-.5.1-.2.1.1 0 .2 0 .2-.1-.2 0-.3 0-.5.1h.4c-.2 0-.3 0-.5-.1.3-.1.5.3.1-.1.1 0 .1.1.2.1.3.2-.2-.2-.1-.1l.1.1c.2.2-.3-.4-.1-.1.2.2-.1-.5-.1-.2 0 .1 0 .2.1.2 0-.2 0-.3-.1-.5v.3c0-.2 0-.3.1-.5 0 .1 0 .2-.1.2-.1.3.1-.2.1-.2l-.1.2c.1 0 .3-.4.1-.2-.1.2-.3 0 .1-.1-.1 0-.1.1-.2.1-.2.1.5-.1.2-.1-.1 0-.2 0-.2.1.2 0 .3 0 .5-.1h-.3c.2 0 .3 0 .5.1h-.2c-.2 0 .4.2.2.1.2.1.3.2.4.4-.2-.3.2.6.1.1 0 .2 0 .3.1.5v-.2c0 .2 0 .3-.1.5.1-.3-.2.4-.1.1-.4.5.1 0-.1.2-.1.1-.2.1 0 0-.6.2-.1.1.1 0-.2 0-.3 0-.5.1h.3c-.2 0-.3 0-.5-.1.1 0 .2 0 .3.1-.7-.3.3.2-.4-.3.2.2-.2-.4-.1-.1 0-.1-.1-.2-.1-.3v.2c0-.2 0-.3-.1-.5v.3c0-.2 0-.3.1-.5l.1-.2c-.1.2.2-.2.3-.3.3-.2-.2 0 .2-.1.3-.1.1-.1 0 0 .2 0 .3 0 .5-.1h-.3c.2 0 .3 0 .5.1h-.1l.6.3.2.2c.1.3.2.4.1.2 0 .2 0 .3.1.5v-.1c0 .2 0 .3-.1.5 0-.2-.1.2-.1.2.1-.2-.3.3-.1.2.1-.1-.3.3-.4.3-.3.1-.1 0 0 0-.2 0-.3 0-.5.1h.1c-.3 0-.5-.1-.8-.2 2.3 1.4 3.8-2.7 1.9-3.6z"/>
  </g>
  <g>
    <path fill="#FFF" d="M171.2 169.6c-6.7 2 2.2 8.9 3.1 1.8.1-2.8-3.6-4.5-5.6-2.5-4.4 6.6 8 8.1 6 .6-1.4-4.7-9.3-3.2-8.2 1.8 4.3 9 13.6-4.4 3.2-4.4-5.1 1.3-2.9 9.3 2.1 7.9 3.1-.7 4.5-5.1 1.7-7-1.4-1-3.6-.6-4.4 1-2.3 4.1 5 5.2 3.2.8.1.1.1.3.2.4v-.2c0 .2 0 .3.1.5v-.3c0 .2 0 .3-.1.5 0-.1 0-.2.1-.2-.1.1-.1.3-.2.4 0-.1.1-.2.2-.3-.1.1-.2.3-.3.4l.2-.2c-.1.1-.3.2-.4.3.1-.1.1-.1.2-.1-.1.1-.3.1-.4.2.1 0 .2-.1.3-.1-.2 0-.3 0-.5.1h.3c-.2 0-.3 0-.5-.1.1 0 .3.1.4.1-.1-.1-.3-.1-.4-.2.1 0 .2.1.3.2-.1-.1-.3-.2-.4-.3l.3.3c-.1-.1-.2-.3-.3-.4.1.1.2.2.2.4-.1-.1-.1-.3-.2-.4.1.1.1.3.1.4 0-.2 0-.3-.1-.5v.6c0-.2 0-.3.1-.5 0 .2-.1.3-.1.5.1-.1.1-.3.2-.4-.1.2-.2.3-.3.5.1-.1.2-.3.3-.4-.1.2-.3.3-.5.5.1-.1.3-.2.4-.3l-.6.3c.1-.1.3-.1.4-.2-.2.1-.4.1-.6.2.2 0 .3 0 .5-.1h-.5c.2 0 .3 0 .5.1-.2 0-.3-.1-.5-.1.1.1.3.1.4.2-.2-.1-.3-.2-.5-.3.1.1.3.2.4.3-.2-.1-.3-.3-.5-.5.1.1.2.3.3.4-.1-.2-.2-.3-.3-.5.1.1.1.3.2.4-.1-.2-.1-.4-.2-.6 0 .2 0 .3.1.5v-.5c0 .2 0 .3-.1.5 0-.2.1-.4.1-.5-.1.1-.1.3-.2.4.1-.2.2-.4.3-.5-.1.1-.2.3-.3.4.1-.1.2-.3.4-.4-.1.1-.3.2-.4.3.1-.1.3-.2.5-.3-.1.1-.3.1-.4.2.2-.1.3-.1.5-.1-.2 0-.3 0-.5.1h.5c-.2 0-.3 0-.5-.1.2 0 .3.1.5.1-.1-.1-.3-.1-.4-.2.2.1.3.2.5.3-.1-.1-.3-.2-.4-.3l.3.3c-.1-.1-.2-.3-.3-.4.1.1.2.3.2.4-.1-.1-.1-.3-.2-.4.1.1.1.3.1.4 0-.2 0-.3-.1-.5v.5c0-.2 0-.3.1-.5 0 .2-.1.4-.1.5.1-.1.1-.3.2-.4-.1.1-.1.3-.2.4.1-.1.2-.3.3-.4l-.3.3c.1-.1.3-.2.4-.3-.1.1-.3.2-.4.3.1-.1.3-.1.4-.2-.2.1-.4.1-.6.2.2 0 .3 0 .5-.1h-.6c.2 0 .3 0 .5.1-.2 0-.4-.1-.6-.2.1.1.3.1.4.2-.2-.1-.3-.2-.5-.3.1.1.3.2.4.3-.2-.1-.3-.3-.4-.4.1.1.2.3.3.4-.1-.2-.2-.3-.3-.5.1.1.1.3.2.4-.1-.2-.1-.3-.1-.5 0 .2 0 .3.1.5v-.4c0 .2 0 .3-.1.5 0-.1.1-.3.1-.4-.1.1-.1.3-.2.4.1-.1.1-.2.2-.4-.1.1-.2.3-.3.4.1-.1.2-.3.4-.4-.1.1-.3.2-.4.3.2-.1.3-.2.5-.3-.1.1-.3.1-.4.2.2-.1.4-.1.7-.2-.2 0-.3 0-.5.1h.6c-.2 0-.3 0-.5-.1.2 0 .4.1.7.2-.1-.1-.3-.1-.4-.2.2.1.4.2.6.4-.1-.1-.3-.2-.4-.3.2.1.4.3.5.5-.1-.1-.2-.3-.3-.4.1.2.2.3.3.5-.1-.1-.1-.3-.2-.4.1.2.1.3.1.5 0-.2 0-.3-.1-.5v.6c0-.2 0-.3.1-.5 0 .2-.1.3-.1.5.1-.1.1-.3.2-.4-.1.2-.2.3-.3.5.1-.1.2-.3.3-.4l-.3.3c.1-.1.3-.2.4-.3-.1.1-.2.1-.3.2.1-.1.3-.1.4-.2-.2.1-.3.1-.5.1.2 0 .3 0 .5-.1h-.5c.2 0 .3 0 .5.1-.1 0-.3-.1-.4-.1.1.1.3.1.4.2-.1-.1-.3-.1-.4-.2.1.1.3.2.4.3-.1-.1-.2-.1-.2-.2.1.1.2.3.3.4-.1-.1-.1-.2-.2-.3.1.1.1.3.2.4 0-.1-.1-.2-.1-.3 0 .2 0 .3.1.5v-.5c0 .2 0 .3-.1.5 0-.1.1-.3.1-.4-.1.1-.1.3-.2.4 0-.1.1-.2.2-.3-.1.1-.2.3-.3.4.1-.1.1-.2.2-.2-.1.1-.3.2-.4.3.1-.1.2-.1.2-.1-.1.1-.3.1-.4.2.1 0 .2-.1.3-.1-.2 0-.3 0-.5.1h.4c-.2 0-.3 0-.5-.1.1 0 .3.1.4.1-.1-.1-.3-.1-.4-.2.1.1.2.1.3.2-.1-.1-.3-.2-.4-.3l.3.3c-.1-.1-.2-.3-.3-.4.1.1.1.2.2.3-.1-.1-.1-.3-.2-.4.1.1.1.3.1.4 0-.2 0-.3-.1-.5v.4c0-.2 0-.3.1-.5 0 .1-.1.2-.1.3.1-.1.1-.3.2-.4-.1.1-.1.2-.2.3.1-.1.2-.3.3-.4l-.2.2c.1-.1.3-.2.4-.3-.1 0-.1.1-.2.1.1-.1.3-.1.4-.2-.1 0-.2.1-.3.1.2 0 .3 0 .5-.1h-.2c.2 0 .3 0 .5.1-.1 0-.2 0-.2-.1.1.1.3.1.4.2-.1 0-.1-.1-.2-.1.1.1.3.2.4.3l-.1-.1c.1.1.2.3.3.4 0 0 0-.1-.1-.1.1.1.1.3.2.4v-.1c0 .2 0 .3.1.5v-.2c0 .2 0 .3-.1.5v-.2c-.1.1-.1.3-.2.4 0-.1.1-.1.1-.2-.1.1-.2.3-.3.4l.1-.1c-.1.1-.3.2-.4.3l.1-.1c-.1.1-.3.1-.4.2h.1c-.2 0-.3 0-.5.1 2.7.2 2.3-4 0-3.8z"/>
  </g>
  <g>
    <path fill="#FFF" d="M165.5 160c.1-1.9-2.2-3-3.8-2.1-2.4 1.6-.7 5.6 2.2 4.8 5.2-1.4.4-9-3.3-5.4-3.2 3.3 2.2 7.8 4.9 3.9 3-6.8-8.7-6.3-5.9.3 1.8 4.3 9.2 1.5 6.9-2.9-1.1-2.2-4.8-1.7-5.2.7-1 3.1 4.3 3.6 3.6.3v-.1c0 .2 0 .3.1.5v-.2c0 .2 0 .3-.1.5v-.2c-.1.1-.1.3-.2.4 0-.1.1-.2.1-.2-.1.1-.2.3-.3.4 0-.1.1-.1.2-.1-.1.1-.3.2-.4.3.1-.1.1-.1.2-.1-.1.1-.3.1-.4.2.1 0 .2-.1.3-.1-.2 0-.3 0-.5.1h.2c-.2 0-.3 0-.5-.1.1 0 .2 0 .3.1-.1-.1-.3-.1-.4-.2.1 0 .2.1.2.1-.1-.1-.3-.2-.4-.3l.2.2c-.1-.1-.2-.3-.3-.4.1.1.1.2.2.3-.1-.1-.1-.3-.2-.4 0 .1.1.2.1.3 0-.2 0-.3-.1-.5v.3c0-.2 0-.3.1-.5 0 .1-.1.2-.1.3.1-.1.1-.3.2-.4-.1.1-.1.3-.2.4.1-.1.2-.3.3-.4l-.3.3c.1-.1.3-.2.4-.3-.2.1-.3.2-.5.3.1-.1.3-.1.4-.2-.2.1-.3.1-.5.1.2 0 .3 0 .5-.1h-.6c.2 0 .3 0 .5.1-.2 0-.4-.1-.6-.2.1.1.3.1.4.2-.1-.1-.3-.1-.4-.2.1.1.3.2.4.3l-.3-.3c.1.1.2.3.3.4-.1-.1-.2-.3-.3-.5.1.1.1.3.2.4-.1-.2-.1-.3-.1-.5 0 .2 0 .3.1.5v-.5c0 .2 0 .3-.1.5 0-.1.1-.3.1-.4-.1.1-.1.3-.2.4.1-.1.1-.2.2-.3-.1.1-.2.3-.3.4l.3-.3c-.1.1-.3.2-.4.3.1-.1.3-.2.4-.2-.1.1-.3.1-.4.2.1-.1.3-.1.5-.1-.2 0-.3 0-.5.1h.4c-.2 0-.3 0-.5-.1.1 0 .2 0 .4.1-.1-.1-.3-.1-.4-.2.1 0 .2.1.3.2-.1-.1-.3-.2-.4-.3l.3.3c-.1-.1-.2-.3-.3-.4.1.1.2.2.2.4-.1-.1-.1-.3-.2-.4 0 .1.1.3.1.4 0-.2 0-.3-.1-.5v.4c0-.2 0-.3.1-.5 0 .1 0 .2-.1.3.1-.1.1-.3.2-.4 0 .1-.1.2-.1.2.1-.1.2-.3.3-.4l-.2.2c.1-.1.3-.2.4-.3-.1.1-.2.1-.3.2.1-.1.3-.1.4-.2-.1.1-.3.1-.4.1.2 0 .3 0 .5-.1h-.4c.2 0 .3 0 .5.1-.1 0-.2 0-.3-.1.1.1.3.1.4.2-.1 0-.2-.1-.3-.2.1.1.3.2.4.3l-.2-.2c.1.1.2.3.3.4-.1-.1-.1-.2-.1-.2.1.1.1.3.2.4 0-.1-.1-.2-.1-.3 0 .2 0 .3.1.5v-.3c0 .2 0 .3-.1.5 0-.1.1-.3.1-.4-.1.1-.1.3-.2.4 0-.1.1-.2.2-.3-.1.1-.2.3-.3.4.1-.1.1-.2.2-.2-.1.1-.3.2-.4.3.1-.1.2-.1.2-.1-.1.1-.3.1-.4.2.1 0 .2-.1.3-.1-.2 0-.3 0-.5.1h.4c-.2 0-.3 0-.5-.1.1 0 .3.1.4.1-.1-.1-.3-.1-.4-.2.1.1.2.1.4.2-.1-.1-.3-.2-.4-.3l.3.3c-.1-.1-.2-.3-.3-.4.1.1.1.2.2.3-.1-.1-.1-.3-.2-.4 0 .1.1.2.1.3 0-.2 0-.3-.1-.5v.4c0-.2 0-.3.1-.5 0 .1 0 .2-.1.3.1-.1.1-.3.2-.4 0 .1-.1.2-.2.3.1-.1.2-.3.3-.4 0 .1-.1.1-.2.2.1-.1.3-.2.4-.3-.1.1-.2.1-.2.1.1-.1.3-.1.4-.2-.1 0-.2.1-.3.1.2 0 .3 0 .5-.1h-.2c.2 0 .3 0 .5.1-.1 0-.2 0-.3-.1.1.1.3.1.4.2 0 0-.1 0-.1-.1.1.1.3.2.4.3-.1 0-.1-.1-.1-.1.1.1.2.3.3.4 0-.1-.1-.1-.1-.2.1.1.1.3.2.4 0-.1 0-.2-.1-.2 0 .2 0 .3.1.5v-.2c0 .2 0 .3-.1.5v-.2c-.1.1-.1.3-.2.4 0-.1.1-.1.1-.2-.1.1-.2.3-.3.4l.1-.1c-.1.1-.3.2-.4.3 0 0 .1 0 .1-.1-.1.1-.3.1-.4.2h.1c-.2 0-.3 0-.5.1h.2c-.2 0-.3 0-.5-.1h.2c-.1-.1-.3-.1-.4-.2.1 0 .1.1.1.1-.1-.1-.3-.2-.4-.3l.1.1c-.1-.1-.2-.3-.3-.4 0 0 0 .1.1.1-.1-.1-.1-.3-.2-.4v.1c0-.2 0-.3-.1-.5 0 2.6 3.8 2.2 3.5-.2z"/>
  </g>
  <g>
    <path fill="#FFF" d="M177 157.4c-3-3-7.8 1.7-3.9 4.2 2.7 1.5 5.8-1.4 4.9-4.2-2.9-7.1-12.4 1.2-5.3 4.7 3.7 1.4 8.7-2.7 5.5-6.3-2.6-2.9-8.5-.5-8.1 3.4 1.6 8.9 15.3 1 7.3-4.4-3-1.7-7.5 0-8.2 3.5-1.7 9.7 15.8 6.2 10.1-2-7.9-7.2-14.9 8.7-3.4 7.8 5.5-.9 5.9-9.6-.2-9.6-7.5-.1-3.7 11 .4 5.8.2-.9-.4-2.3-1.5-2.3-.2 0 .4.2.2.1s0-.2.2.1l-.1-.1c.1.1.3.4 0 .1.3.3.1.4.1.2 0-.1 0-.2-.1-.3.2.5 0 .4 0 .2 0-.1 0-.4 0 0 0 .3 0 .1 0 0 .1-.2.1 0-.1.2l.1-.2c-.2.5-.2.1 0 0 .2-.3-.3.2-.1.1.1 0 .1-.1.2-.1.3-.2-.4.1-.1 0 .2-.1.9 0 .2-.1h.7.1c.1 0 .1 0 .2.1.2.1-.4-.2-.1 0 .1.1.2.2.4.2-.3-.1-.3-.2-.1-.1l.2.2-.1-.1s.1.1.1.2c.2.3-.1-.3 0-.1.2.3 0 .5.1 0v.4c0 .4.1-.4 0-.1 0 .1-.1.3-.1.4-.1.4.2-.3 0-.1 0 .1-.1.1-.1.2-.1.1-.2.3-.3.4 0 0 .3-.4.1-.1-.1.1-.1.2-.2.2-.1.1-.1.1-.2.1l.1-.1c-.1 0-.3.2-.4.3-.2.1-.5.1-.1 0-.2 0-.4.1-.5.2h-.2c-.3.1.2 0 .2 0-.1.1-1.1-.1-.4 0-.2 0-.2.1-.4-.1-.1 0-.1 0-.2-.1s-.1 0 .2.1c-.2-.1-.3-.2-.5-.3.7.4-.1 0-.2-.2 0 0 .3.4.1.1 0-.1-.1-.2-.2-.3 0-.1-.1-.1-.1-.2.3.7 0 0 0-.2-.1-.2 0 .4 0 .2 0-.3.1-.6 0 0 0-.1 0-.2.1-.3 0-.1.1-.1.1-.2-.3.4.1.1.1-.2-.3.5 0 0 .2-.1.1 0 .1-.1.2-.1l-.2.2c.1 0 .1-.1.2-.1.1-.1.8-.3.3-.2.2-.1.4-.2.7-.2.2 0 .3.1-.1 0h.6c.3 0 .3-.1.5.1.1 0 .3.1 0 0s0 0 .1.1c.1 0 .1.1.2.1.2.1-.4-.3-.1-.1l.2.2-.1-.1c.2.1.4.9.1.3 0 .1.1.2.1.2 0 .1.1.2.1.2v-.2.4c-.1-.7.2-.1-.1 0 0 .1-.1.3 0 0s0 0-.1.1c0 .1-.2.2 0 0 .2-.3 0 0 0 0l-.3.3c.4-.4.1 0-.1 0-.1.1-.3.2-.5.2-.2.1.4-.1.2-.1-.1 0-.2.1-.2.1-.9.2-.6.2-1.6.2-.2 0-.2-.1.2 0-.1 0-.3-.1-.4-.1 0 0-.4-.2-.1 0 .3.1 0 0-.1-.1-.1 0-.2-.1-.2-.1-.2-.1.4.3.1.1l-.3-.3c.3.2.2.3.1.2-.1-.1-.1-.3-.2-.4-.1-.2.2.4.1.1 0-.1-.1-.3-.1-.4V158.8c0 .3 0 .1 0 0s.2-.6.1-.2c-.1.3.2-.4.2-.4-.7.8.7-.8.2-.2.1 0 .1-.1.2-.1.1-.1.3-.2.4-.2.1-.1.3-.1-.2.1.3-.1.6-.3.9-.2-.5.1-.3 0-.1 0 .2-.1 1 .1.3 0 .2-.1.5.2.7.2-.2 0-.3-.2-.1 0 .1 0 .2.1.2.1.1 0 .3.2 0 0s.2.1.3.3c-.2-.4-.1-.1 0 .1.2.3-.1-.4 0 0 .1.3.2.5.1 0v.3c0 .3.1-.5 0-.2 0 .1-.1.2-.1.4.1-.4.2-.3.1-.2 0 .1-.1.2-.1.2-.2.3.1-.2.1-.2l-.3.3c-.2.2.3-.2.2-.1-.1.2-.4.2-.6.3-.3.2.4-.1.1 0-.1 0-.2.1-.4.1-.1 0-.4.1 0 0 .6 0-1.3-.1-.4 0-.1 0-.2 0-.3-.1-.1 0-.1 0-.2-.1-.3-.1.1 0 .1.1l-.3-.2c.3.2-.1-.2-.2-.2 0 0 .2.4.1.1 0-.1-.1-.2-.2-.3.1.3.1.3.1 0 .2.3 0 .4 0 .2v-.1c0 .4 0-.2.1-.2-.2.5-.1.1.1-.1 0 0-.3.4-.1.1.1-.1.1-.2.3-.2.3-.3-.3.2-.1.1.2-.3.9-.3.2-.1.3-.1.4-.2.8-.2-.5.1-.3 0-.2 0h.3c-.4 0 .3 0 .3.1-.1 0-.2-.1-.2-.1.2 0 .4.4.1 0 .3.3.1.1 0-.1 0 .1.3.7.1.2-.1-.3 0-.1 0 0 .1.3-.1.1 0-.2v.3s.1-.5 0-.2c0 .2-.2.1.1-.2 0 0-.1.1-.1.2 0-.3.3-.3.1-.1-.1 0-.3.2 0 .1.3-.2 0 0 0 0-.4.2-.2.1-1 .3-.1 0-.4.1-.1 0h-.4c.4 0-.2-.1-.3-.1l.2.1s-.1-.1-.2-.1c.2 0 .3.2.1.1-.3-.2.2.3.1.1 0-.1-.1-.1-.1-.2-.1-.2.2.5 0 .1-.1-.3.1-.1 0 .2v-.2c0-.2.1-.2 0 .2v-.2c.1-.3-.1.2-.1.2 0-.1.1-.2.1-.2.1-.2-.3.3-.1.1l.2-.2c.2-.2-.3.2-.1.1.1 0 .1-.1.2-.1.1-.1.2 0-.2.1.3-.1.4-.2 0-.1h.2.1c.1 0 .3.1 0 0s.1.1.2.1c0 0-.4-.3-.2-.1.3.3.1 0 0-.1.1 0 .1.1.1.2.1.1-.1-.5 0-.1 0 .1.1.3 0 0-.1-.4 0 0 0 0s.1-.5 0-.2c0 0-.1.1-.1.2 0-.3.2-.4.1-.2 0 .1-.1.1-.1.2-.2.3.3-.3.1-.1-.1 0-.1.1-.2.2.2-.3.3-.2.1-.1-.2.1.4-.1.2-.1l-.2.1h.2c.5 0 .4.1.2 0-.3-.1.2.1.2.1-.3-.1.3.3.1.1s.2.4.1.1c.3.5.2.9-.2 1.4.1-.1.1-.1-.2.1.1-.1.3-.1-.2.1h-.2c-.5 0-.3-.1-.2 0 .3.1-.1-.1-.1-.1s.1 0 .1.1c.2.1.1.1-.1-.1 1.6 1.6 4.8-1 3.1-2.6z"/>
  </g>
  <g>
    <path fill="#FFF" d="M179.9 164.5c-7-2.6-4.9 8.4 1 3.3 4.9-6.2-8.2-7.6-6.5-.5 2.1 5.9 11.9.6 7.1-4-4.5-4.2-10.5 4.8-4.2 6.5 5.4 1.5 9-5.6 3-7.4-6.3-1.2-8.1 7.1-1.6 3.8-.1.1-.3.1-.4.2.4-.1.7-.3 1.1-.3-.2 0-.3 0-.5.1h.9c-.2 0-.3 0-.5-.1.2 0 .4.1.7.2-.1-.1-.3-.1-.4-.2.2.1.3.2.5.3-.1-.1-.3-.2-.4-.3l.3.3c-.1-.1-.2-.3-.3-.4.1.1.2.3.2.4-.1-.1-.1-.3-.2-.4.1.2.1.3.1.5 0-.2 0-.3-.1-.5v.4c0-.2 0-.3.1-.5 0 .1 0 .2-.1.4.1-.1.1-.3.2-.4-.1.1-.1.2-.2.4.1-.1.2-.3.3-.4l-.3.3c.1-.1.3-.2.4-.3l-.6.3c.1-.1.3-.1.4-.2-.4.2-.8.3-1.2.3.2 0 .3 0 .5-.1-.4.1-.9.1-1.3 0 .2 0 .3 0 .5.1-.2 0-.4-.1-.5-.1.1.1.3.1.4.2-.1-.1-.3-.1-.4-.2.1.1.3.2.4.3l-.2-.2c.1.1.2.3.3.4-.1-.1-.2-.2-.2-.4.1.1.1.3.2.4 0-.1-.1-.2-.1-.3 0 .2 0 .3.1.5v-.5c0 .2 0 .3-.1.5 0-.2.1-.4.2-.6-.1.1-.1.3-.2.4.1-.2.2-.4.3-.5-.1.1-.2.3-.3.4.1-.1.2-.3.4-.4-.1.1-.3.2-.4.3.2-.2.4-.3.6-.4-.1.1-.3.1-.4.2.2-.1.4-.1.6-.2-.2 0-.3 0-.5.1h.6c-.2 0-.3 0-.5-.1.2 0 .3.1.5.1-.1-.1-.3-.1-.4-.2.2.1.3.2.5.3-.1-.1-.3-.2-.4-.3.1.1.3.2.4.4-.1-.1-.2-.3-.3-.4.1.1.2.3.2.4-.1-.1-.1-.3-.2-.4.1.1.1.3.1.4 0-.2 0-.3-.1-.5v.5c0-.2 0-.3.1-.5 0 .1-.1.3-.1.4.1-.1.1-.3.2-.4-.1.2-.2.3-.3.5.1-.1.2-.3.3-.4-.1.2-.3.3-.5.4.1-.1.3-.2.4-.3-.2.1-.4.3-.6.4.1-.1.3-.1.4-.2-.2.1-.5.2-.8.2.2 0 .3 0 .5-.1h-.7c.2 0 .3 0 .5.1-.2 0-.4-.1-.6-.2.1.1.3.1.4.2-.1-.1-.3-.1-.4-.2.1.1.3.2.4.3-.1-.1-.3-.2-.4-.4.1.1.2.3.3.4-.1-.1-.2-.3-.2-.4.1.1.1.3.2.4-.1-.1-.1-.3-.1-.4 0 .2 0 .3.1.5v-.5c0 .2 0 .3-.1.5 0-.1.1-.2.1-.4-.1.1-.1.3-.2.4.1-.1.1-.3.2-.4-.1.1-.2.3-.3.4.1-.1.2-.3.4-.4-.1.1-.3.2-.4.3.2-.1.4-.3.6-.3-.1.1-.3.1-.4.2.2-.1.5-.2.8-.2-.2 0-.3 0-.5.1h.6c-.2 0-.3 0-.5-.1.2 0 .3.1.4.1-.1-.1-.3-.1-.4-.2.1.1.2.1.3.2-.1-.1-.3-.2-.4-.3l.2.2c-.1-.1-.2-.3-.3-.4.1.1.1.2.2.3-.1-.1-.1-.3-.2-.4 0 .1.1.2.1.3 0-.2 0-.3-.1-.5v.2c0-.2 0-.3.1-.5 0 .1 0 .2-.1.3.1-.1.1-.3.2-.4 0 .1-.1.2-.2.3.1-.1.2-.3.3-.4l-.4.4c.1-.1.3-.2.4-.3-.3.2-.6.4-.9.5.1-.1.3-.1.4-.2-.2.1-.4.1-.6.2.2 0 .3 0 .5-.1h-.3c.2 0 .3 0 .5.1-.1 0-.1 0-.2-.1.1.1.3.1.4.2 0 0-.1 0-.1-.1.1.1.3.2.4.3l-.1-.1c.1.1.2.3.3.4 0 0 0-.1-.1-.1.1.1.1.3.2.4v-.1c0 .2 0 .3.1.5v-.1c0 .2 0 .3-.1.5v-.2c-.1.1-.1.3-.2.4 0-.1.1-.1.1-.2-.1.1-.2.3-.3.4 0-.1.1-.1.1-.2-.1.1-.3.2-.4.3.1 0 .1-.1.2-.1-.1.1-.3.1-.4.2.1 0 .2-.1.2-.1-.2 0-.3 0-.5.1h.3c-.2 0-.3 0-.5-.1.1 0 .3.1.4.1-.1-.1-.3-.1-.4-.2 1.9 1.5 4.7-2.2 2.4-3.3z"/>
  </g>
  <g>
    <path fill="#FFF" d="M174.2 162.8c-2.8-.4-4.3 3.6-2 5.2 2.2 1.6 5.2-.1 5-2.8-.8-6.3-10.2-2.3-6.8 2.9 3.4 5.5 11.5-1.6 5.7-5.2-2.3-1.3-5.3.4-5.9 2.9-1.2 7.4 10.2 5.3 6-.8-1.9-1.8-5.4-.4-5.1 2.4.3 2.8 4.2 3.7 5.6 1.1 1.8-3.8-3.1-7-6.5-6.3-4.1.8-3.5 7.1.8 6.8 2.5-.1 4-2.9 3.2-5.2-1.8-5.5-11.5-3-8.8 2.8 4 5.7 9.9-3.1 3.5-5.1-5-1.4-7.6 6.8-1.5 5.4 3.2-3-3.1-6.6-5.6-3.9l2.7 2.7c1.5-1.4 3.4-2.3 5.4-2.5 2.1 0 2.5-3.1.5-3.7l-3.6-.9c-.2 1.2-.3 2.5-.5 3.7 1 0 2.1.1 3.1.1-.2-1.2-.3-2.5-.5-3.7-.6.2-1.2.3-1.8.2 0 0-.3-.2-.2 0-3.6-7.7-11.7 1.1-4 4.8-.2-.2.3.4.2.2-.8 8.1 7.2 6.1 3.7 2.1 0 0 .3.2.2.2 0 0-.1-.3-.1-.4.5-3.1-1.2-4.9-3.7-6.7.1.2-.1-.1 0-.1 0 .2-.1.4-.3.5h.1s-.1 0-.1-.1c.9 3 4.1 3.5 6.7 2.8 2.1-.5 1.6-3.6-.5-3.7-1 0-2.1-.1-3.1-.1-2.1-.1-2.6 3.2-.5 3.7l3.6.9c.2-1.2.3-2.5.5-3.7-2.9.6-10.1 2.4-8 6.3.8.8 1.9.6 2.7 0-.1.1-.1.1-.3.1.2-.1.2-.1 0 0h.3c-.2 0-.2 0 0 0 .2.1.2.1 0 0 .2.1.2.1 0 0 .1.2.2.2 0 0 .1.2.1.2 0 0l.9-2.1s-.1 0-.1.1l.9-.3c.3.6.7 1.3 1 1.9l.1-.1c.3-.1.2-.1.1-.1 0 0 .6-.1.3-.1h.1c.3 0 .2.1 0 0-.1-.1 0-.2 0 0 0-.4 0 .2 0 0v.1c0-.1 0-.2.1-.3-.1.3-.1 0 0 0 .6-.2.2-.2.7-.2h-.1s.1 0 .1.1c-.2-.2-.2-.2 0-.1s-.1.3.1.1c.4-.5 1.2-.3 1.7 0 .1 0 .2.2.3.4-.2-.2.1.3 0 0V165.4c.1-.2 0 .1-.1.1s.3-.2.3-.2c-.2.1-.2.1 0 0 .4-.1-.3.2.1.1-.2 0-.1-.3 0 0 0 .1.1.3.2.3v.2l.1-.1h-.1c.8-.2 2 .4 2.4 1.1v-.4c0 .4-.1.1 0 0 .4-.2.4-.4.9-.3.9.3.3 1.7-.4 1.6.3-.1 0 0-.2-.1-.4-.2-.4-.6-.2-.9 0-.1-.2.1 0 0 .1-.1.4-.2.4 0-.2-.1-.2-.2-.1-.1.1.3-.1-.3 0-.1v-.1c.1-.1.1-.4.4-.4.5-.2 0-.1 0-.1-.1 0 0-.1.1.1-.1-.2 0 .3 0 .1v.1c.2-.3-.2 0-.1 0s-.4.1-.1.1c-.3.1-.6-.3-.6-.6 0 .4 0-.3 0 0 0-.1 0 0 .1-.2 0 0-.1.2-.2.1 0 0 .2-.2.2-.1h-.1c.2 0 .2 0 0 0-.2-.1-.1-.1 0 0-.1 0-.2-.3-.2-.4.1.2-.1.1 0-.1.8-1.1 1.7.7.9 1.2-.5.1-.6.1-.3.1 2.1 0 2.9-3.4.3-3.6z"/>
  </g>
  <g>
    <path fill="#FFF" d="M145.1 99.6c3.3-2.1 14.9-3.5 15-7.4-1.6-3.8-12.5 3.4-16 3.8-2.3.8-1.4 4.2 1 3.6z"/>
  </g>
  <g>
    <path fill="#FFF" d="M144.6 43.2c6.2 1 12.3 2.7 18.1 5.2.9.4 2.1-.4 2.3-1.3-.6-4.7-15.1-6.2-19.4-7.5-2.3-.6-3.4 2.9-1 3.6z"/>
  </g>
  <g>
    <path fill="#FFF" d="M206.9 12.7c.4 3.3-1 15.5 3.5 15.3 3.1-1.6-.9-11.5.2-15.3-.1-2.4-3.5-2.4-3.7 0z"/>
  </g>
  <g>
    <path fill="#FFF" d="M261.6 41.3c3.6-2.8 7.1-5.6 10.7-8.4 2.5-9.1-11.1 4.4-13.4 5.7-1.8 1.6 1 4.5 2.7 2.7z"/>
  </g>
  <g>
    <path fill="#FFF" d="M269.4 77.7c3.5-1.6 18.6-1.3 18-5.5-2-3.4-14.8 2-19 1.9-2.4.6-1.3 4.2 1 3.6z"/>
  </g>
  <g>
    <path fill="#735745" d="M106.5 279c-.1.6-.3 1.2-.4 1.9 1.6.2 3.3.4 4.9.7 1.1-7.2-6.3-4.9-5.8.9 1.3 5 5.8 1.8 5.3-2.2.1-3.2-4.9-3.2-5 0 0 2.7-2.4 7.6 1.8 8.1 4.1-1 19.4 2 19.7-2.9-.5-5.1-15.4-1.2-19.7-2.1l2.5 2.5c.2-1.9.5-3.7.7-5.6h-5c-.1.7-.2 1.5-.3 2.2h5c0-.6.2-1.1.6-1.7-1.6-.4-3.1-.8-4.7-1.3-1.2 3.6 2.9 6.7 4.8 2.8 1.9-3.6-2.2-7.6-4.4-3.3z"/>
  </g>
  <g>
    <path fill="#735745" d="M150.4 281.7c-.5 1.8-3.7 4.3-2 6 2.4.8 2.8-3.3 4.1-4.7.8-1.4-1.3-2.6-2.1-1.3z"/>
  </g>
  <g>
    <path fill="#735745" d="M150 280.6c-.6 2.6-4.3 5.8-2.7 8.2 2.9.4 3.2-5 4.8-6.9.8-1.4-1.3-2.6-2.1-1.3z"/>
  </g>
  <g>
    <path fill="#735745" d="M145.1 280.4c-.1 1.2-.2 2.3-.3 3.5h2.5c.1-.9.1-1.7.2-2.6H145c.1 1.7-.1 9.9 2.7 5.4.2-2.5.3-4.9.5-7.4h-2.5c.1 1.8-.5 11.3 2.7 6.6.4-5.7.1-11.4-1-17-.3-1.6-2.7-.9-2.4.7 1 5.4 1.3 10.9.9 16.3h2.5c-.1-1.8.5-11.3-2.7-6.6-.2 2.5-.3 4.9-.5 7.4h2.5c-.1-1.8-.2-3.6-.2-5.4-.1-1.6-2.4-1.6-2.5 0-.1.9-.1 1.7-.2 2.6-.1 1.6 2.4 1.6 2.5 0 .1-1.2.2-2.3.3-3.5.1-1.6-2.4-1.6-2.5 0z"/>
  </g>
  <g>
    <path fill="#735745" d="M207.1 219c-12.9-7.4-27.3.8-38 8.2-19.9 12.4-31.1 34-23.9 57.2.8-.3 1.5-.6 2.3-1-3.4-7.5-5.1-15.7-5-24-6.8-8.8 1.8 34.4 5.1 24.2-9.5-28.8 12.6-52 37.4-62.9 6.7-2.7 14.4-3.4 20.9.2 1.3 1 2.6-1.1 1.2-1.9z"/>
  </g>
  <g>
    <path fill="#735745" d="M143 259.1c-2.2 3-3.8 15.5 1 15.6.6-.4.7-1.1.4-1.7-1.7-4-1.4-8.8.7-12.6.8-1.4-1.3-2.7-2.1-1.3z"/>
  </g>
  <g>
    <path fill="#735745" d="M160.1 234.3c-9.6 8.2-15.5 20.1-16.4 32.7-.1 1.6 2.4 1.6 2.5 0 .9-11.9 6.6-23.2 15.7-30.9 1.2-1.1-.6-2.9-1.8-1.8z"/>
  </g>
  <g opacity=".44">
    <path fill="#5B4438" d="M116.5 279.5c.1 1.2-2.2 10.9.5 7.7-.1-1.2 2.2-10.9-.5-7.7z"/>
  </g>
  <g opacity=".44">
    <path fill="#5B4438" d="M131.6 281.2c.7 2.1-1.1 5.2.1 6.8 1.9.4 1.7-10.3-.1-6.8z"/>
  </g>
  <g opacity=".44">
    <path fill="#5B4438" d="M134.2 279.9c-1.7 9.8-6.4 5.2-3.5 6.1.3.3.3.9.2 1.3-.3.8 1.2 1.2 1.3.3.2-1.2-.1-2.7-1.4-3.1-3.6-.9-2.5 4.7.6 3 2.2 0 5.7-10.7 2.8-7.6z"/>
  </g>
  <g opacity=".44">
    <path fill="#5B4438" d="M199 217.4c-25.4.1-52.5 17-54.4 44.1-.7 8.1.2 16.5-2.7 24.2-.3.8 1 1.1 1.3.4 4.5-12.6.2-26.9 6.6-39 8.7-18.4 29.6-28 49.3-28.4.7 0 .7-1.3-.1-1.3z"/>
  </g>
  <g opacity=".44">
    <path fill="#5B4438" d="M200.6 219c-41.9-6.7-64.4 30.6-58.3 68.6 0 .8 1.4.8 1.3 0-5.9-37.1 15.6-73.7 56.7-67.2.7.1 1.1-1.2.3-1.4z"/>
  </g>
  <g opacity=".44">
    <path fill="#5B4438" d="M211.1 224.8c-.5-11.3-4.1-13.3-1.9-.6.4-.1.8-.2 1.3-.4-1.8-5.6-3.7-11.3-5.5-16.9-.4.2-.8.3-1.2.5 1.2 1.2 6.6 14.8 7.5 11.1-1.5-1.3-3.6-16.5-5.1-12.8.3 2.6.5 5.1.8 7.7.4-.1.9-.1 1.3-.2-1.7-4.7-2.4-9.6-1.9-14.5h-1.3v9.5c.4-.1.9-.1 1.3-.2.4-1.6-6.1-14.4-6.4-9.8 2.6 2.9 4.4 6.3 5.1 10.1 2.5 2.4.9-8.2 1.3-9.7 0-.9-1.2-.8-1.3 0-.6 1.9.5 17.6 3.3 14.7-.3-2.6-.5-5.1-.8-7.7-.4.1-.9.1-1.3.2.8 4.5 2 8.8 3.8 13 .4-.2.8-.3 1.2-.5-1.3-1.3-6.4-14.6-7.5-11.1 2.4 5.5 7.9 30.7 6.3 8.6-.4.1-.9.1-1.3.2.4 1.1.7 12.3 2.3 8.8z"/>
  </g>
  <g opacity=".44">
    <path fill="#5B4438" d="M212.8 226.5c18.2-19.3 45.1-2.4 60.1 12.5.6.6 1.6-.4.9-.9-13.4-12.4-31.2-26-50.5-19.9-1.9-.3-15 8.2-10.5 8.3z"/>
  </g>
  <g opacity=".44">
    <path fill="#5B4438" d="M222.6 267.7c1.3 1.5 1.6 5.5 3.6 5.7 1-.4-3.7-9.7-3.6-5.7z"/>
  </g>
  <g opacity=".44">
    <path fill="#5B4438" d="M223.4 267.2c.7.9 2.1 7.8 3.3 4.8-.7-.9-2.1-7.9-3.3-4.8z"/>
  </g>
  <g opacity=".44">
    <path fill="#5B4438" d="M226.5 270.8s0-.1 0 0c0-.2-.1-.5-.2-.6v-.2-.7c.1-.2 0-.6.2-.7 0 0 0-.1.1-.1 0 .1 0 0 0 0 .1-.1.1-.4.3-.5 0 0 .1-.1 0-.1 0 .1 0 0 0 0 .8-.6-.2-1.6-.8-1-2.5 1.8 0 7.8.4 3.9z"/>
  </g>
  <g opacity=".44">
    <path fill="#5B4438" d="M206.2 272.9c.7-1 0-7.4-1.5-4.4 1 1-.8 6.3 1.5 4.4z"/>
  </g>
  <g opacity=".44">
    <path fill="#5B4438" d="M205.8 270.3c-.3-1.2-.3-4.2-1.9-3.9-.5.3-.2.9 0 1.3 0 .1.1.1.1.2.1.3.5 1.4.5 1.8-.4 1.1 1.2 2 1.3.6z"/>
  </g>
  <g>
    <path fill="#FFFFFE" d="M262.4 40.5c1-1.2 12.2-7.3 8.6-7.7-.9 1.1-12.4 7.5-8.6 7.7z"/>
  </g>
  <g>
    <path fill="#020202" d="M162.9 281.7c1.7.4 18 2.9 15.1 0-1.9 1.1-18.3-2.6-15.1 0z"/>
  </g>
  <g>
    <path fill="#020202" d="M178.2 283c.1 0 .3 0 .3-.1.1 0 .1-.1.2-.1.1-.1.1-.3.2-.4.1-.4-.6-1-.9-.6-.1 0-.1.1-.2.1-.1.1-.1.3-.2.4 0 .3.1.4.3.6 0 .1.1.1.3.1z"/>
  </g>
  <g>
    <path fill="#020202" d="M178 283c.1 0 .2 0 .3.1.2 0 .4.1.4-.1.5-.3.3-1-.2-1.2-.1 0-.2 0-.3-.1-.2 0-.4-.1-.4.1-.5.2-.3 1.1.2 1.2z"/>
  </g>
  <g>
    <path fill="#020202" d="M248.7 282.8c2.1-.4 21.8-3.4 18.2-5.5-1.6 1.6-22.8 4.2-18.2 5.5z"/>
  </g>
  <g>
    <path fill="#020202" d="M248 282.7c2.2-.1 22.5-3.6 19.1-5.9-2 2.2-23.4 4.6-19.1 5.9z"/>
  </g>
</svg>
